<?xml version="1.0" encoding="utf-8"?>
<!-- Generator: Adobe Illustrator 20.0.0, SVG Export Plug-In . SVG Version: 6.00 Build 0)  -->
<svg version="1.1" id="Layer_1" xmlns="http://www.w3.org/2000/svg" xmlns:xlink="http://www.w3.org/1999/xlink" x="0px" y="0px"
	 viewBox="0 0 250 250" style="enable-background:new 0 0 250 250;" xml:space="preserve">
<style type="text/css">
	.st0{fill:#D1AD7D;}
	.st1{fill:#B98E5D;}
	.st2{fill:#A46B43;}
	.st3{fill:#E6BE8E;}
	.st4{fill:#D0AD7D;}
	.st5{fill:#B98D5C;}
	.st6{fill:#BB9970;}
	.st7{fill:#EAE3D2;}
	.st8{fill:#8F562F;}
	.st9{fill:#9F8362;}
	.st10{fill:#A18564;}
</style>
<g>
	<g>
		<path class="st0" d="M188.7,128.2c-0.9,10.5,3.8,19.9,6.3,29.7c4,15.3,8.4,30.4,12.8,45.6c0.6,2,0.6,3.3-1.6,4.3
			c-14.4,6.7-28.8,13.6-43.3,20.3c1.8-5-3.2-8.6-2.8-13.6c0.1-1.7-3.1-2.3-5-1.2c-7.7,4.4-16.1,7.2-23.7,11.7
			c-5.5,3.3-7.6,2.5-10.2-3.2c-3.4-7.3-4.6-15.1-6.7-22.8c-3.9-14.3-7.8-28.5-11.8-42.7c-1.8-6.2-1.9-12.3-1-18.5
			c1.7-2.5,3.9-3.1,6.7-2.1c-0.9,4.1,1.7,4.4,4.8,4.9c5.6,1,11,3.3,16.6,4.5c5.8,1.2,10.5-0.1,15.4-2.3c9.1-4.2,18.2-8.4,27.7-11.8
			c3.7-1.4,7-3.7,10.8-5C185.8,125.4,188.2,124.5,188.7,128.2z"/>
		<path class="st1" d="M108.8,136.3c-2.3,0-4.7-0.2-6.4,1.9c-2.6,4.8-1.8,10.1-0.5,14.7c5.2,17.6,9.7,35.4,14.5,53.1
			c3.1,11.3,6.9,22.3,9.7,33.6c1,4,0.7,4.5-3.4,4.4c-1.1,0-2.1,0.2-3.1-0.4c-8.7-2-17.5-3.9-26.2-5.9c-8.3-1.9-16.5-4.1-24.8-5.8
			c-3.2-0.6-4.7-2.1-5.6-5.1c-6.8-22.9-13.7-45.8-20.6-68.6c-1-3.3-2.2-6.6-3.3-9.8c-0.8-3.2,1.5-2.9,3.2-2.5
			c9.3,2.6,18.9,3.1,28.2,5.8c0.9,0.3,1.8,0.5,2.6,0.7c8.6,2.2,14.1-0.5,17.9-8.4c1.3-2.6-0.6-3.3-2.3-3.9
			c-4.5-1.6-9.3-1.6-13.9-2.5c-13.6-2.6-27.2-5.3-40.9-7.5c-2.4-0.4-3.7-2-4.7-3.9c-2.3-5.3-6.8-8.9-10.4-13.2
			c-1.9-2.3-1.9-3.5,1.1-4.6c21.1-7.8,42.1-15.7,63.1-23.6c1.8-0.7,3.3-0.2,4.8,0.5c7.1,3.4,14.1,7,21.2,10.5
			c-3.5,2-7.4,3.4-11.2,4.8c-18.7,7.2-36.8,16.2-55.7,23c-0.8,0.3-1.8,0.6-2.1,1.6c0.2,1.1,1.2,1.4,2,1.5c9.2,1.2,18.2,3.5,27.4,5.2
			c8.7,1.6,17.4,2.5,26,4.4c4.2,0.9,7.3-1.8,10.7-3c6.6-2.3,12.8-5.5,19.6-7.3c0.4-0.2,0.8-0.3,1.3-0.4c3.1-0.3,5.4-2.5,8.2-3.6
			c0.4-0.2,0.8-0.3,1.3-0.4c4.4-1.8,8.7-3.8,13.5-4.4c0.7,0.1,1.4,0.3,1.9,0.8c0.1,2-1.5,2.6-2.9,3.1c-12.5,4.7-24.7,10.4-37.3,14.9
			C110.9,136.3,109.9,136.8,108.8,136.3z"/>
		<path class="st2" d="M127.2,126.2c-5.2,1.5-9.8,4.3-15,5.8c-4,1.2-7.9,3.1-11.7,4.9c-1.3,0.6-2.5,1.6-3.8,1.1
			c-8.3-3.4-17.4-3-26.1-4.8c-9.4-2-18.9-4.4-28.6-5.2c-1.8-0.2-4.1-0.5-4.3-2.6c-0.2-2.2,2.2-2.3,3.9-3c12.4-4.9,24.9-9.5,37-15.4
			c5.6-2.7,11.4-4.8,17.2-6.8c4.4-1.5,8-5.2,13.2-4.4c1.7-0.5,3.5-1.1,5.2-1.6c1.8-1.2,3.7-1.1,5.7-0.9c15.8,1.7,31.5,5,47.4,6.2
			c2.9,0.2,5.8,0.9,8.4,2.1c2.8,1.3,3.1,3.7,0.5,5.2c-2,1.2-3.7,3.5-6.5,2.6c-0.5-3.8-2.9-5.1-6.6-5.6c-15.2-1.8-30.3-4.3-45.5-6
			c-4.4-0.5-4.8,0.1-3.4,4.4c1.8,5.5,3.2,11.1,4.7,16.7c1.1,3.7,2.2,6.6,6.6,6.6C126.3,125.3,126.8,125.8,127.2,126.2z"/>
		<path class="st3" d="M108.8,136.3c6.9-3.9,14.5-5.9,21.7-8.9c7.2-3,14.3-6.2,21.4-9.4c1-1.7,2.8-2.2,4.4-3
			c6.2-2.9,12.8-5,19.1-7.7c4.3-1.8,5.7-4.7,5.6-9.2c-0.1-2.5-1.5-5.8,1.9-7.6c0,3.5,0.1,7,0.1,10.5c0,4.4,1.6,7.4,6.1,8.9
			c4.9,1.5,9.7,3.6,14.5,5.3c1.3,0.5,2.7,1.1,3,2.5c0.3,1.8-1.5,2.1-2.6,2.7c-5.1,2.7-10.3,5.2-15.4,7.8c-1.1-2.2-2.6-2.1-4.5-1.1
			c-11.4,5.4-23.1,10.3-34.9,14.9c-2.4,0.9-4.2,2.8-6.7,3.6c-9.2,2.9-17.6,0.7-25.9-3.1c-2.3-1.1-4.9-0.1-7.1-1.2
			c-1.3-0.6-3.4,0-3.9-1.8C105,137,108.1,137.7,108.8,136.3z"/>
		<path class="st4" d="M29.3,126.2c4.8,4.4,11.1,3.1,16.7,4.6c8.3,2.2,16.9,2.7,25.2,5.1c4.7,1.4,9.8,1.5,14.8,2.2
			c2.9,0.4,6.7,1,7.6,3.2c1,2.6-2.7,4.5-4.1,6.9c-5,8.5-11.9,7-19.4,4.6c-9.3-3-19.4-2.9-28.7-6.2c-1.4-0.5-1.9,0.5-2.1,1.7
			c-6.4-2.8-13-4.5-20-4.7c-2.1-1.2-1.8-2.4-0.1-3.6c2.9-1.8,5-4.6,8.2-6.2C30.2,132.3,30,129.1,29.3,126.2z"/>
		<path class="st5" d="M183,90.5c-1.6,3.5-0.6,7.2-0.7,10.7c-0.1,2.8-0.8,4.6-3.5,5.6c-9,3.6-17.9,7.4-26.9,11.1c-0.6,0-1.3,0-1.9,0
			c-0.4-1.1,0.2-1.8,0.8-2.5c5.8-3.2,11.6-6.5,18.5-6.6c3.1,0.4,4.8-2.3,7.1-3.5c2.1-1.1,0.3-2.3-1.3-2.9c-5.8-2-11.9-1.9-17.9-2.7
			c-12.3-1.8-24.7-3.3-37.1-5.1c-2-0.3-3.9-0.4-5.9-0.5c4-4.4,8.2-8.6,12-13.1c2.2-2.5,4.8-1.6,7.2-1.3c11.3,1.5,22.6,3.2,33.8,4.8
			c4.2,0.6,8.4,1.3,12.6,1.9C182.3,86.9,183.6,88,183,90.5z"/>
		<path class="st6" d="M119.7,243.6c6.4-0.2,5.9-0.1,4.5-6.4c-2.8-12.8-7.2-25.2-10.2-38c-2.2-9.8-6-19.4-8-29.3
			c-1.5-7.6-5.4-14.5-6.1-22.3c-0.3-3.5-1.1-7.1,2.5-9.5c-1.1,11.8,2.7,22.7,6.2,33.7c2.6,8.2,4.4,16.7,6.7,25
			c2.4,8.7,4,17.7,7.6,26.1c1.5,3.4,3.6,4,6.5,2c7.9-5.4,17.3-7.8,25.4-12.9c1.9-1.2,3.8-0.6,5.6,0.4c2,1.1,1.9,3,1.5,4.8
			c-0.3,1.1-0.7,2.2,0.4,2.9c4.3,2.3,2.5,5.2,0.8,8c-11.4,5.5-22.8,11-34.2,16.5C125.5,246.2,122.6,244.3,119.7,243.6z"/>
		<path class="st7" d="M19,140c-0.8,1.2-1,2.4,0.1,3.6c-1.2,0.1-2.8,0.3-3-1.1C15.9,140.8,17.5,140.2,19,140z"/>
		<path class="st8" d="M169.3,108.8c-6.1,2.3-12.4,4.3-18.3,7.4c-4.7,2.5-10.2,3.2-14.7,6.4c-0.3,0-0.6,0-0.9,0
			c-3,0.7-5.3,2.8-8.3,3.7c0,0,0,0,0,0c-7.6,0-7.1-0.2-9.4-7.6c-1.9-5.9-3-12-5.3-17.8c-1.7-4.3-0.8-5.1,3.6-4.8
			c13,0.8,25.5,4.9,38.7,4.9c4,0,8.3,1.3,12.4,2.4C172.2,104.5,172.3,104.9,169.3,108.8z"/>
		<path class="st2" d="M136.3,122.6c4.1-3.9,9.4-5.2,14.7-6.4c-0.3,0.6-0.7,1.2-1,1.8C145.5,119.5,140.9,121,136.3,122.6z"/>
		<path class="st2" d="M127.2,126.2c2.5-1.7,4.8-4.1,8.3-3.7C132.9,124.3,130.6,126.6,127.2,126.2z"/>
		<path class="st9" d="M158.7,222.4c1.5,0.1,2.9-0.1,3.2,1.6c0.2,1.2,0.2,2.5-1.2,3.1c-9.7,4.4-19.4,8.8-29.2,13.2
			c-1.1,0.5-1.8,0-2.2-0.9c-0.6-1.1-0.1-2.2,0.8-2.8c2.4-1.6,4.8-3.2,7.4-4.5c6.4-3,13.3-5.3,19.3-9.2
			C157.4,222.5,158.3,222.5,158.7,222.4z"/>
		<path class="st10" d="M156.4,214.2c1.4,0,2.9,0,3.3,1.4c0.5,1.7-0.9,2.5-2.1,3c-7.4,3.1-14.3,7.1-22,9.6c-1.8,0.6-3.3,2.1-5,3.1
			c-1.3,0.7-2.8,0.8-3.7-0.6c-1.1-1.7,0.5-2.5,1.6-3.2c6.3-4,13.1-6.9,19.9-9.6C151.2,216.6,153.2,213.8,156.4,214.2z"/>
	</g>
</g>
</svg>
