<?xml version="1.0" encoding="utf-8"?>
<!-- Generator: Adobe Illustrator 20.0.0, SVG Export Plug-In . SVG Version: 6.00 Build 0)  -->
<svg version="1.1" id="Layer_1" xmlns="http://www.w3.org/2000/svg" xmlns:xlink="http://www.w3.org/1999/xlink" x="0px" y="0px"
	 viewBox="0 0 250 250" style="enable-background:new 0 0 250 250;" xml:space="preserve">
<style type="text/css">
	.st0{fill:#90A39E;}
	.st1{fill:#8F9F98;}
	.st2{fill:#9DAEA8;}
	.st3{fill:#A8B9B4;}
	.st4{fill:#A9BCB6;}
	.st5{fill:#9AB5AB;}
	.st6{fill:#A7B9B4;}
	.st7{fill:#8EA7A0;}
	.st8{fill:#879B95;}
	.st9{fill:#99B4AB;}
	.st10{fill:#ADBDB7;}
	.st11{fill:#B7C9C3;}
	.st12{fill:#AABDB6;}
	.st13{fill:#9BADA8;}
	.st14{fill:#A3B7B1;}
	.st15{fill:#77847E;}
	.st16{fill:#7A8882;}
	.st17{fill:#87958F;}
	.st18{fill:#B6CAC3;}
	.st19{fill:#98AAA4;}
	.st20{fill:#A9BAB5;}
	.st21{fill:#75817B;}
	.st22{fill:#76827C;}
	.st23{fill:#7B8982;}
	.st24{fill:#95A6A0;}
	.st25{fill:#97A7A0;}
	.st26{fill:#ADBFB9;}
	.st27{fill:#8C9C97;}
	.st28{fill:#899A94;}
	.st29{fill:#899994;}
	.st30{fill:#8A9B95;}
	.st31{fill:#8DA39B;}
	.st32{fill:#8B9A95;}
	.st33{fill:#849790;}
	.st34{fill:#B4C8C1;}
	.st35{fill:#A1B8B1;}
	.st36{fill:#B3C6BF;}
	.st37{fill:#8E9F99;}
	.st38{fill:#889790;}
	.st39{fill:#B4C7C1;}
</style>
<g>
	<g>
		<path class="st0" d="M204.6,115.1c-1,1.3-2.1,2.7-3.1,4c-1.9,2.4-4.1,3.8-7.2,4.7c-8.2,2.3-11.3,12.5-6.2,19.5
			c1.1,1.4,2,2.9,1.3,4.8c-0.9,0.7-2.2,0.6-2.5,2.2c-1.2,6.3-4.7,11.7-7.2,17.5c-0.5,1.2-0.9,3-3.1,2.1c-1.1-2.5,0.5-4.5,1.4-6.5
			c1-2.3,1.9-4.7,3.1-7c2.4-4.5,2.6-8.5-1-13c-4.9-6.2-3.4-15.1,2.5-19.2c3.6-1.2,3.3-5.6,6.1-7.5c-5.6,3.8-6.8,3.9-9.9,0.7
			c0-2.1-0.1-4.3,0.5-6.4c2-7.4,4.8-14.6,6.4-22.2c-2.1,3.1-3.8,6.3-4.8,9.9c-0.3,1.2-0.5,2.4-1,3.5c-1.3,2.7-3.2,3.3-5.5,1.3
			c-2.2-2-4.2-2.8-7.2-1.9c-2.5,0.7-3.7-1-3-3.6c1.2-4,2.3-8,4.4-11.7c1.2-2.3-1-4.3-0.3-6.7c0.3-0.9-1.1-1-1.8-1
			c-1.7-0.1-3.5,0.1-5.2-0.1c-2.4-0.3-4.6-0.9-5-3.8c0.1-0.7,0.7-0.9,1.3-0.9c0.4,0,0.8,0.1,1.2,0.3c2.1,2.1,4.8,1.5,7.4,1.5
			c7.8-0.2,15,2.8,22.5,4.3c6,1.2,11.9,3.1,18,4.3c6.2,4.9,7.5,10,4.5,17C209.3,106,207.6,110.8,204.6,115.1z"/>
		<path class="st1" d="M180.3,111.8c-0.8,1.8,0.5,3.9-0.8,5.7c-4,1.3-8.2,2.3-12.3,3.3c-2.4,0.6-4.9,0.4-5.6-3.3
			c-0.7-3.4-7.7-5.2-10.7-2.7c-3,2.5-5.9,2-9.1,1.2c-3.4-0.9-3.7-2-1.4-5.3c-2.5-0.1-4.7,0.6-6.8,1.1c-1,0.3-2,0.8-3.1,0.9
			c-1.8,0.2-3.7,0.3-4.6-1.7c-0.9-2,1.5-2.2,2.3-3.3c-2.2-1.7-4.8-1.2-7.1-1.8c-1.3-0.3-1.5,0.7-1.4,1.8c0.1,1.3,0.2,2.7,0.1,4
			c-1.6,4.4-3.8,8.5-5.7,12.8c-0.8,1.8-1.4,3.8-2.4,5.5c-0.8,1.3-1.4,3-3.5,2.9c-1.2-1.4-0.6-2.7,0-4.1c2.1-5.1,4.6-10,6.9-15
			c1.6-3.6,0.9-5.4-3-6.1c-3.8-0.7-7.6-1.9-11.5-2.1c-1.1-0.1-2.1-0.2-3.2-0.6c-5-1.9-5.2-1.8-7.2,3c-4.2,9.8-8.3,19.6-12.6,29.3
			c-3,6.6-2.8,7,4.2,8.5c4.2,0.9,8.3,2.1,12.6,2.8c4.2,0.7,5.8,0.2,7.1-4.1c1.1-3.5,3.3-6.5,4.4-10c0.3-1,1-1.9,2.4-1.6
			c1.9,3.5-1,6-1.8,8.9c-0.4,1.2-1.7,2.1-1.9,3.5c-0.2,2.4-1.1,4.4-2.8,6c-1.6,1.3-2.5,2.5-2.4,4.9c0.1,3.6-3.1,2.6-5.4,2.7
			c-7.1-1.2-13.7-4.3-20.8-5.7c-2.1-0.4-4.1-1.5-3.9-4.3c5.8-15.8,13.7-30.7,20.4-46.1c2.8-5.5,7.3-7.3,13.3-6.8
			c5.9,0.5,5.5,0,7.8-5.8c2-5,2.7-10.4,5.6-15c0.6-1,0.8-2.4,2.3-2.6c0.6,0.3,0.8,0.9,1,1.5c0.2,1.2,0.3,2.6-0.4,3.5
			c-2.9,3.9-2.5,9.1-5.2,13c-0.4,0.5-0.5,1.3-0.6,1.9c-0.1,0.9-0.5,2,0.7,2.5c1.1,0.4,1.7-0.6,2.2-1.4c1-1.5,1.5-3.9,4-3.4
			c2.4,0.5,3.3,2.6,3.9,4.8c0.3,1.2,0.5,2.4,1.1,3.5c2.2,3.9,5.2,4.2,8.1,1c0.5-0.5,0.9-1,1.7-1c1.4,1.6,1,4.5,3.6,5.2
			c0.7,1.4-1.1,2-0.8,3.8c4.7-1.4,9.6,1.1,14.1-1.6c1.4,0.7,2.6,1.5,3.8,2.4c1.4,2.7,3.4,2.7,5.7,1.1c1.3-0.9,2.5-2.2,4.3-1.3
			c1,0.9,0.5,3.4,2.5,2.9c1.6-0.4,0.5-1.2-0.4-1.6c-0.7-0.3-1.5-0.5-2-1.2c1.7-2.8,4.2-3.1,6.2-0.7c0.4,0.5,0.7,1.1,1,1.8
			c2.3,5.2,2.3,5.1,6.7,2.2C179.7,111.6,180,111.7,180.3,111.8z"/>
		<path class="st2" d="M118.6,72.8c-3.6,6.1-5.2,13-7.5,19.6c-1,2.9-2,5.8-6.4,4.8c-6.1-1.4-11.3,0.7-15.3,5.6
			c3.2-7,6.6-14,9.7-21.1c2.1-4.8,3.8-9.7,5.7-14.6c1-1.2,1.6-2.8,3.1-3.5c1.3-0.7,2.8-1,3.6,0.9c-0.4,1.3-1.9,1.5-2.7,2.9
			c2.4,0.8,4.7,0,6.9,0.4C118.9,68.4,119.5,69.5,118.6,72.8z"/>
		<path class="st3" d="M56,177.4c1.4-5.2,4.2-9.7,6.6-14.5c0.8,0.5,1.2,1.4,2.1,1.8c2.3,1.4,4.9,2.2,7.6,2.7c4.4,0.8,8.7,2,12.7,3.9
			c1.9,0.9,3.9,1.1,5.9,1c2.9-0.5,5.9-0.6,8.8,0.2c1.1,0.3,2.1,0.7,2.2,2c0.1,1.4-0.8,2-2,2.2c-2.4,0.2-4.2,0.8-4.1,3.8
			c0,1.3-1.7,1.5-2.4,2.5c0.1,0.3,0.3,0.5,0.6,0.6c1.8,0.6,4.6,0.3,4.4,3.1c-0.2,2.4-2.6,2.3-4.5,2.5c-1.4,0.1-2.7,0.4-3.6,1.5
			c-1.5,0.7-2.7,0.2-3.7-1c-0.7-1.3,0.7-3.9-2.3-3.8c-7.5-3.2-15.7-3.9-23.2-6.9c-1.7-0.7-3.5-0.1-5.2-0.4
			C55.7,178.1,55.7,177.7,56,177.4z"/>
		<path class="st4" d="M86.9,188.9c0.8,1.1,2,1.5,3.3,1.6c1.5-0.9,2.5,0,2.6,1.3c0.2,2.4-2.6,1.9-3.9,3.2c1.3,1.4,3,0.8,4.4,1.3
			c1.4,0.6,2.4,1.4,2.1,3c-0.2,1.5-1.5,2-2.7,1.8c-4.4-0.7-8.6-0.7-13.1,0c-3,0.5-5.7-2.2-8.9-2.2c-5.3-1.1-10.2-3.2-15.2-5.1
			c-1.5-0.5-3.6-3.3-3.7,1c0.3,0.5,0.5,0.9,0.8,1.4c0.7,2.4,4.3,2.7,4.2,5.7c-3.6-0.6-5.9-2.7-7.5-5.9c-0.4-0.9-0.8-1.9-0.4-2.7
			c2.3-5.3,3.8-11,7.1-15.9c0,0.3,0,0.6,0.1,0.9c1,1.2,2.2,1.9,3.7,2.2c5.2,1,10,3.7,15.3,4.6C78.7,187.6,83.1,187.2,86.9,188.9z"/>
		<path class="st5" d="M56.9,201.9c-1.1-2.3-4.7-2.6-4.9-5.7c0.9-0.5,1.9-0.3,2.7,0.1c5.5,2.5,11.2,4.4,17,6.3
			c5.7,1.9,11,5,17.1,5.6c0.9,0.1,1.8,0.4,2.7,0.8c10.5,4.9,21.5,8.3,32.5,12c4.6,1.5,8.3,4.9,13.2,5.9c1.2,0.2,2.3,0.6,3.5,0.8
			c3.3,1.4,6.8,1.8,10.3,1.3c2.7-0.7,3.9-2.8,4.6-5.2c1-3.5,3-6.6,4.1-10.1c0.5-1.5,1-3.8,3.5-3.7c-1.3,5.8-3.5,11.3-5.7,16.8
			c-1.1,2.8-3.3,4.5-6.6,4.4c-4.2-0.1-8.4,0-12.6,0c-1.2,0-2.4-0.2-3.5-0.8c-14.1-7.7-29.7-11.2-44.7-16.2
			c-9.8-3.3-19.9-5.9-29.4-10C59.4,203.5,58.2,202.6,56.9,201.9z"/>
		<path class="st6" d="M63.4,165.3c-1-0.6-0.8-1.6-0.8-2.4c2.5-4.5,2.9-9.9,6.4-13.9c1.3,2.3,3.2,3,5.8,3.6c6.6,1.5,13,3.6,19.5,5.4
			c2.8,0.9,5.8,0.1,8.5,1.9c2.9,2,3,3.5-0.1,5.3c-1.2,0.7-2.4,1-2.8,2.6c-0.8,3.5-3.5,3.7-6.3,3c-1.7-0.4-3.3-1.2-5-1.2
			c-6.8-0.7-12.9-4-19.6-4.7C66.9,164.6,65.1,164.1,63.4,165.3z"/>
		<path class="st7" d="M163.3,210c-3.5,3.8-4.4,8.9-6.4,13.4c-1.2,2.9-2.6,5.1-5.1,6.8c0.1-4.2-2.6-5.5-6.2-6
			c-4.9-0.7-9.4-3.2-14.3-4c-1.4-0.2-3.2-0.8-3.2-3c4.3-2,8.1,0.2,12,1.4c2,0.6,4,1.6,6.2,1.8c4.6,0.5,6.1-0.1,7.9-4.2
			c1.5-3.4,3.4-6.8,4.5-10.4c0.2-0.6,0.4-1.2,0.7-1.7c3.3-4.8,5.2-10.3,7.4-15.7c1.8-4.2,4.1-8.2,5.9-12.4c0.4-1,1.1-1.9,2.3-1.9
			c1.7,1.4,0.5,2.9,0,4.4c-0.6,1.9-1.5,3.6-2.3,5.7c1.8-1.5,2.2-4.2,4.8-4.2c-2.7,7.6-7.1,14.4-10.2,21.8
			C166.3,204.6,164.7,207.3,163.3,210z"/>
		<path class="st8" d="M177.7,180c-1.7,1.3-2.8,3.2-3.9,5c-0.4,0.7-0.6,1.6-1.6,1.3c-1.3-0.5-0.8-1.5-0.4-2.3
			c1.4-3.1,3.1-6.1,3.6-9.6c-1-2-0.9-3.5,1.6-4.1c2.8-3,3.8-7,5.4-10.6c1.5-3.4,3.7-6.7,3.7-10.9c0-2.9,1.9-0.8,3.1-0.4
			c2.4,1.3,0.8,3.3,0.9,5c-0.4,3.5-1.5,6.6-3.4,9.7C183.3,168.4,180.7,174.3,177.7,180z"/>
		<path class="st9" d="M204.6,115.1c0.6-4.3,2.9-8.1,4.8-11.9c3-6,3.4-11.3-1.3-16.5c-0.4-0.5-0.8-1.1-1.2-1.6
			c1.1-0.7,2.2-0.5,3.3-0.1c0.5,0.5,1.3,0.9,1.4,1.4c0.9,6.1,5.3,9.4,9.9,12.5c2.6,1.7,3.1,3-0.3,4.6
			C215.1,106.2,209.6,110.3,204.6,115.1z"/>
		<path class="st9" d="M190.1,153.3c-0.5-1.6,0.6-3.6-0.9-5c-0.5-2.1-1.1-3.9-3-5.4c-2.4-1.9-2.1-11.6,0-13.8c3.1-3.3,5.8-7,11.2-7
			c1.4,0,2.8-1.9,4.2-2.9c-0.4,1.9-1.9,2.9-3.1,4.1c-4.5,4.6-6.6,10.3-6.9,16.7C191.3,144.4,191.5,148.9,190.1,153.3z"/>
		<path class="st10" d="M210.4,84.9c-1.1,0-2.2,0-3.3,0.1c-6.2-0.2-11.9-2.4-17.9-3.7c-7.8-1.6-15.3-4.6-23.5-4.5
			c-0.3-0.4-0.2-0.8,0.2-1.2c2.3-1.3,4.8-0.2,7.1-0.5C185.6,78,198.2,80.8,210.4,84.9z"/>
		<path class="st11" d="M173,75.2c-2.3,1.4-4.9,0.6-7.4,0.9c-2.7,0.7-5.1,0-7.3-1.7l0,0c-4.3-0.7-8.7-1-12.9-2.5
			c-3.8-1-7.7-1.6-11-3.9c-0.6-0.5-1.5-0.7-1.2-1.8c8.8,0.9,17.2,3.9,25.9,5.4C163.8,72.4,168.5,73.4,173,75.2z"/>
		<path class="st12" d="M133.2,66.3c3.7,2.5,8.1,3.3,12.2,4.9c-1.9,1.7-4,1-6.1,0.6c-2.4-0.5-4.5-1.7-7-1.8c-2.7-0.2-5.5,0.3-8-1
			c-3.6-2.6-7.7-3.2-12-3.5c-0.4-0.2-0.8-0.4-1-0.8c-3.4-2.5-4.3,1.7-6.5,2.4c1.9-5.5,2.3-5.8,7.6-4.6
			C119.3,64.1,126.4,64.3,133.2,66.3z"/>
		<path class="st13" d="M88.6,168.6c1.8-0.2,3.4,0.6,5,1.2c3.2,1.2,4.8,0.2,5-3.2c0.1-1.7,1.1-2,2.4-2c1.4,0,3-0.4,3.2-1.8
			c0.2-1.7-1.7-1.8-2.8-2.3c-2.3-1-4.7-1.6-7.1-2.4c2.1-0.2,5.5,1.1,3.5-3.6c-0.7-1.5,1.6-2.8,3-3.7c0.9,1,0.1,2,0,3
			c-0.2,1.3,0.2,2.6,1.3,3.1c2.9,1.2,5.8,2.3,8.9,3c-1.4-1.3-3.3-1.4-5-2c-1.5-0.6-3-1.3-3.3-3.2c-0.2-1.8,1-2.6,2.4-3.3
			c2.4-1.2,2.2-5.8,6.8-4.2c-1.3-1.7-2.6-1.9-3.5-2.8c-0.9-1-1.2-2.2-0.1-3.3c2.8-2.9,5.1-6.2,8.1-8.9c2.4-2.1,5.5-0.8,9.2-1.6
			c-2.9-0.1-4.8,0.1-6.7-0.1c-1.8-0.2-3-1.1-3.6-2.8c-0.6-1.7,0.3-2.7,1.2-4c2.9-4,7.1-4.4,12.2-4.2c-2-1.5-3.5-0.9-4.9-1.2
			c-2.9-0.6-3.8-2.3-2.5-5c0.6-1.3,1.5-2.5,2.2-3.9c0.3-0.6,0.6-1.3-0.1-1.8c-0.7-0.4-1.2,0.1-1.8,0.5c-1.2,0.9-0.5,3.4-2.7,3.5
			c0.7-2.3-1.8-5.3,0.4-6.7c2.2-1.4,5.1,0.4,7.8,0.7c0.5,0,1,0.3,1.6,0.4c1,0.1,2,0.4,2.1,1.5c0.1,1.4-1.1,1.6-2.2,1.8
			c-0.7,0.1-1.9-0.2-1.9,1c0,1.2,1.1,1.3,2.1,1.4c3.1,0.3,5.6-2,8.6-1.9c0.9,0,1.8-0.4,2.8-0.4c1,0,2.4-0.5,2.9,0.8
			c0.6,1.6-1.2,1.4-2,1.9c-0.9,0.6-2.2,1-0.6,2.2c2.1,1.6,7.7,1.1,9.8-0.7c2.2-2,5.2-1.6,7.2-0.6c2.3,1.2,6.9,0.3,6,5.8
			c-0.3,1.6,4.6,1.6,6.2,0.5c3.3-2.2,6.7-1.8,10.1-1.9c2.4,2.5,4.7,1.7,7-0.2c1-0.8,1.7-2.2,3.2-2.2c0.5,0,1,0.2,1.4,0.5
			c0.1,0.1,0,1-0.2,1c-3.3,1.4-3.6,5.1-5.7,7.4c-0.4,0.4-1.2,0.5-1.8,0.7c-0.6-0.9,0.8-2-0.1-2.6c-0.9-0.7-1.6,0.5-2.4,0.8
			c-3.8,1.4-4.2,5.9-7.4,7.8c4,2,4.7,5.1,2,9.6c-1.7-0.5-3-1.8-4.9-1.7c-1.6,0.1-2.7,0.6-2,2.5c0.6,2.2,2.4,1.9,3.9,2
			c2.5,0.2,5.5-0.3,5.9,3.4c0.3,2.7-3.5,7.2-6.2,7.6c-1.3,0.2-2.7,0.1-4.4,0.2c2.5,1,5.6,1,5.3,4.4c-0.3,3.9-3.4,6.4-8.7,7.3
			c0.1,1.1,1.2,0.9,1.7,1.3c0.9,0.7,1.6,1.5,1.2,2.7c-0.4,1.1-1.4,1.7-2.6,1.6c-2-0.1-4-0.6-6.3-0.6c1.5,0.9,3.1,0.3,4.5,0.9
			c2.5,1,3.1,3.1,1.1,5c-0.5,0.5-1.7,0.8-1.6,1.1c1.6,5.6-3.2,4.1-5.8,5.1c0.5,1.1,1.4,0.8,2.1,1c2.3,0.8,3.1,2.3,1.5,4.3
			c-1.1,1.4-1.1,3-1.4,4.5c-1.7,1.9-2.9,3.8-2.6,6.6c0.2,1.7-0.8,3.8-2,5.1c-2.7,3-3.6,6.8-4.9,10.4c-0.7,1.8-1.7,3-3.6,3.2
			c-0.5,0-1.2,0.2-1.6-0.1c-5.9-3.8-13-2.8-19.3-5.2c-1.8-0.7-4.6-0.5-4.2-3.3c0.3-2.3,2.7-2.2,4.6-2.4c0.8-0.1,1.6,0.1,2.6-0.5
			c-0.9-0.6-1.8-0.5-2.6-0.6c-4.3-0.7-5-2.1-2.9-5.9c1.3-2.2,1.5-5.4,5.2-5.2c0.6-0.1,1.3,0.1,2-0.1c-0.7-0.6-1.8-0.4-2.5-1
			c-1.3-1.2-1.5-2.6-0.4-3.9c1-1.2,2.3-1.4,3.7-0.9c1.3,0.4,2.8,0.1,3.8,1.1c2.4,2.2,5.1,1.6,8.6,1.3c-3.7-2.1-7.1-1.8-10.4-2.3
			c-1.9-0.3-3.7-0.7-3.7-2.8c0-2.1,1.8-2.6,3.4-2.6c2.4-0.1,4.5-0.5,5.9-2.8c0.7-1.1,2.1-1,3.3-1c0.7,0,1.7,0.1,1.7-0.6
			c-0.2-4.8,3.7-3.6,6.2-4.4c0.4-0.1,0.8-0.1,1.1-0.4c-2.7-0.3-5.1,0.1-7.5,1.9c-3.9,2.8-8.4,1.3-9.6-2.7c0.8-2,3.8-2.4,3.1-5.6
			c-0.3-1.6,3-1,4.8-1.8c-0.4-1-1.5-0.9-2.1-1.3c-0.8-0.5-1.9-1.5-1.3-2.2c1.7-2.4,2.1-5.6,4.2-7.5c1.2-1.1,1.8-1.5,1.3-3.4
			c-0.8-3.1,0.9-5.7,2.8-8c0.7-0.8,1.7-1.4,1.4-2.7c-0.7-3.4,1.6-6.1,3.2-8.3c1.5-2.1,2-5.1,4.6-6.4c0.8-0.4,0.4-1.2,0.2-1.8
			c-0.7-1.7-0.3-3.2,0.8-4.5c1.2-1.4,1.6-3,0-4.3c-1.9-1.6-2.3,0.5-3.4,1.5c-1.6,1.4-2.2,2.8-2,5.2c0.2,2.7-2.3,5-3.6,7.5
			c-0.7,1.2-1.3,2.3-1.6,3.6c-0.9,3.8-1.6,7.6-4.7,10.5c-1.4,1.3-2.4,3.2-2.3,5.5c0.1,1.3-0.4,2.4-1,3.4c-2.6,4.1-4.3,8.6-5.7,13.3
			c-1.1,3.9-3.1,8-7.9,8.9c3.1,2.3,2.8,6.3-1.4,10.2c-1.5,1.4-2.1,2.5-2.4,4.6c-0.8,5.2-3.5,9.6-7.1,13.5c-2.4-0.5-4.1,0.4-5.3,2.5
			c-5.8-2.2-12.1-2.3-18-3.8c-2.4-0.6-4.7-0.4-7.1,0.3c-4.1,1.2-10.3-1.1-12.2-4.4c1.5-0.1,2.9,0.3,4.3,0.9c2.9,1.3,5.7,2.2,9.2,0.5
			c1.9-0.9,4.8,0.5,7.3,0.8c1.2,0.2,3.1,1,3.3-0.9c0.3-2-1.6-2-3.1-2.1c-0.3,0-0.5,0-0.8,0c-1.6,0-3.8,0.1-4-1.7c-0.2-2,2-2,3.5-2.3
			c0.8-0.1,1.9,0.1,1.9-1c0-1.1-1.1-1.4-2.1-1.5c-0.1-1.7,0.6-2.5,2.3-2.4c1.3,0.1,2.7,0,4-0.1c0.7-0.1,1.3-0.5,1.4-1.3
			c0.1-1-0.6-1.5-1.4-1.7c-1.2-0.2-2.4-0.1-3.6-0.2c-1-0.1-1.8-0.8-1.8-1.9c0-1.1,0.9-1.2,1.7-1.3c1.3-0.1,3.2,0,2.2-2.2
			c-1.6-3.7,0.9-3.4,3.1-3.5c1.1-0.1,2.9,0.6,3-1.1c0.2-1.9-1.8-1-2.7-1.4c-2.5-1.1-5-0.2-7.5,0C91.3,171.3,88.6,170.6,88.6,168.6z"
			/>
		<path class="st14" d="M175.4,140.2c0.7-2-1-4.1,0.9-6.3c0.7-0.7-2-1.9-3.7-1.9c-0.6,0-1.5,0.1-1.7-0.7c-0.2-1,0.6-1.5,1.4-1.6
			c2.4-0.2,2.6-1.8,3.6-3.7c1.2-2.5,4.2-4.3,7.2-5.3c0.7-0.2,1.8-0.1,2.1,0.7c0.7,1.6-1.5,2-1.7,3.3c-5.6,4.5-6.9,12.9-2.2,18.4
			c4,4.7,3.2,9.1,0.9,14.1c-2,4.2-4.5,8.2-5.2,12.9c-1.3,1.1-1.6,2.5-1.6,4.1c-3.1,4.4-5,9.3-7.2,14.1c-2.2,4.8-4.4,9.7-6.5,14.5
			c-0.4,0.8-0.8,1.3-1.7,1.4c-1.3-1.4-0.5-2.8,0.2-4.1c6-12.4,10.8-25.3,17-37.6c1.7-3.4,2.3-7.2,4.1-10.6c0.6-1.2,0.7-2.6-0.5-4.1
			c-3.4,2.7-4,6.8-5.7,10.3c-3.2,6.4-6.1,12.8-9.1,19.3c-2.1,4.5-2.9,9.5-5.6,13.8c-0.5,0.7-0.6,1.9-1.9,1.7
			c0.1-1.8-1.1-3.6,1.3-5.3c2.2-1.6,0.2-2.5-1.6-2.9c-1.3-0.2-3.5,0.9-3.5-1.4c0.1-2.3,2.3-1.6,3.9-1.8c1.2-0.1,2.7,0.6,3.4-0.6
			c0.9-1.5-1.7-1.9-1.5-3.6c0.1-0.1,0.4-0.5,0.7-0.5c1.5-0.3,3.7,0.1,3.5-2.3c-0.2-2.3-2.3-1.7-3.8-1.9c-1.6-0.2-4.5,0.8-4.3-1.5
			c0.2-2.7,3-0.9,4.7-1c0.7,0,1.4,0,2,0.1c1.4,0.4,3.2,1.4,3.7-0.7c0.4-1.9-1.6-1.6-2.8-2c-0.8-0.3-2.1-0.4-2-1.6
			c0.1-1.4,1.4-1.5,2.5-1.4c3.4,0.3,5.4-0.5,7.1-4.1c1.8-3.7,0.1-4.2-2.5-4.8c-0.8-0.2-1.6-0.1-2.4-0.2c-0.7-0.1-1.4-0.5-1.4-1.2
			c-0.1-1.2,1-1.1,1.7-1.1c1.1,0,2.2-0.2,3.2,0c4.8,1.1,5.7-3.1,7.3-5.8c1-1.6-0.4-3.1-2.4-3.1c-1.8,0-3.5,0-5.3-0.1
			c-2.2-0.1-2.9-1.2-1.8-3.2C170.4,139.4,172.9,139.6,175.4,140.2z"/>
		<path class="st15" d="M165.7,108.5c-2.1-0.4-3.1,1.3-4.4,2.3c-2.9,2.2-5.7,1.1-6.1-2.3c-0.6-0.7-0.5-1.5-0.1-2.2
			c3.6-6,4.4-13.1,7.7-19.3c0.5-1.1,1-2.2,1.9-3.1c1.1-1.2,2.4-1.8,4-1c1.5,0.8,2.1,2,1.2,3.7c-1.5,3.8-2.9,7.7-4.4,11.5
			c-0.4,0.9-0.7,1.8,0.1,2.6c0.6,0.7,1.6,0.7,2.2,0.2c3.1-2.6,5-0.5,7.1,1.6c2.5,2.6,4.1,2.2,4.7-1.5c0.7-4.3,3.1-7.8,4.5-11.8
			c0.4-1.2,1-2.9,2.7-2.3c1.6,0.6,1.1,2.4,0.8,3.5c-1.8,5.3-3.9,10.5-5.3,16c-0.5,1.8-1.2,3.5-1.8,5.3c-5,5.8-5.7,5.7-8.3-1.9
			C170.8,106.4,168.7,106,165.7,108.5L165.7,108.5z"/>
		<path class="st16" d="M194.3,113.2c-2.5,0.2-4,0.2-5.5,0.5c-1.2,0.2-2.5,1.1-3.3-0.1c-0.8-1.2-0.4-2.6,0.3-3.8
			c0.7-1.3,1.8-2,3.3-1.6c1.8,0.4,3.7,0.7,5.5,1c1.3,0.2,2.5-0.2,3.2-1.3c0.7-1.2-0.3-2-1.1-2.7c-0.8-0.7-1.5-1.6-2.4-2.1
			c-3.4-2.1-4-5-3-8.7c0.7-2.7,1.6-4.8,4.7-5.3c4-0.6,7,0.9,9.5,3.8c0.8,0.9,0.5,1.7-0.1,2.6c-0.8,1.2-2,1.9-3.4,1.6
			c-0.9-0.2-1.8-0.5-2.7-0.8c-1.2-0.4-1.8,0.3-2.3,1.1c-0.6,0.8-0.1,1.5,0.5,2.1c0.5,0.5,0.9,1,1.4,1.4c4.4,4.4,4.3,7.8-0.2,11.9
			C197.1,114.1,195.1,113,194.3,113.2z"/>
		<path class="st17" d="M169.7,86.6c0-1.6-0.2-3-2.2-3.2c-1.6-0.2-2.4,0.8-3,2.1c-0.3,0.7-0.9,1.3-1.3,1.9c-1.2-1.1-2.5-1.7-4.2-1.9
			c-1.5-0.2-3.6,0.1-4.1-2.2c1.3-1.6,3.8-0.3,5.3-2.3c-2.6-1.3-5.3,0.4-7.7-0.8c-3.4-1.6-4.3,1.6-6.1,3.2c-0.5,0.4-1,0.9-1.8,0.8
			c-2.2-2.5,1.8-4.2,0.7-6.8c-1.9,1.2-1.8,4.6-4.8,4.3c-0.4-0.4-0.5-0.9-0.4-1.5c0.1-0.9,0.5-1.9-0.8-2.3c-1.1-0.3-1.8,0.3-2.3,1.1
			c-0.5,0.8-0.8,1.7-1.9,1.9c-0.4-0.2-0.6-0.5-0.8-0.8c-0.3-0.8-0.2-1.6-0.1-2.5c0.1-0.4,0.2-0.9,0.4-1.3c1.9-5.4,1.9-5.2,7.4-4.7
			c5,0.5,10,1.2,14.8,2.6c0.9,2.5,2.8,3.4,5.4,3.2c2-0.1,4,0,6,0c0.8,0,2.3,0.4,2,0.6C168,81.1,171.6,84,169.7,86.6z"/>
		<path class="st18" d="M168.2,94.3c1.6-2.8,2.4-7.1,4.6-10.4c1.8-2.6,5.5-0.6,8,0.7c2.2,1.1,2,2.9,0.9,5.2c-1.4,2.8-3.2,5.6-3.3,9
			c-0.1,2.2-1.3,3.4-3.3,1.2c-1.3-1.4-2.8-2.2-4.6-2.1C168.6,98.1,167.9,97.1,168.2,94.3z"/>
		<path class="st19" d="M156.7,74.5c-4.9-0.6-9.9-0.8-14.6-1.9c-3.7-0.9-5.6-0.3-6.4,3.4c-0.1,0.6-0.6,1.1-0.9,1.7
			c-0.8-0.6-1-1.6-1.6-2.3c-1.1-1.1-2.5-1.7-4-1.2c-1.7,0.6-1.3,2.2-1,3.5c0.4,1.9,0.1,4,0.8,6.2c2.7-1.6,2.3-5.9,5.8-6.2
			c0,0.8,0,1.6,0,2.4c-0.7,2-1,4.1-1.9,6c-0.8,1.5-1.7,2.9-3.6,2.7c-2-0.2-3-1.6-3.4-3.4c-0.3-1.2-0.3-2.4-0.7-3.5
			c-0.2-0.6-0.3-1.2-0.3-1.9c-0.1-0.9,0-1.9-0.1-2.8c-0.2-5.1-0.2-5.1,4.9-6.4c1.3-0.3,2.2-0.9,2.7-2.1c4.4,0.4,8.4,3.3,13,2.4
			c4.3,1.2,9,0.8,13,3.3C157.8,74.4,157.3,74.4,156.7,74.5z"/>
		<path class="st20" d="M184.3,103.9c0.1-2.4,0.6-4.4,2.4-5.2c1.7-0.7,2.3,1.4,3.4,2.3c1.5,1.1,2.8,2.5,4.3,3.7
			c0.8,0.6,1.5,1.3,1,2.4c-0.5,0.9-1.4,0.7-2.2,0.6c-2.2-0.4-4.4-1-6.7-1.3C184.8,106,184.2,105.1,184.3,103.9z"/>
		<path class="st19" d="M158.4,74.4c2.4,0.6,4.9,1.1,7.3,1.7c0,0.3,0,0.5,0,0.8C163,76.7,159.9,77.8,158.4,74.4z"/>
		<path class="st21" d="M108,132.9c-2.6,3.4-4.3,7.4-5.5,11.4c-0.7,2.6-2.6,4-3.9,6c-0.2,0.4-1.3,0.5-1.9,0.4
			c-6.8-1.6-13.6-3.1-20.3-4.9c-2.3-0.6-3.2-2.4-2.1-4.8c3.8-8.7,7.6-17.3,11.4-26c1.5-3.4,2.9-6.9,4.5-10.3
			c1.2-2.5,2.4-4.1,5.7-1.6c3.7,2.7,8.8,1.6,13.2,3c1.3,0.4,2.6,0.4,3.9,0.8c3.9,1,4.9,3.3,3.2,6.9c-2.8,5.6-5.4,11.2-8.1,16.8
			C107.9,131.1,108.1,132.1,108,132.9L108,132.9z"/>
		<path class="st22" d="M125.9,80.1c0,0.5,0,1.1,0,1.6c0.8,1.4,0.1,2.9,0.5,4.3c0.4,1.5,1,3.2,2.9,3.4c1.7,0.1,2.5-1.3,3.1-2.7
			c0.8-2,1-4.1,2.5-5.7c0.6-1.1,1-2.2,1.7-3.1c1.2-1.6,3.1-1.3,4.4-0.5c2.6,1.5-0.9,2.9-0.4,4.5c1.3,2.4-0.5,4.3-1.1,6.4
			c-1.1,3.7-2.7,7.2-4.6,10.6c-0.3,0.3-0.6,0.6-0.8,0.9c-1.1,1.8-1.9,4.7-4.5,3.8c-2.5-0.8-5.2-2.3-6.1-5.3c-0.6-2-0.5-4.3-2.2-6
			c-1.5-1.5-2.7-1.7-3.7,0.5c-0.3,0.7-0.5,1.6-0.9,2.3c-0.8,1.4-2,2.4-3.6,1.8c-1.7-0.6-2-2-1.2-3.7c2.4-4.7,2.7-10.3,5.7-14.8
			c0.8-1.2,0.9-2.5,0.9-3.8c0.6-0.7,0.6-1.8,1.2-2.5c1.3-1.7,2.6-1.6,3.8,0.2C125.2,74.6,125,77.5,125.9,80.1z"/>
		<path class="st23" d="M144.6,84.2c0.6-0.7,1.2-1.4,1.7-2.2c1.9-2.7,4-4.7,7.5-2.5c1.8,1.1,3.4-0.3,5-0.2c1.2,0.1,2.8-0.3,3,1.2
			c0.2,1.6-0.9,2.8-2.7,2.8c-1.3,0-2.7,0-4,0c-0.5,0.5-1.1,0.8-1.7,0.9c-1.3,0.2-2.9,0.2-3,2c-0.1,1.6,1.5,1.6,2.5,2.1
			c1.5,0.8,2.4,1.8,1.9,3.5c-0.5,1.5-1.8,2-3.2,1.8c-1.7-0.2-3.1-0.2-4.4,1.2c-2.8,3.1-2.6,4.3,1.5,5.7c2,1.1,4.3,2,3.6,5
			c-0.1,0.2-0.3,0.3-0.4,0.5c-1,2.6-2.7,3.7-5.4,2.2c-2.5-1.4-4.9,0.8-7.5,0.3c-1.3-0.3-3,0.4-3.6-1.1c-0.7-1.7,1.4-1.5,2.1-2.4
			c0.3-0.4,0.4-0.9,0.6-1.4c-0.8-2.4,0.4-4.5,1.1-6.6C140.5,92.6,141.9,88.1,144.6,84.2z"/>
		<path class="st6" d="M118.6,111.8c1.3-1,0.4-2.6,1.1-3.7c1.2-1.9,3-2.6,4.8-1.6c2.3,1.2,0.4,2.4-0.4,3.5c-0.2,0.2-0.3,0.4-0.4,0.7
			c-3.4,6-3.4,6,3.6,6.9c1.2,0.1,2.8,0.3,2.8,1.6c0,1.4-1.7,1.7-2.9,1.5c-4.1-0.4-7.6,0.2-10.3,3.7c-0.6,0.8-1.8,1.3-1.3,2.7
			c0.5,1.3,1.1,2.6,2.8,2.5c2.2,0,4.3-0.2,6.5-0.3c1.2-0.1,2.3,0.1,2.3,1.5c0,1.4-1.3,1.1-2.2,1.2c-0.8,0-1.6,0.1-2.4,0
			c-5.7-0.9-8.3,3-10.6,7.1c-0.6,1-1.2,1.6-2.3,2c-1.9,0.5-1.7,1.8-0.9,3.2c-1.8,0.7-3.6,1.5-5.6,0.8c1.8-4,4.6-7.6,4.8-12.2
			c0,0,0,0,0,0c3.4-3.7,5-8.4,6.5-12.9C115.5,116.9,118.3,115,118.6,111.8z"/>
		<path class="st24" d="M148.6,101.2c-2.3,0-4.6-0.2-4.6-3.1c0-2.5,4.1-6.1,6.4-5.6c1.5,0.3,3.1,1.1,3.7-0.9c0.6-2-1.1-2.3-2.7-2.6
			c-1.4-0.3-2.7-1.1-2.5-2.7c0.3-1.6,1.3-3,3.3-2.9c0.9,0,1.9,0,2.8,0c1.6,1.1,3.4,1.5,5.2,1.3c2.2-0.2,2.9,0.7,2.9,2.7
			c-2.7,7-4.3,14.5-8.1,21.1c-1.8,0.1-3.1-0.4-3.2-2.4c0,0,0,0,0,0c1.8-2-1.6-3.2-0.7-5.1c3.8,0.3,5.6-1.7,6.3-5.2
			c0.2-1.2,0.7-2.3,1.1-3.5c1.7-5.3,1.1-6-4.9-5.8c0,1.2,1.1,1.3,1.7,2c2.4,2.9,1.3,6.2-2.4,7c-0.5,0.1-1.1,0.1-1.6,0.1
			c-1.2,0-2.7-0.1-3.2,1.3c-0.6,1.6,1.2,1.8,2,2.6c0.6,0.5,1.4,1,0.7,2C150.1,101.7,149.3,101.7,148.6,101.2z"/>
		<path class="st25" d="M144.6,84.2c-2.2,6.5-4.3,13-6.5,19.5c-5.5,1.3-2.3-3.2-3.3-4.9c0-4.5,3.5-7.8,4.1-12.1
			c0.3-1.7,1.1-3.3,1.6-4.9c1.6-0.7,2.3-2.1,3-3.6c0.4-0.9,0.2-2.9,2-2.2c1.6,0.7,2.1,2.4,1.1,4C145.6,81.3,144.3,82.3,144.6,84.2z"
			/>
		<path class="st26" d="M103.2,145.1c1.8-0.8,3.6-1.3,5.6-0.8c0.8,0.3,1.6,0.4,2.3,0.8c1,0.5,2.3,1,2,2.2c-0.3,1.4-1.6,1.1-2.7,0.7
			c-1.1-0.5-2.3,0.2-2.3,0.9c0,2.8-1.8,3.1-3.8,4.1c-2.1,1-1.1,2.8,0.7,3.5c2,0.8,4.2,1.1,6.2,1.7c0.9,0.3,2.4,0.4,2,1.9
			c-0.3,1.3-1.7,1.4-2.7,1.1c-3.2-1-6.4-1.9-9.3-3.5c-3.4-1.8-1.5-4.5-0.5-7C102.3,149.2,103.5,147.4,103.2,145.1z"/>
		<path class="st27" d="M125.9,80.1c-1.8-1.8-1.5-4.4-2.6-6.5c-1.4-2.7-2.2-2.6-3.5-0.1c-0.2,0.4-0.8,0.7-1.2,1c0-0.6,0-1.1,0-1.7
			c0.3-2.9-0.8-4.3-3.9-4.1c-1.3,0.1-2.7,0-4,0c-1.4,0-3.3,1.2-3.8-0.8c-0.4-1.7,1.6-2.2,2.9-2.9c0.5-0.2,1-0.3,1.5-0.4
			c0.3,0,0.5,0,0.8,0c4.3,0.1,8.2,1.9,12.2,3.2c2.6,1.4,5.4,0.6,8.1,0.8c0.6,1.3,1.6,3.4-1,3.1c-5.9-0.8-6.5,2.1-5.5,6.6
			C126,79,125.9,79.6,125.9,80.1z"/>
		<path class="st6" d="M121.8,97.7c0,1.7-0.8,2.6-2.4,2.7c-1.4,0-3.1,0-2.8-1.9c0.2-1.6,1.1-3.3,2.9-3.4
			C120.9,95,121.6,96.4,121.8,97.7z"/>
		<path class="st20" d="M165.7,108.5c0.3,0,0.5,0,0.8,0c1.7,0.1,3.9-0.5,3.8,2.2c-0.1,2-1.9,2-3.4,1.8
			C164.3,112,164.7,110.3,165.7,108.5C165.7,108.5,165.7,108.5,165.7,108.5z"/>
		<path class="st28" d="M74.8,185.6c-6-0.1-11.1-3.8-16.9-4.5c-1.2-0.2-2.8-0.9-1.7-2.8c1.8-1.9,3.8-1.1,5.8-0.3
			c7.6,3,15.8,3.8,23.4,6.8c1,0.6,1.7,1.4,1.2,2.6c-0.5,1.3-1.7,1-2.7,1C80.4,188.6,77.7,186.7,74.8,185.6z"/>
		<path class="st29" d="M86,180.8c-0.4,0-0.9,0-1.2-0.1c-7.7-3.4-16.1-4.4-24-7.4c-0.8-0.3-1.5-0.9-1.1-1.8c0.5-1.1,1.3-1.9,2.8-1.7
			c3.6,0.5,6.6,3.1,10.3,3.2c4.9,0.1,9,3.2,13.8,3.7c1.5,0.2,2.8,0.6,2.5,2.4C88.9,180.8,87.4,180.7,86,180.8z"/>
		<path class="st30" d="M88.6,168.6c0.7,1.7,5.6,1.3,2.4,4.9c-2.6,0.3-5-0.4-7.4-1.6c-3.4-1.7-7-2.6-10.8-3.2
			c-3.4-0.5-6.5-1.6-9.5-3.3c0.3-2.4,1.8-2.7,3.8-2.1C74.3,165,81.5,166.8,88.6,168.6z"/>
		<path class="st13" d="M74.8,185.6c2.9,0,5.2,2.2,8,2.4c2.4,0.2,4.3-0.1,2.5-3.2c2.9,0.4,2.7,2,1.6,4
			C82.5,189.1,78.3,188.7,74.8,185.6z"/>
		<path class="st31" d="M70.7,197.8c4.4,2,8.3,5.5,13.8,2.7c1.3-0.7,3.4-0.7,4.7,0c4.2,1.9,8.7,1.5,13,2.1c2.5,0.4,4,2.9,6.7,2.5
			c2.6-1,3.7,0.8,3.6,2.7c-0.2,2.9,1.3,3.2,3.5,3.8c3.1,0.9,7.2,0.6,8.5,4.9c-2,1.4-3.9,0.3-5.7-0.2c-1.7-0.5-3.3-1.1-5.1-1
			c7.5,2.8,14.7,6.4,22.2,9.2c2,0.8,4.6,0.9,4.8,4c-4-0.4-7.9-1.7-11.2-3.8c-5.3-3.4-11.5-4.2-17.1-6.7c-5.1-2.2-10.6-3.6-15.8-5.6
			c-3.7-1.4-7-3.8-11.4-3.6c-2.9,0.2-5.2-2.4-8-3.4c-6.2-2.1-12.6-3.6-18.4-6.6c-2.1-1.1-4.4-1.9-6.6-2.8c-0.3-0.3-0.5-0.5-0.8-0.8
			c-0.3-3.6,1.6-3.5,4.1-2.4C60.4,194.5,65.6,196.2,70.7,197.8z"/>
		<path class="st32" d="M55.9,184.8c5.1,0.4,9,3.3,13.6,3.8c3.3,0.4,6.6,1.1,9.7,2.5c1.8,0.8,3.7,2.1,2.5,4.2
			c-0.9,1.6-2.7,0.5-4.3,0c-7.1-2.3-14.2-4.4-21.4-6.4c-1.3-0.4-3.1,0-2.9-1.9C53.3,185.3,54.6,184.5,55.9,184.8z"/>
		<path class="st5" d="M55.3,192.9c-1.8,0-3.8-0.3-4.1,2.4c-1.3-1.4-1.1-2.8,0.4-3.7C53.1,190.8,54.5,191.3,55.3,192.9z"/>
		<path class="st33" d="M140.5,228.6c-4.2-4.1-10-4.9-15.1-7.1c-4.1-1.8-8-4.5-12.7-4.9c-0.8-0.1-2-0.6-1.8-1.8
			c0.3-1.3,1.6-0.8,2.4-0.8c3.8-0.2,7,2.7,10.9,2.4c1.6-1.1,2.9-0.6,4,0.8c5,3.2,11,3.6,16.4,5.6c1.1,0.4,2.3,0.7,3.5,0.8
			c4.3,0.5,5.7,2.5,3.6,6.5C148,230.3,144.1,230.8,140.5,228.6z"/>
		<path class="st29" d="M92.1,165.3c-1.4-0.3-3-0.3-4.3-0.8c-6.4-2.3-13.3-2.8-19.5-5.7c-0.9-0.4-2.4-0.6-1.9-2.1
			c0.4-1.2,1.8-1.3,2.8-1.1c4.6,1,9.2,1.9,13.6,3.2c3.2,0.9,6.2,2.6,9.7,2.5c1.4,0,3,0.5,2.8,2.2C95.1,164.9,93.5,165.4,92.1,165.3z
			"/>
		<path class="st34" d="M158.4,192.9c2.1-4.6,3.2-10,5.6-13.9c3-4.7,3.1-10.5,7-14.7c2.7-3,3.4-7.2,4.9-10.9c0.8-2,2.1-3.7,3.1-5.6
			c0.4-0.8,0.7-2,1.9-1.8c1.3,0.1,1.7,1.4,1.8,2.4c0.2,1.3,0.4,2.8-0.1,4c-3,7.2-6.1,14.3-9.3,21.4c-2.5,5.4-5,10.7-7,16.3
			c-1.1,3.1-2.9,6-4.3,9c-0.8,1.7-2,3.2-1.8,5.3c0,0.5,0,1.1,0,1.6c-2.4,3.1-3.5,6.8-5.2,10.3c-1.9,4.1-4.5,5.6-7.8,4.7
			c-2.2-0.7-3-1.8-0.8-3.6c1-0.1,2.1-0.4,2.2-1.5c0.5-5.9,4.5-10.1,6.7-15.2c0.3-0.7,1-1.8,0.7-2.2
			C153.3,195,156.6,194.3,158.4,192.9z"/>
		<path class="st35" d="M146.2,217.3c-1.3,2.3-0.2,3.3,2.1,3.2c2.5-0.1,4.3-1.3,5.4-3.5c1.4-2.9,2.7-5.7,4-8.6
			c0.5-1.1,0.8-2.3,2.3-2.4c-1.5,3.6-3,7.2-4.6,10.8c-2.5,5.4-7.1,6.8-13.4,3.7c-4.3-2.1-8.8-3.1-13.6-3.1c-1.3-0.3-2.7-0.6-4-0.8
			c-2.8-2.7-6.4-3.6-10.1-4.1c-2.3-0.3-4.3-0.8-2.7-4c1.1-2.4-0.9-2.9-2.6-3.3c-0.1-0.9-1.9-1.6-0.8-2.7c1.6-1.5,3.2,0.2,4.8,0.2
			c1.3,1.5,0.8,4.8,3,4.9c2.3,0.1,2-3.1,3.1-4.6c3.2-4.7,5.6-9.8,7.2-15.2c0.5-1.7,1.4-3.3,3-4.1c1.3-0.7,1.1-1.8,1.3-3
			c0.3-2.7-0.2-6.1,3.6-7.1c1.1,3.6,6.2,4.9,8.9,1.9c2.9-3.2,6.2-1.4,9.4-1.7c0.3,0,1,0.6,1,1c0.1,0.8-0.5,1.1-1.3,1.2
			c-1.7,0.3-3.4,0.7-5.1,0.8c-2,0.1-3.4,0-1.9,2.9c1.2,2.4-1.3,2.3-2.5,1.9c-2.3-0.7-3.7-0.8-4.6,2c-0.8,2.3-3.3,1.2-5,1.4
			c-1.3,0.1-3.2-0.3-3.2,1.5c-0.1,1.9,1.6,1.6,3.1,1.9c3.5,0.7,7.3-0.2,10.5,2.1c0.6,0.4,1.8,0.4,1.7,1.4c-0.1,0.9-1.1,1.3-1.9,1.1
			c-3-0.9-6.6,2.2-9.3-1.8c-0.8-1.1-3.8-2.2-6-0.9c-1.6,0.9-0.8,2.3-0.2,3.6c0.6,0.7,1.4,1.3,0.8,2.4c-2.2,0-4.6-0.1-3.8,3.4
			c0.1,0.3-0.4,1-0.8,1.2c-1.2,0.8-2.4,1.5-1.6,3.1c0.8,1.5,2.3,1.1,3.6,1.1c0.5,0,1.1,0,1.6,0c1.4,0,3,0,3.1,1.8
			c0,2.1-1.9,1.3-3.1,1.4c-1.5,0.1-3,0-4.4,0.1c-0.8,0.1-1.6,0.5-1.6,1.5c0,1,0.7,1.5,1.5,1.5c4.8,0.3,9.2,3.2,14.1,2.6
			c1.8-0.2,3.5,0.5,4.8,1.8C143.1,217.1,144.5,217.4,146.2,217.3z"/>
		<path class="st2" d="M124.3,67.9c-4.4,0.3-7.9-2.9-12.2-3.2C116.5,64.5,120.7,64.9,124.3,67.9z"/>
		<path class="st36" d="M134,173.4c-1.6,2.6-4,5-2,8.4c0.5,0.8,0.4,1.8-0.6,1.9c-4.2,0.3-4.8,4.2-5.3,6.7c-0.8,4.6-3.5,7.8-5.6,11.5
			c-0.9,1.6-1.4,3.5-2.3,5.2c-0.5,1-0.7,2.6-2.3,2.5c-1.3-0.1-1.9-1.3-2.3-2.5c-0.5-1.5-1.7-2.8-0.8-4.5c0.4-3.9,5.9-5.4,5-10
			c-0.2-1.2,1.7-1.8,1.6-2.1c-2.6-4.6,2.8-4.9,3.9-7.5c0.4-1,1-1.9,1.5-2.8c1.3-2.3,1.6-4.2-1.9-4.4c-0.8-0.1-1.7-0.1-1.8-1.2
			c0-0.8,0.6-1.2,1.4-1.1c1.5,0.1,3.5,1.2,4.5-0.5c1.4-2.6,4.1-4.4,4.5-7.6c0.4-3.2,1-6.4,3.2-9c3-3.6,2.2-8.7,5.1-12.2
			c3-3.8,4.5-7.8,5.3-12.7c0.4-2.1,2.4-5.1,4.3-7.2c0.5-0.6,1.6-1.3,1.1-2c-4-5,3.5-5.1,3.6-8.5c0-0.9,2.5,0,3.3,1.1
			c1,1.3,2.9,2.8,0.9,4.5c-3,2.4-2.5,4.7,0,7.5c-2.4,0.2-3.3,1-4.3,2.9c-1.5,2.7-3.1,5.6-5,8.2c-0.2,0.3-0.8,0.8-0.8,0.8
			c3.3,4.4-2.8,5.5-3.2,8.7c-0.3,2.1-2.1,3.7,0.4,6c1.4,1.2-0.5,2-1.7,2c-2,0.1-2.8,0.9-2.2,2.8c0.5,1.6-0.6,2.2-1.7,2.8
			c-0.8,0.5-1.8,1-1.4,2.1c0.3,1,1.4,1.2,2.3,1.2c1.2,0.1,2.8,0.1,2.6,1.8c-0.2,1.6-1.7,1.4-2.9,1.5c-2,0.2-5.7-0.8-2.2,3.2
			c0.8,0.9,0.1,1.5-0.9,1.6C136.2,172.8,134.9,172.3,134,173.4z"/>
		<path class="st37" d="M175.4,140.2c-2.3,1.4-4.9,0.6-7.3,0.8c-2.1-1.3-1.9-2.7,0.4-3.1C171,137.5,173.9,137,175.4,140.2z"/>
		<path class="st36" d="M128.3,196.2c-0.3-0.8-0.5-1.6-0.8-2.4c0.3,0,0.5-0.1,0.8,0c1.3,0.4,3.8-1,3.7,1.4
			C131.9,196.9,129.6,195.9,128.3,196.2z"/>
		<path class="st38" d="M134.8,81c-0.7,2.2-1.3,4.3-2.1,6.4c-0.7,1.8-1.7,3.6-4.1,3.1c-2.1-0.4-2.5-2.2-2.7-4c-0.2-1.6,0-3.2,0-4.8
			c1.3,1,0.6,2.5,0.9,3.7c0.3,1.4,1.2,2.5,2.6,2.6c1.5,0.2,1.9-1.1,2.5-2.1c1.1-1.9,0.7-4.5,2.9-5.9C134.8,80.4,134.8,80.7,134.8,81
			z"/>
		<path class="st34" d="M134.8,77.7c-1.8,1.8-3,4.1-3.9,6.4c-0.3,0.8-0.5,1.6-1.5,1.5c-1.1-0.1-1.7-0.9-1.7-1.9
			c-0.1-2.7-0.2-5.3-0.8-7.9c-0.3-1.4,0.3-2.8,2-2.9c2.3-0.1,4.6,0,5.9,2.4C135,76,134.8,76.9,134.8,77.7
			C134.8,77.7,134.8,77.7,134.8,77.7z"/>
		<path class="st1" d="M148.6,101.2c0.8,0,1.6,0,2.5,0l0,0c0.7,1.6,2.8,2.9,0.8,4.9C152.3,103.5,150,102.6,148.6,101.2z"/>
		<path class="st39" d="M151.1,101.2c-0.8-0.5-1.5-1.2-2.4-1.4c-1.4-0.4-2.9-1-2.3-2.6c0.5-1.4,1.4-3,3.5-2.6
			c0.5,0.1,1.1,0.1,1.6,0.2c2,0.2,3.6-0.4,4.2-2.4c0.6-2-0.5-3.4-2.4-4c-1.1-0.4-2.3-0.7-1.9-2.1c0.4-1.2,1.6-1.3,2.7-1.2
			c1.7,0.2,3.5,0.5,5.2,0.8c2.2,0.5,1.7,2.4,1.3,3.6c-0.9,3.5-2.1,7-3.4,10.3C156,103.1,153.4,101.8,151.1,101.2
			C151.1,101.2,151.1,101.2,151.1,101.2z"/>
		<path class="st13" d="M137.5,180.9c-2,0.8-3.3,1-4.4-0.1c-0.5-0.5,0-1.1,0.5-1.3C135,178.8,136,179.7,137.5,180.9z"/>
	</g>
</g>
</svg>
