<?xml version="1.0" encoding="utf-8"?>
<!-- Generator: Adobe Illustrator 20.0.0, SVG Export Plug-In . SVG Version: 6.00 Build 0)  -->
<svg version="1.1" id="Layer_1" xmlns="http://www.w3.org/2000/svg" xmlns:xlink="http://www.w3.org/1999/xlink" x="0px" y="0px"
	 viewBox="0 0 250 250" style="enable-background:new 0 0 250 250;" xml:space="preserve">
<style type="text/css">
	.st0{fill:#EAEAEA;}
	.st1{fill:#D0D1D1;}
	.st2{fill:#DFDEC2;}
	.st3{fill:#E6E4DC;}
	.st4{fill:#DAD8C1;}
	.st5{fill:#E2E1D5;}
	.st6{fill:#E0DFC3;}
	.st7{fill:#D9D8BC;}
	.st8{fill:#DCDBC1;}
	.st9{fill:#DFDDC4;}
	.st10{fill:#E3E3CA;}
	.st11{fill:#DEDDC3;}
	.st12{fill:#B3B3B3;}
	.st13{fill:#CFD0D0;}
</style>
<g>
	<g>
		<path class="st0" d="M137.6,84.5c3.7-0.2,8.7,9.8,11.9,10.3c0.3,0.3,0.6,0.6,0.9,0.9c6,5.7,12,11.6,18.6,16.7
			c0.4,0.3,0.7,0.7,1.1,1c0.6,1.5,3.1,1.8,2.6,4.1c-4.9,8.1-11.8,14.7-18,21.7c-10.1,11.6-20,23.5-30.3,34.9
			c-6.5,7.3-12.6,14.9-19.6,21.7c-4.6,3.8-7.8,9-12.1,13c4.2-4.2,8.7-7.9,12.4-12.7c21.5-22.2,43.2-44.1,65.5-65.5
			c2.9-1.9,4-5.8,8.2-6.4c2.2-0.3,4.1-0.3,5.9,0.6c10.2,5.1,20.6,9.9,30.9,14.9c4.7,2.3,4.8,2.3,1.8,6.5c-1.7,1.7-3.8,2.1-6.1,2.1
			c-2.4,1.8-5.5,2.4-7.2,5.2c-3,1.5-5.8,3.5-8.9,4.5c-2.6,0.9-3.9,2.3-4.5,4.7c-0.8,0.5-1.7-0.1-2.5,0.3
			c-21.4,13.6-42.6,27.5-64,41.1c-7.5,4.8-15.1,9.3-22.6,14c-7.9,4.9-15.3,10.9-23.9,14.7c-2.2,1.1-4.6,1.8-5.6,4.8
			c-0.9,2.9-4.3,3.1-6.8,3.8c-1.8,0.5-2.4-1.1-1.8-2.6c0.7-1.9,1.4-3.9,2.8-5.5c4.6-10.4,9.5-20.7,14.6-30.8c0.8-1.5,1.6-3,1.5-4.8
			c2.5-1.7,2.8-5.3,4.5-7.3c1.4,0.7,0.1-0.4,0.5-1.1c0.5-0.9,24-49.2,26-54.4c3.4-8.6,8.3-16.5,11.8-25.1
			C125.4,109.4,133,91.2,137.6,84.5z"/>
		<path class="st1" d="M77.1,232.2c10.8-6.9,21.5-14.1,32.5-20.5c20.2-11.7,39.4-24.8,59.1-37.4c6.7-4.3,14.2-7.5,19.8-13.3
			c2.9,8.6,2.1,17.7,4,26.5c0.4,1.9-1.4,3-1.8,4.6c-18.6,7.5-37.2,15.1-55.8,22.6c-9.9,0.2-17.9,5.9-26.8,9c-3.5,1.2-7.2,2-10.4,4
			c-5.4,1.9-10.5,4.5-15.9,6.4c-1.4,0.5-2.8,1.3-4.4,0.8C75.6,234.4,75.5,233.4,77.1,232.2z"/>
		<path class="st2" d="M126.7,109.4c-6.6,13.7-13.7,27.2-19.6,41.3c-5.2,10.5-10.3,20.9-15.5,31.4c-0.1-6.2,3.5-10.9,6-16
			c8-17.1,16.1-34.1,24.4-51c2.7-5.4,4.5-11.4,8.9-15.9v0C130.9,103.1,127.4,105.7,126.7,109.4z"/>
		<path class="st3" d="M77.1,232.2c-0.1,3.6,1.9,2,3.3,1.2c4.4-2.5,9.6-3.2,13.9-6c0.9-0.6,2.3-0.3,3.5-0.4c1-0.2,1.4,0.1,1.1,1.2
			c-10.2,6.5-21.7,10.1-32.8,14.7c-1.3,0.5-2.7,1.2-3.8,0.1c-1.2-1.2-1.1-3.1-0.1-4.3c1.4-1.7,1.2-4.4,3.5-5.5c0.7,0,0.8,0.7,1.1,1
			c-1.2,2-2.6,3.9-2.3,6.8c1.1-3.1,7.8,1.5,6.4-5.6C70.7,234.6,74.7,232.9,77.1,232.2z"/>
		<path class="st4" d="M217.4,146.5c-3.7-2.8,2.7-1.5,1.2-3.5c-11.1-6.5-23.4-11.2-34.9-17.2c-3.2-1.7-6.6-0.9-8.7,2.4
			c-1,1.6-2.2,3.1-4,3.8c-0.4-0.6-0.7-1.3-0.3-1.9c2.8-4,2-8.2,1.3-12.5c-0.7-1.3-1.3-2.7-2-4c0.5,0.2,0.9,0.6,1.4,0.7
			c5.4,0.4-0.1,11.1,9,9.1c4.6-1,9.4,3.2,14,5.4c7.5,3.6,15.1,7.1,22.6,10.6c1.8,0.8,4.2,1.5,4.4,3.7
			C221.6,145.6,218.5,145,217.4,146.5z"/>
		<path class="st5" d="M98.8,228.2c-0.4-0.4-0.7-0.8-1.1-1.2c2.3-3.7,6.7-2.9,9.9-4.6c6-3.2,12.6-5.2,18.8-7.9
			c3-1.3,5.7-0.6,8.5,0.2c-10.7,4.4-21.3,8.8-32,13.1C101.7,228.3,100.2,228.1,98.8,228.2z"/>
		<path class="st6" d="M66.7,234.2c-0.4-0.3-0.7-0.7-1.1-1c4.8-12,10.6-23.6,16.6-35.1c2,3.8-1.4,6.3-2.7,9.1
			C75.6,216.3,71,225.2,66.7,234.2z"/>
		<path class="st7" d="M190.8,192.1c2-9.2-2-18-1.7-27c0-1.3-0.3-2.7-0.5-4c0.7,0.7,1.4,1.4,2.1,2.1c0.9,7.7,1.7,15.5,2.9,23.2
			C193.9,189.1,193.4,191,190.8,192.1z"/>
		<path class="st8" d="M169,112.5c-7.7-3.9-16.7-12.3-21.7-19.1C154.1,98.2,163.6,106,169,112.5z"/>
		<path class="st9" d="M149.5,94.9c-4.3,1-4.1-4.6-7.4-5c-2.1-0.3-2.5-2.5-5.9-0.8c-0.5,0.3,0-3.1,0.4-3.5c0.9-1.1,1.8-2.1,3.3-0.5
			C143.1,88.3,146.3,91.6,149.5,94.9z"/>
		<path class="st2" d="M128.7,102.9c-0.2-4,5.7-13.6,7.6-16.7c0.1,4-1.5,7.6-4.1,10.4L128.7,102.9z"/>
		<path class="st10" d="M89.5,187.8c-0.8,1.3-6.5,12.6-7.4,13.7c-1.1,1.4,0.3-2.2,0.2-3.5c1.4-2.3,8.7-18.6,10.1-21.1
			C93.8,178.6,89.2,186.6,89.5,187.8z"/>
		<path class="st11" d="M204.1,153.8c0.5-4.4,4.4-4,7.2-5.2C209.5,151.3,206.6,152.3,204.1,153.8z"/>
		<path class="st12" d="M172,117.5c4.5,5.2,1.8,9.8-1.1,14.4c-21.7,21.7-43.3,43.4-65,65.2c-1.6,0.3-2.3-0.3-1.9-2
			c8.4-9.4,17-18.8,25.3-28.3c10.5-12,20.8-24.1,31.3-36.1C164.4,126.3,168.2,121.9,172,117.5z"/>
		<path class="st13" d="M104,195.1c0.3,1,1,1.6,1.9,2c-4.4,5.8-10.1,10.4-15.7,15C93.6,205.4,98.7,200.2,104,195.1z"/>
	</g>
</g>
</svg>
