<?xml version="1.0" encoding="utf-8"?>
<!-- Generator: Adobe Illustrator 20.0.0, SVG Export Plug-In . SVG Version: 6.00 Build 0)  -->
<svg version="1.1" id="Layer_1" xmlns="http://www.w3.org/2000/svg" xmlns:xlink="http://www.w3.org/1999/xlink" x="0px" y="0px"
	 viewBox="0 0 250 250" style="enable-background:new 0 0 250 250;" xml:space="preserve">
<style type="text/css">
	.st0{fill:#52B24E;}
	.st1{fill:#79C474;}
	.st2{fill:#54B151;}
	.st3{fill:#362C17;}
	.st4{fill:#362B1A;}
	.st5{fill:#392D1A;}
	.st6{fill:#372C1B;}
	.st7{fill:#8A867F;}
	.st8{fill:#A19E98;}
	.st9{fill:#FFFFFF;}
	.st10{fill:#216030;}
	.st11{fill:#53B150;}
	.st12{fill:#63B864;}
	.st13{fill:#65B964;}
	.st14{fill:#64BA66;}
	.st15{fill:#5FB75F;}
	.st16{fill:#58B355;}
	.st17{fill:#59B456;}
	.st18{fill:#64B964;}
	.st19{fill:#72BF70;}
	.st20{fill:#5CB55B;}
	.st21{fill:#5AB457;}
	.st22{fill:#73C072;}
	.st23{fill:#73BF72;}
	.st24{fill:#61B862;}
	.st25{fill:#5CB55A;}
	.st26{fill:#65BA65;}
	.st27{fill:#71BE6F;}
	.st28{fill:#6FBD6E;}
	.st29{fill:#63B962;}
</style>
<g>
	<g>
		<path class="st0" d="M195.9,65.1c0,4.1-1,8.1-1.2,12.2c-0.1,1.6,0.3,2.5,2,2.5c-2.1,1.9-1.5,4.6-2,6.9c-0.3,1.7,0.2,2.2,1.9,2.2
			c2.8,0,5.6,0.2,8.3-0.3c0.6-0.1,1.2-0.3,1.8,0.2c-0.8,0.9-1.8,0.9-2.8,0.9c-3,0.1-5.9,0.1-8.9,0.1c-0.5,0-0.9-0.4-1.5-0.4
			c-0.7,6.7-1.3,13.3-2,19.9c-0.5,4.8-1.1,9.6-1.6,14.4c-0.8,7.4-1.5,14.8-2.3,22.3c-0.7,6.9-1.5,13.8-2.2,20.7
			c-0.4,4.4-0.9,8.8-1.3,13.2c-0.6,5.5-1.2,11-1.8,16.5c-0.1,1.1-0.1,2.3-0.3,3.4c-0.1,0.7,0.1,1.2,0.8,1.6
			c-1,5.9-1.4,11.9-2.1,17.8c-0.2,1.7-0.9,2.7-2.6,2.8c-1,0.1-1.3,0.7-1.3,1.6c0.1,1.5-0.4,2.8-0.7,4.2c-0.1,0.4,0,1-0.7,0.9
			c-0.2-0.8-0.1-1.6,0.1-2.4c0.2-1.2,0.4-2.4,0.6-3.5c0.2-1.4-0.3-2.1-1.9-1.9c-6.2,0.9-12.5,0.6-18.7,1.2
			c-14.4,1.4-28.8,0.5-43.1,0.7c-5.1,0.1-10.2-0.8-15.2-1.3c-3.6-0.3-7.2-0.4-10.8-0.9c-0.5-0.1-1-0.1-1.4-0.4
			c-2.1-1.3-3.2-0.8-3.5,1.7c-1-1.1-2.2-1.9-3.5-2.7c-0.8-0.5-0.8-1.6-1-2.5c-0.6-4-1.1-8-1.5-12c-0.1-1.1-0.5-2.2-0.6-3.4
			c0.7-0.4,0.8-1,0.7-1.8c-0.6-8.7-1.1-17.4-1.8-26.1c-0.3-3.6-0.2-7.3-0.9-10.9c-0.5-2.6-0.4-5.2-0.6-7.8
			c-0.4-5.4-0.7-10.8-1.3-16.1c-0.6-5.4-0.2-10.8-1.1-16.1c-0.8-4.4-0.1-8.8-0.9-13c-1.1-5.8-0.6-11.7-1.4-17.4
			c-0.3-2.1-0.5-2.2-2.6-2.3c-3.1,0-6.3,0.2-9.4-0.3c-0.3-0.1-0.7,0-0.9-0.4c0.6-0.7,1.4-0.5,2.1-0.4c2.4,0.4,4.9,0.2,7.3,0.2
			c1.6,0,1.8-0.4,1.7-2c-0.1-0.7-0.1-1.5-0.1-2.2c0-1.7-0.3-3.4-1.4-4.8c0.9-0.2,1.9-0.3,1.8-1.6c-0.2-4.3-0.2-8.5-1-12.8
			c-0.2-0.4-0.1-0.9-0.1-1.4c-0.2-0.9,0.1-1.2,1.1-1.1c5.6,0.5,11.1,0.7,16.7,0.4c2.4-0.1,3.2,0.3,4.3,2.5c1.1,2.2,1.9,4.6,3.5,6.6
			c1.2,1.5,3.1,1.9,4.7,1c0.7-0.5,0.9-1.2,0.9-1.9c0-1.7,0-3.3,0-5c0-2.6,1-3.5,3.6-3.3c1.5,0.1,3,0.3,4.4,0.2c3.4,0,6.7,0,10.1-0.3
			c3.7-0.3,7.4,0.3,11.1,0.2c10.3-0.2,20.5-0.4,30.8-0.3c0.6,0,1.3,0,1.9,0c1.7,0.1,2.4,0.8,2.5,2.5c0.1,1.9,0,3.9,0.1,5.8
			c0,2,0.7,2.5,2.7,2.2c1.8-0.3,2.8-1.5,3.6-2.9c0.9-1.8,2.1-3.4,3.1-5.1c0.9-1.5,2.1-2.5,4-2.5c6.7,0,13.3,0,20,0
			C195.9,63.1,196.1,63.4,195.9,65.1z"/>
		<path class="st1" d="M195.9,65.1c0.1-1.2-0.5-1.5-1.7-1.5c-6.6,0.1-13.2,0.1-19.9,0c-2.1,0-3.2,1-4.2,2.6
			c-1.2,2.2-2.5,4.3-3.9,6.4c-0.9,1.4-3.6,2.2-5.1,1.6c-0.8-0.3-1.1-0.9-1.1-1.8c0-2.2,0-4.5,0-6.7c0-1.5-0.6-2.2-2.1-2.1
			c-7.9,0-15.8-0.1-23.6,0.1c-3.4,0.1-6.8,0.2-10.2,0.2c-1.8,0-3.6-0.4-5.4-0.4c-5.5,0.1-10.9,0.5-16.4,0.4c-1.5,0-2.9-0.7-4.4-0.1
			c-0.9,0.3-1.2,0.7-1.2,1.5c0,2.1,0,4.2,0,6.3c0,1.6-0.7,2.2-2.3,2.6c-2.5,0.6-3.5-0.5-4.8-2.3c-1.5-2-2.1-4.4-3.2-6.5
			c-0.7-1.4-1.7-1.8-3-1.7c-4.3,0.3-8.5,0.4-12.8-0.1c-0.9-0.1-1.8-0.2-2.7,0c-1,0.2-1.9,0.1-2.8-0.6c-0.1,0.9-0.1,1.7-0.1,2.4
			c-0.2-1.4-1-1.9-2.4-1.9c-3,0.1-5.9,0-8.9,0.1c-0.9,0-1.6-0.1-1.5-1.3c0.1-3.4,0.2-6.8,0.2-10.3c0-1.2,0.4-1.4,1.5-1.7
			c1.7-0.4,3.5-0.7,5.2-1c1.5-0.3,1.5-2.1,2.2-3.2c1-1.5,1.3-3.2,1.7-4.9c1,1.5,0.6,2.9-0.2,4.3c-1.3,2.6-1.9,2.8,1.8,3.1
			c5,0.3,10-0.1,15-0.3c0.9,0,1.7-0.1,2.6-0.1c13.9,0,27.8-0.2,41.8,0.1c7.5,0.1,15.1,0,22.6,0.3c7.9,0.3,15.7,0.1,23.6,0.7
			c6,0.4,12.1,0.1,18.1,0.3c2.9,0.1,5.8,0.4,8.7,0.6c1.9,0.2,1.9,0.1,1.9-1.8c0-1.7,0-3.4-0.8-5c-0.5-1.1-0.6-2.4,0.3-3.6
			c0.9,2.9,1.6,5.8,1.7,8.9c0.1,1.9,1,2.7,2.9,2.7c2.3,0,2.4,0,2.3,2.2c0,1,0.4,10-0.2,9.9c-2.3,0.3-5.7,0-8.1-0.1
			C196.2,63.6,196.3,64.6,195.9,65.1z"/>
		<path class="st2" d="M198.6,40c0.1,1.6-0.4,3.3,0.9,4.7c0.4,0.4,0.1,1.4,0.2,2.2c0.1,1.3-0.3,2.6,0.5,3.9
			c-2.8,0.5-5.5-0.2-8.1-0.3c-2.5-0.2-5-0.2-7.5-0.2c-3-0.1-6.1,0.1-9.1,0c-8.6-0.4-17.2-0.6-25.8-0.8c-3.8-0.1-7.6-0.1-11.4-0.2
			c-18.5-0.5-36.9-0.4-55.4-0.3c-4.5,0-9,0.1-13.4,0.5c-2.3,0.2-4.7-0.1-7-0.3c-1.4-0.1-1.6-0.8-0.8-1.9c1.3-1.8,2-3.7,1.7-6
			c0.7-1.5,1.3-3,1.9-4.6c0.6-1.6,0.6-3.4,1.6-4.8c1.2-1.6,1.4-3.6,2.3-5.4c1.1-2,2.1-4.4,3.5-6c1.2-1.4,2.5-3,4.3-4.2
			c2.3-1.6,4.8-2.6,7.2-3.3c1.8-0.5,3.7-1.3,5.8-1.3c15.9,0,31.7-0.3,47.6-0.2c6.3,0.1,12.6-0.4,18.8,0.4c6.2,0.7,12.5,0.3,18.6,1
			c2.7,0.3,5.4,0.3,8,1c1.8,0.5,3.9,1.1,4.8,3.2c0.1,0.4,0.5,0.6,0.8,0.9c2.5,2.5,3.6,5.8,5.2,8.8c0.8,1.5,1.4,3,2.1,4.5
			c1,2.1,1.7,4.4,2.1,6.7C198.2,38.8,198.4,39.4,198.6,40z"/>
		<path class="st3" d="M75,201.2c0.9,0.6,0.9,1.5,1,2.4c0.4,4.6,1,9.1,1.7,13.6c0.2,1.1,0.5,1.9,1.6,2.1c1.4,0.2,2,1.1,2.2,2.4
			c0.2,3.6,1.5,7,1.5,10.6c0.1,4.2-2.2,5.5-5.7,6c-1.2,0.2-2.5,0-3.7,0c-4.1-0.8-5.4-3.8-5.8-7.5c-0.1-0.7-0.1-1.5-0.3-2.1
			c-1.1-6.7-1.4-13.5-1.7-20.4c-0.1-2,0-4.1,1.8-5.5c1.4-1.1,3.2-1.3,4.9-1.6C73.2,201.1,74.1,201.2,75,201.2z"/>
		<path class="st4" d="M175.4,228.6c0.5-1.9,1.1-3.8,1-5.8c0-0.9,0-1.6,1.4-1.4c1.3,0.2,2.3-0.3,2.5-2.2c0.5-5.6,1.3-11.1,1.9-16.7
			c0.1-0.6,0.3-1,0.7-1.3c1.1,0,2.3,0,3.4,0.1c0.3,0.2,0.6,0.5,0.9,0.5c1.6,0,2.8,0.8,3.9,1.9l0,0c1.3,2,1.2,4.3,1,6.4
			c-0.4,3.6-0.5,7.1-0.5,10.7c0,0.6,0.1,1.1-0.2,1.7c-0.4,0.8-0.6,1.6-0.6,2.5c0,2.9-0.7,5.7-1.2,8.6c-0.5,2.5-3.3,4.6-6.3,4.8
			c-2.1,0.1-4.1,0-6-0.9c-1.2-0.5-2-1.3-2-2.7c-0.5-1.9-0.2-3.7,0-5.6C175.3,229,175.3,228.8,175.4,228.6z"/>
		<path class="st5" d="M206.7,88.7c-3.7,0.8-7.5,0.6-11.2,0.6c-1,0-1.4-0.4-1.4-1.4c0-2.4,0.9-4.7,0.8-7.1c0-1.2,1.4-0.4,1.9-1
			c2.6-0.2,5.1-0.3,7.7,0.1c1.5,0.2,3.4,0.6,3.9,2.5C209.1,84.6,208.3,87.5,206.7,88.7z"/>
		<path class="st6" d="M64.4,79.7c1.2,0.2,1.7,0.8,1.7,2.1c0,1.9,0.3,3.8,0.5,5.8c0.1,1.3-0.6,1.7-1.8,1.7c-2.8-0.1-5.7,0.3-8.5-0.3
			c-0.5-0.1-1,0-1.5,0c-1.6-0.4-2.1-1.5-2.3-3c-0.7-4.6,0.6-6,5.5-6.3C60.1,79.6,62.3,79.7,64.4,79.7z"/>
		<path class="st7" d="M191.4,222.5c0-3.9,0-7.7,0.2-11.6c0.2-2.4,0.3-4.9-0.6-7.2c1.1,0.6,1.2,1.8,1.2,2.8
			C192.3,211.9,191.9,217.2,191.4,222.5z"/>
		<path class="st8" d="M67.4,228.7c0.6,1,0.7,2.1,0.8,3.2c0.3,2.8,1.4,5,4.4,5.7c0.3,0.1,0.6,0.4,0.9,0.7c-2.7-0.2-4.7-1.7-5.4-4.3
			C67.8,232.2,67.1,230.5,67.4,228.7z"/>
		<path class="st0" d="M175.2,229.2c0,1.9,0,3.7,0,5.6C174.2,232.9,174.6,231,175.2,229.2z"/>
		<path class="st7" d="M191,203.7c-1.3-1.4-3.4-1.2-4.8-2.4C188.1,201.7,190.1,201.7,191,203.7z"/>
		<path class="st1" d="M159.9,113.3c0.3,16.5-14.2,30.7-30.5,30.9c-17.8,0.3-32.3-14.5-32.1-30.8c0.2-17.6,13.6-31.5,31.3-31.6
			C145.6,81.6,160.4,95.8,159.9,113.3z"/>
		<path class="st9" d="M104,177.4c3.6-1.3,6.9-2.4,10.1-3.6c0.7-0.3,0.9,0,1.1,0.6c1.3,3.7,2.6,7.5,4,11.3c-0.2,0-0.3,0-0.4,0
			c-2.7-1.6-2.7-1.6-4.2,1.2c-0.7,1.3-1.4,2.6-2.2,3.9c-1.8,3.2-4.1,6.2-3.2,10.4c-0.2,0-0.4,0-0.6,0c-1.2-2.2-2.4-4.4-3.7-6.5
			c-0.6-1.1-1.1-2.3-1.8-3.3c-1.4-1.9-1.1-3.7-0.3-5.6c0.8-1.8,1.7-3.5,2.9-5c0.9-1.3,0.7-2-0.7-2.5
			C104.7,177.9,104.5,177.7,104,177.4z"/>
		<path class="st9" d="M123.3,153.6c4.4,0,8.7,0,13,0c1.3,0,2.1,1,2.9,1.9c1.2,1.3,2,2.9,2.8,4.5c1.3,2.5,1.3,2.5,3.8,1.4
			c0.2,1.6-0.4,3.1-0.7,4.6c-0.3,1.9-0.7,3.7-1,5.5c-0.1,0.4-0.1,1-0.8,0.9c-3.9-0.7-7.9-1.5-11.8-2.2c0.1-0.2,0.1-0.3,0.1-0.3
			c2.5-1.9,2.5-1.9,0.9-4.6c-0.6-1.1-1.3-2.2-1.9-3.2c-1-1.7-1.9-3.4-2.9-5C126.6,155.4,124.6,154.9,123.3,153.6z"/>
		<path class="st9" d="M139,205.9c-2.9-2.5-5.4-4.7-8-6.9c-0.4-0.4-0.8-0.6-0.2-1.2c2.6-3,5.1-6,7.7-9c0.2,0.1,0.2,0.1,0.2,0.2
			c0.3,3.2,0.3,3.2,3.6,3.1c1.3,0,2.6,0,3.9,0c3.7,0,7.6,0.6,10.7-2.5c0.1,0.2,0.2,0.3,0.3,0.5c-1.1,1.9-2.3,3.8-3.4,5.8
			c-0.7,1.2-1.6,2.4-2.2,3.7c-1.2,2.8-3.5,3.5-6.2,3.6c-1.5,0.1-3,0.1-4.4,0c-1.5-0.1-2.2,0.3-1.9,1.8
			C139.1,205,139,205.3,139,205.9z"/>
		<path class="st9" d="M128.4,160.1c-0.2,0.3-0.4,0.6-0.5,0.9c-2.4,3.7-4.8,7.3-7.2,11c-0.4,0.7-0.7,0.8-1.5,0.4
			c-2.5-1.5-5.1-2.9-7.6-4.2c-0.7-0.4-1-0.6-0.5-1.5c2.3-3.7,4.5-7.4,7.3-10.7c2.4-2.9,2.4-2.8,5.5-0.8c1.7,1.1,3.2,2.2,4,4.1
			C128,159.5,128.2,159.8,128.4,160.1z"/>
		<path class="st9" d="M150.6,191c-1.5,0.4-2.2-0.4-2.8-1.7c-1.7-3.6-3.5-7-5.3-10.5c-0.5-0.9-0.5-1.5,0.5-2
			c2.5-1.4,4.9-2.9,7.3-4.4c0.7-0.4,1-0.5,1.4,0.3c2.2,4.2,4.5,8.4,5.9,13c0.8,2.5,0.7,2.5-1.5,3.6C154.4,190,152.9,191.4,150.6,191
			z"/>
		<path class="st9" d="M127.2,199.7c0,0.2,0,0.3,0,0.5c0.1,1.6,0.9,3.6-0.2,4.6c-0.9,0.9-2.9,0.2-4.4,0.2c-3.7-0.2-7.4-0.4-11-1.3
			c-1.3-0.3-1.9-0.9-1.7-2.3c0.3-2.3-0.2-4.8,1.4-6.9c0.5-0.7,0.9-1.1,1.9-1.1c4.3,0.3,8.6,0.5,12.9,0.7c0.9,0,1,0.5,1,1.2
			c0,1.5,0,3,0,4.4C127.1,199.7,127.1,199.7,127.2,199.7z"/>
		<path class="st10" d="M130.9,19.1c12.3,0,21.2-0.1,30.1,0c4.4,0.1,8.8,0.3,13.1,0.7c4.4,0.4,7.3,3,9.3,6.9
			c1.8,3.6,2.9,7.5,4.3,11.2c0.4,1.2,1.1,2.3,1.5,3.4c0.6,1.9-0.2,3-2.2,3c-6.4,0.2-12.9,0.2-19.3,0.4c-21.6,0.6-43.1,0.2-64.7,0.2
			c-5.7,0-11.5,0-17.3-0.3c-2.7-0.1-5.3-0.1-8-0.3c-2.6-0.1-4-2-3.2-4.5c1.9-5.9,4.7-11.4,9-15.8c2.5-2.5,5.7-3.8,9.1-4.3
			c2.8-0.5,5.7-0.2,8.5-0.4C112.2,18.9,123.3,19.2,130.9,19.1z"/>
		<path class="st11" d="M128.9,141.4c-15.6,0-28.5-12.7-28.3-28.7c0.2-15.1,12.6-28.1,28.9-27.8c15.1,0.3,28,12.7,27.6,29
			C156.8,128.8,144.6,141.3,128.9,141.4z"/>
		<path class="st9" d="M122.3,112.1c2.7,0,5.5,0,8.2,0c0.6,0,1.3-0.1,1.5,0.8c0.2,0.8-0.3,1.3-1.1,1.4c-0.8,0.1-0.7,0.7-0.8,1.3
			c-0.8,5.7-1.6,11.4-2.4,17.1c-0.1,1.1-0.4,1.5-1.7,1.4c-2.6-0.4-5.2-0.3-7.8,0c-1.1,0.2-1.4-0.2-1.5-1.2
			c-0.8-5.8-1.6-11.5-2.4-17.2c-0.1-0.6-0.1-1.3-1-1.3c-0.7,0-1-0.5-0.9-1.2c0.1-0.8,0.7-0.9,1.4-0.9
			C116.6,112.1,119.5,112.1,122.3,112.1z"/>
		<path class="st9" d="M142.4,133.5c-1.2-4.3-2.4-8.6-3.7-13.4c-2.7,4.9-5.2,9.4-7.8,13.9c-0.1,0-0.2,0-0.3,0
			c0.3-2.1,0.5-4.3,0.8-6.4c0.7-5,1.4-10,2-15.1c0.1-1,0.5-1.3,1.5-1.3c2.7,0,5.5-0.1,8.2-0.2c1.4-0.1,1.9,0.3,1.7,1.8
			c-0.8,6.9-1.4,13.8-2.2,20.7C142.6,133.5,142.5,133.5,142.4,133.5z"/>
		<path class="st9" d="M144.9,110.2c-3.5,0.2-6.8,0.4-10,0.6c-0.8,0.1-1.2-0.2-1.3-0.9c0-0.2-0.1-0.3-0.1-0.5c-0.2-4-2.3-6-6.3-6.7
			c-3.3-0.6-6.4-1.9-9.7-2.8c0,0-0.1-0.1-0.1-0.6c2.7,0,5.4,0,8.1,0c4.3,0,8.5-0.1,12.8-0.1c0.7,0,1.3,0,1.7,0.8
			C141.6,103.3,143.2,106.7,144.9,110.2z"/>
		<path class="st9" d="M121.8,109.8c-1.5,0.3-2.9-0.5-4.5-0.8c-0.7-0.1-1-0.5-0.7-1.2c0-0.1,0-0.2,0.1-0.3c0.2-1.4-0.1-3.3,0.7-3.9
			c0.8-0.6,2.2,0.9,3.4,1.4c1.5,0.5,3.2,0.2,4.7,0.2c1.1,0,1.4,0.4,1.2,1.4C126.2,109.7,126.2,109.7,121.8,109.8z"/>
		<path class="st9" d="M131.1,95.2c0-2.2,1.6-3.8,3.8-3.8c2.2,0,3.8,1.6,3.8,3.8c0,2.1-1.7,3.8-3.8,3.8
			C132.7,98.9,131.1,97.3,131.1,95.2z"/>
		<path class="st12" d="M121.5,118c0.1,0.8-0.2,1.1-1,1.1c-0.9,0-1-0.4-1-1.1c0-0.9,0.5-0.9,1.1-0.9
			C121.3,117.1,121.7,117.3,121.5,118z"/>
		<path class="st13" d="M123.9,119.1c-0.8,0.1-1-0.3-1-1c0-0.7,0.2-1,1-1c0.8,0,1.1,0.3,1.1,1.1C124.9,119,124.6,119.2,123.9,119.1z
			"/>
		<path class="st14" d="M117.1,117.4c0.8-0.1,1,0.2,1.1,0.9c0,0.9-0.5,1-1.2,1.1c-0.9,0.1-0.8-0.6-0.9-1.1
			C116,117.4,116.6,117.4,117.1,117.4z"/>
		<path class="st15" d="M128.4,117.9c-0.1,0.9-0.1,1.6-1,1.4c-0.6-0.1-1.1-0.1-1.1-1c0-0.7,0.2-1.1,1-1
			C127.9,117.4,128.6,117.3,128.4,117.9z"/>
		<path class="st16" d="M117,115.9c-0.9,0.2-1.2-0.1-1.3-0.8c-0.1-0.9,0.4-0.9,1-0.9c0.7,0,1.2,0.1,1.2,1
			C118,116.2,117.2,115.8,117,115.9z"/>
		<path class="st17" d="M127.7,116c-0.8,0-1.2-0.2-1.1-1c0.1-1,0.8-0.7,1.4-0.8c0.7-0.1,0.8,0.3,0.8,0.9
			C128.7,116,128.3,116.1,127.7,116z"/>
		<path class="st18" d="M120.7,120.5c0.7-0.1,0.9,0.3,0.9,0.9c0,0.6,0,1.1-0.9,1.1c-0.8,0-0.8-0.5-0.9-1.1
			C119.7,120.6,120.1,120.4,120.7,120.5z"/>
		<path class="st18" d="M124.7,121.2c0,0.7,0,1.2-0.9,1.2c-0.6,0-0.9-0.3-0.9-0.9c0-0.5-0.1-1.1,0.7-1
			C124.2,120.5,124.8,120.5,124.7,121.2z"/>
		<path class="st19" d="M127,122.6c-0.7,0-1.1-0.2-1-0.9c0.1-0.5,0-1.2,0.9-1c0.5,0.1,1.2,0,1,0.9
			C127.8,122.1,127.8,122.8,127,122.6z"/>
		<path class="st20" d="M118.3,121.2c0.2,1.1-0.1,1.3-0.7,1.4c-0.8,0.1-0.9-0.4-1-1c-0.2-0.9,0.5-0.8,1-0.9
			C118.4,120.5,118.3,121.1,118.3,121.2z"/>
		<path class="st21" d="M124.1,114.2c0.5,0.1,1.1-0.1,1.1,0.7c0,0.8-0.6,0.8-1.2,0.8c-0.5,0-1,0.1-1-0.7
			C122.9,114.1,123.6,114.3,124.1,114.2z"/>
		<path class="st18" d="M118.2,125.9c-1.3,0-1.1-0.7-1.2-1.2c-0.1-0.6,0.3-0.8,0.8-0.8c0.9,0,0.7,0.7,0.8,1.2
			C118.7,125.6,118.4,125.9,118.2,125.9z"/>
		<path class="st22" d="M123.6,129c-0.7,0-0.6-0.5-0.6-1c0-0.5,0-0.9,0.6-1c0.8,0,0.7,0.5,0.7,1C124.3,128.6,124.2,129,123.6,129z"
			/>
		<path class="st23" d="M120.9,127.1c0.7,0,0.7,0.4,0.7,0.9c0,0.4,0.1,1-0.6,1c-0.7,0-0.8-0.5-0.8-1
			C120.2,127.5,120.2,127,120.9,127.1z"/>
		<path class="st24" d="M127.4,124.8c-0.1,0.4,0.1,1.1-0.7,1.1c-0.6,0-0.9-0.3-0.8-0.9c0.1-0.5-0.1-1.1,0.7-1
			C127.2,124,127.5,124.2,127.4,124.8z"/>
		<path class="st16" d="M120.3,115.7c-0.6,0.1-1-0.1-1-0.8c0-0.8,0.6-0.6,1.1-0.7c0.5,0,1-0.1,1,0.7
			C121.5,115.9,120.8,115.6,120.3,115.7z"/>
		<path class="st25" d="M123.6,123.8c0.5,0,0.9,0.1,0.9,0.7c-0.1,0.5,0,1.1-0.7,1.1c-0.6,0-0.8-0.2-0.8-0.8
			C123,124.4,122.9,123.8,123.6,123.8z"/>
		<path class="st18" d="M126.3,127.3c0.7,0,0.7,0.4,0.6,0.9c-0.1,0.4,0,1-0.6,1c-0.7,0-0.7-0.5-0.7-1
			C125.6,127.7,125.7,127.2,126.3,127.3z"/>
		<path class="st26" d="M118,127.3c1,0,0.8,0.6,0.8,1.1c0.1,0.4-0.1,0.8-0.6,0.8c-0.9,0-0.6-0.8-0.7-1.2
			C117.4,127.4,117.8,127.3,118,127.3z"/>
		<path class="st17" d="M121.5,124.7c0,0.6-0.1,1-0.7,1c-0.8,0-0.7-0.5-0.8-1c-0.1-0.6,0.3-0.8,0.8-0.8
			C121.5,123.9,121.5,124.3,121.5,124.7z"/>
		<path class="st27" d="M126.5,131.4c-0.2,0.4,0.1,1.1-0.7,1.1c-0.4,0-0.5-0.4-0.5-0.8c0-0.5,0-1.1,0.7-1.1
			C126.5,130.6,126.6,130.9,126.5,131.4z"/>
		<path class="st28" d="M120.9,130.5c0.6,0,0.7,0.4,0.7,0.8c0,0.4,0.2,1-0.4,1.1c-0.5,0.1-0.6-0.4-0.6-0.8
			C120.5,131.1,120.3,130.6,120.9,130.5z"/>
		<path class="st27" d="M123.3,130.5c0.6,0,0.8,0.2,0.7,0.6c-0.1,0.4,0.2,1.1-0.5,1.2c-0.5,0.1-0.6-0.4-0.6-0.8
			C122.9,131.1,122.8,130.6,123.3,130.5z"/>
		<path class="st29" d="M118.6,130.6c0.6,0.1,0.5,0.7,0.5,1.1c0,0.3,0,0.7-0.4,0.7c-0.8,0-0.6-0.7-0.6-1.1
			C118,130.9,118.2,130.6,118.6,130.6z"/>
	</g>
</g>
</svg>
