<?xml version="1.0" encoding="utf-8"?>
<!-- Generator: Adobe Illustrator 20.0.0, SVG Export Plug-In . SVG Version: 6.00 Build 0)  -->
<svg version="1.1" id="Layer_1" xmlns="http://www.w3.org/2000/svg" xmlns:xlink="http://www.w3.org/1999/xlink" x="0px" y="0px"
	 viewBox="0 0 250 250" style="enable-background:new 0 0 250 250;" xml:space="preserve">
<style type="text/css">
	.st0{display:none;}
	.st1{display:inline;}
	.st2{fill:#5E69B1;}
	.st3{fill:#8C97CC;}
	.st4{fill:#5F68B0;}
	.st5{fill:#362B1C;}
	.st6{fill:#362B19;}
	.st7{fill:#372C17;}
	.st8{fill:#372B16;}
	.st9{fill:#6A6FAC;}
	.st10{fill:#565E9F;}
	.st11{fill:#565683;}
	.st12{fill:#57565C;}
	.st13{fill:#BBBFD9;}
	.st14{fill:#8B97CC;}
	.st15{fill:#FFFFFF;}
	.st16{fill:#353550;}
	.st17{fill:#5567B0;}
	.st18{fill:#404B91;}
	.st19{fill:#262B63;}
	.st20{fill:#7079BA;}
	.st21{fill:#6F78B9;}
	.st22{fill:#717ABA;}
	.st23{fill:#6972B6;}
	.st24{fill:#626DB3;}
	.st25{fill:#7078BA;}
	.st26{fill:#636EB3;}
	.st27{fill:#7C84C0;}
	.st28{fill:#6C74B7;}
	.st29{fill:#6D76B8;}
	.st30{fill:#7E85C1;}
	.st31{fill:#7A83C0;}
	.st32{fill:#6770B5;}
	.st33{fill:#7A81BF;}
	.st34{fill:#F9BE3E;}
	.st35{fill:#FDD066;}
	.st36{fill:#F9BF34;}
	.st37{fill:#342D16;}
	.st38{fill:#352B18;}
	.st39{fill:#372A17;}
	.st40{fill:#372D14;}
	.st41{fill:#EDD182;}
	.st42{fill:#C0BEBA;}
	.st43{fill:#EAD9A4;}
	.st44{fill:#95928C;}
	.st45{fill:#FBD064;}
	.st46{fill:#936427;}
	.st47{fill:#F9C553;}
	.st48{fill:#F8C553;}
	.st49{fill:#FAC655;}
	.st50{fill:#FAC44F;}
	.st51{fill:#F9C042;}
	.st52{fill:#F9C044;}
	.st53{fill:#FBCA62;}
	.st54{fill:#F9C043;}
	.st55{fill:#FACA62;}
	.st56{fill:#FAC757;}
	.st57{fill:#FAC551;}
	.st58{fill:#FAC961;}
	.st59{fill:#F9CA63;}
	.st60{fill:#FBC654;}
	.st61{fill:#FBC961;}
	.st62{fill:#FAC860;}
	.st63{fill:#FAC553;}
</style>
<g class="st0">
	<g class="st1">
		<path class="st2" d="M57.2,83.1c2-0.5,4-0.3,6-0.1c1.4,0.1,2.1-0.4,2-1.9c-0.2-3.4-0.3-6.9-0.3-10.3c0-0.8-0.4-1.2-0.7-1.8
			c-0.2-2.1,0.1-2.4,2.1-2.3c7.2,0.1,14.5,0.3,21.7-0.1c1.8-0.1,2.8,0.9,3.4,2.3c0.8,1.7,1.7,3.3,2.5,5c0.5,1,1,1.9,1.8,2.6
			c1,0.9,2.1,0.9,3.3,0.5c1.2-0.4,1.2-1.4,1.2-2.4c0-1.9,0.4-3.7,0.4-5.6c0-1.4,0.9-2.2,2.3-2.3c0.6,0,1.2,0,1.9,0
			c15.9,0,31.8,0,47.7,0c0.6,0,1.1,0,1.7,0c1.7,0.1,2.3,0.8,2.4,2.5c0.1,1.7,0,3.5,0.2,5.3c0.1,1.2,0.2,2.3,1.6,2.6
			c1.5,0.4,2.6,0.1,3.6-1.2c1.3-1.8,2.3-3.9,3.3-5.9c0.3-0.7,0.6-1.3,1.1-1.9c0.8-1,1.7-1.5,3.1-1.4c6.5,0.4,13,0.1,19.5,0.2
			c0.5,0,1-0.1,1.5-0.2c2.6-0.6,3-0.2,2.7,2.5c-0.2,2.5-0.5,4.9-0.6,7.4c-0.1,2,1,3.8,0.8,5.9c-0.1,0.8,1,0.7,1.6,0.7
			c2.3,0,4.6-0.4,6.9,0.2c-1.1,0.9-2.3,0.4-3.5,0.6c-0.6,0.1-1.2,0-1.8,0c-2.6-0.1-2.7,0-2.9,2.6c-0.1,1.1-0.3,2.1-0.4,3.2
			c-0.2,2.6-0.1,2.7,2.6,2.7c2.4-0.1,4.8,0.1,7.2-0.3c0.7-0.1,1.4-0.1,1.9,0.5c-0.3,0.5-0.7,0.5-1.2,0.5c-3.8,0-7.7,0.8-11.4-0.4
			c-0.8-0.3-0.8,0.3-0.8,0.8c-0.1,1.1-0.1,2.3-0.1,3.4c0,5.1-0.9,10.2-1.5,15.2c-0.5,4.7-0.4,9.5-1.6,14.1c0,0.1,0,0.1,0,0.2
			c0.1,4.9-0.9,9.6-1.3,14.4c-0.3,4.1-0.5,8.3-1.1,12.4c-0.5,3.4-0.4,6.9-1,10.2c-0.9,4.7-1,9.4-1.6,14.1c-1,7.5-1.5,15-2.3,22.6
			c-0.1,1.1-0.2,2.1-0.4,3.2c-0.1,0.7,0,1.2,0.7,1.5c0.4,0.9,0.1,1.8,0,2.7c-0.5,3.2-0.8,6.4-0.9,9.6c0,2.1-0.7,4.1-0.8,6.2
			c0,0.9-0.7,1.6-1.5,1.9c-1.1,0.4-2.1,0.9-3.2,1.3c-0.3-2.3-0.3-2.3-2.9-2c-8.7,1-17.4,1.1-26.1,1.2c-0.9,0-1.7,0-2.5,0.3
			c-0.6-0.2-1.2-0.2-1.8-0.2c-8.5,0-17.1,0-25.6,0c-0.6,0-1.2,0-1.8,0.2c-1.6-0.1-3.2-0.3-4.9-0.3c-3.5-0.1-7.1,0.1-10.5-0.4
			c-4-0.7-8-0.7-11.9-1.1c-1.4-0.1-2.7-0.9-4.2-1c-1.6-0.1-2.3,0.4-2.2,2c-0.2,0.1-0.3,0.1-0.4-0.1c-0.2-0.4-0.2-0.8-0.3-1.3
			c-0.2-0.6-0.7-0.9-1.1-1.2c-1.8-1.2-2.1-3.1-2.2-5c-0.3-3.8-0.9-7.6-1.3-11.4c-0.1-0.7-0.7-0.9-0.9-1.4c1-0.1,1.5-0.6,1.3-1.7
			c-1-5.8-0.8-11.7-1.6-17.5c-0.4-3.4-0.3-6.8-0.9-10.1c-0.7-4.3-0.4-8.7-1.1-12.9c-0.7-3.8-0.2-7.5-0.9-11.3
			c-0.8-4.5-0.5-9.1-1.2-13.6c-0.7-5-0.7-10.1-1.2-15.2c-0.7-7.1-1.3-14.2-1.9-21.2c-0.2-2-0.2-4.1-0.4-6.1
			c-0.1-0.9,0.1-2.1-1.2-2.5c0.4-2.4,0.1-4.9,0-7.3c-0.1-1.3-0.7-1.9-2-1.7c-0.3,0-0.6,0-0.8,0c-1,0-2,0-2.9,0
			C58.5,83.5,57.7,83.8,57.2,83.1z"/>
		<path class="st3" d="M193.4,68.9c-0.1-2.6-0.1-2.5-2.8-1.8c-0.4,0.1-0.9,0.1-1.3,0.1c-6.1,0-12.1,0.3-18.2-0.1
			c-3.2-0.2-4.4,1-5.4,3.6c-0.7,1.9-1.9,3.6-2.9,5.3c-1.1,1.8-3.7,2.4-5.4,1.2c-0.5-0.4-0.9-0.9-0.9-1.6c0-2.1-0.1-4.3-0.1-6.4
			c0-1.5-0.6-2-2-2c-17,0-34,0-50.9,0c-1.5,0-2.2,0.6-2.1,2.1c0.1,2.1-0.5,4.3-0.3,6.4c0.1,0.8-0.3,1.4-1.2,1.7
			c-1.4,0.4-2.8,0.9-4-0.2c-0.9-0.8-1.5-1.8-2.1-2.8c-0.9-1.8-1.7-3.7-2.7-5.5c-0.7-1.3-1.7-2.4-3.5-1.7c-0.2,0.1-0.4,0-0.7,0
			c-7.1-0.1-14.2,0.3-21.3-0.3c-1.4-0.1-1,1.2-1.3,1.9c-0.7-2.7-0.7-2.7-3.8-2.7c-2.5,0-5.1,0-7.6,0c-1,0-1.5-0.3-1.4-1.4
			c0.4-2.8,0.1-5.6,0.2-8.5c0-1.8,0.7-2.4,2.5-2.5c0.5,0,0.9-0.1,1.4,0c2.2,0.4,3.6-0.6,4.4-2.6c0.9,1,2.1,1.1,3.4,1
			c3.1-0.3,6.3-0.4,9.5,0.1c0.7,0.1,1.5,0.1,2.2,0.1c12.2,0,24.3,0,36.5,0c23.6,0,47.2,0,70.8,0c3.2,0,6.3-0.6,9.5-0.4
			c1.2,0.1,2.4,0.1,3.6,0.2c1.5,0.1,1.7-0.2,1.3-1.6c-0.3-0.8-0.6-1.5,0.1-2.2c0.6,1.2,1.2,2.5,1.8,3.7c0.6,1.1,1.3,1.8,2.8,1.7
			c4.9-0.2,5,0,4.9,4.9c0,2-0.1,4,0.1,5.9c0.1,1.2-0.2,1.5-1.3,1.5c-3,0-6,0.1-9-0.1c-1.6-0.1-2.4,0.3-2.1,2
			C193.7,68.4,193.5,68.7,193.4,68.9z"/>
		<path class="st4" d="M196.5,48.5c-0.1,0.8-0.1,1.6,0.6,2.2c0.5,0.5,0.5,1.1,0.3,1.7c-0.2,0.8-0.9,0.5-1.4,0.5
			c-1.3,0.1-2.5-0.4-3.9-0.3c-24.5,0.7-49,0.2-73.4,0.3C103.8,53,89,53,74.2,52.9c-2.9,0-5.9-0.2-8.8-0.3c-1.2,0-2.3,0.3-3.5,0.4
			c-1.3,0.1-2.1-0.3-2.1-1.7c0,0,0-0.1,0-0.1c1.2-1.7,2-3.6,2.3-5.7c1-1.3,1.2-2.9,1.6-4.3c1.1-3.4,2.5-6.7,3.9-10
			c1.8-4.3,4.6-7.7,7.9-10.9c1-0.9,2.3-1.1,3.3-1.9c2.3-0.8,4.7-0.8,6.9-2c0.4-0.2,0.9-0.2,1.3-0.2c7.9-0.2,15.8-0.7,23.7-0.7
			c9.2,0.1,18.4,0,27.7,0c7.2,0,14.5,0.1,21.7,0.2c2.8,0,5.5,0.4,8.3,0.3c1.7,0,3.4,0,5.1,0.3c1,1.1,2.6,0.9,3.9,1.4
			c3.5,1.3,5.9,3.9,8.3,6.6c2.7,3.1,4.3,6.9,5.8,10.7C193.3,39.4,194.9,43.9,196.5,48.5z"/>
		<path class="st5" d="M80.2,223.9c0,0.4,0,0.9,0.1,1.3c0.3,1.8,0.1,3.7,1,5.4c0.4,1.8,0.6,3.6,0.6,5.4c0.2,4.1-1.7,5.2-4.8,5.9
			c-2.5,0.5-5.2,0.3-7.5-1.3c-1.2-0.8-2-1.9-2.4-3.3c-0.9-3.5-1-7.2-1.6-10.7c-0.8-4.8-0.5-9.6-1-14.4c-0.1-1.2,0-2.4,0.4-3.5
			c0.5-1.5,1.4-2.6,3-3c1.9-0.5,3.7-1,5.7-0.7c0.9,0.2,1.3,0.6,1.4,1.7c0.3,4.7,1,9.3,1.5,13.9c0.1,1.2,0.8,2.1,2,2.5
			C79.2,223.1,79.9,223.1,80.2,223.9z"/>
		<path class="st6" d="M175.1,226.4c0.2-0.9,0.8-1.2,1.8-1.3c2-0.1,2.5-1,2.7-3c0.5-5.5,1.1-11.1,1.7-16.6c0-0.3,0.2-0.5,0.3-0.8
			c2.1-0.1,4.1-0.4,6.1,0.7c1.4,0.7,2.6,1.6,2.9,3.1c0.4,2.3,1,4.6,0.4,7.1c-0.7,2.7-0.2,5.7-0.6,8.6c-0.6,4.6-1.3,9.2-2.1,13.8
			c-0.2,1.4-1.5,2.2-2.8,2.7c-3.2,1.5-6.5,1.5-9.6-0.1c-1.6-0.8-2.1-2.4-2.1-4c0-2.4-0.1-4.8,0.8-7.2
			C175,228.6,174.9,227.5,175.1,226.4z"/>
		<path class="st7" d="M205.1,92.4c-3.2,0.1-6.3,0.6-9.5,0.3c-1.5-0.3-2-1.1-2-2.7c0.1-1.3-0.1-2.7,0-4c0.1-2.3,0.3-2.4,2.6-2.7
			c1.9,0,3.8-0.1,5.7-0.1c0.6,0,1.1,0.1,1.7,0.1c1.8,0.1,3,1.1,3.4,2.9C207.8,89.1,207,91.5,205.1,92.4z"/>
		<path class="st8" d="M59.2,83.2c1,0,2,0,3,0c2.9,0.4,3,0.5,3.1,3.6c0.1,1.5-0.1,2.9,0.2,4.4c0.2,1.2-1,1.4-1.9,1.4
			C60,93,56.5,92.9,53,92c-2.2-2.1-2.2-6.1,0-7.9C54.9,83,57.1,83.5,59.2,83.2z"/>
		<path class="st9" d="M168.6,16.2c-4.7,0.3-9.5-0.4-14.2-0.3c-11.6,0.1-23.1,0-34.7,0c-5.7,0-11.5,0-17.2,0c-5-0.1-10,0.6-15.1,0.4
			c-0.4,0-1,0-1.3,0.3c-2.2,1.6-4.8,1.4-7.3,1.7c2.9-1.5,6.1-2.2,9.4-2.5c20.8-1.6,41.7-0.7,62.5-0.8c4,0,7.9,0.1,11.9,0.1
			c0.8,0,1.4,0.2,2.1,0.5c0.9,0.3,1.9,0,2.8,0.1C168,15.8,168.5,15.5,168.6,16.2z"/>
		<path class="st10" d="M114.2,225.9c0.1-0.8,0.8-0.7,1.3-0.7c8.9,0,17.8,0,26.7,0c0.6,0,1.2-0.1,1.3,0.7c-0.5,0.5-1.1,0.3-1.6,0.3
			c-8.7,0-17.4,0-26.1,0C115.2,226.2,114.6,226.4,114.2,225.9z"/>
		<path class="st11" d="M80.2,223.9c-1.9-0.4-3.7-1-4-3.4c-0.1-1.1-0.3-2.2-0.3-3.3c-0.3-3.7-1.1-7.3-1-11c0-0.9-0.7-0.9-1-1.3
			c0.1,0,0.2-0.1,0.3-0.1c1.1,0,1.3,0.5,1.4,1.6c0.5,4.4,1.2,8.8,1.6,13.2c0.2,1.8,1.7,2.2,2.6,3.3C80,223.1,80.3,223.4,80.2,223.9z
			"/>
		<path class="st12" d="M53,92c1.9,0.2,3.8,0.2,5.7,0.5c1.9,0.3,3.7,0,5.5-0.3c0.5-0.1,1.1-0.3,0.9-1c-0.6-2-0.1-4-0.5-6.1
			c-0.2-1.4-0.6-1.9-1.9-1.8c-0.2,0-0.4-0.2-0.6-0.2c3.2-0.2,3.2-0.2,3.4,2.9c0.1,1.7-0.2,3.5,0.3,5.2c0.2,0.7-0.6,0.9-0.9,1.3
			c-2.2,0.9-4.6,0.4-6.8,0.4C56.4,93.1,54.6,93.1,53,92z"/>
		<path class="st13" d="M168.6,16.2c-1.2-0.7-2.6,0.2-3.8-0.6c3,0,6-0.4,8.9,0.6C172,16.2,170.3,16.2,168.6,16.2z"/>
		<path class="st3" d="M62.2,45.4c-0.1,2.2-0.6,4.2-2.3,5.7C60.6,49.3,61.4,47.4,62.2,45.4z"/>
		<path class="st11" d="M81.3,230.6c-1.5-1.6-0.9-3.6-1-5.4c0.1,0,0.1,0,0.2,0C80.7,226.9,81,228.7,81.3,230.6z"/>
		<path class="st12" d="M59.2,83.2c-2,0.4-4.2,0.3-6.2,1c1.2-1,2.7-1.2,4.2-1.1C57.9,83.1,58.5,83.1,59.2,83.2z"/>
		<path class="st14" d="M160.7,116.8c0.4,16.6-14.1,31.1-31.2,31c-16.6-0.2-31-14.4-30.7-31.5c0.3-16,14-30.8,31.6-30.5
			C146.7,86.1,161.1,100.1,160.7,116.8z"/>
		<path class="st15" d="M109.9,204.1c-2-3.6-4-7.3-6.1-10.9c-0.7-1.2-0.3-2.3,0-3.4c0.6-2.1,1.8-4,3.1-5.8c0.9-1.3,0.9-2-0.7-2.6
			c-0.2-0.1-0.5-0.3-0.9-0.6c3.5-1.3,6.9-2.4,10.2-3.6c0.6-0.2,0.7,0.2,0.8,0.6c1.3,3.7,2.7,7.5,4,11.4c-3.2-1.5-3.2-1.5-4.8,1.5
			c-0.6,1-1.1,2.1-1.7,3.1c-1.9,3.2-4.2,6.3-3.3,10.6C110.3,204.2,110.1,204.2,109.9,204.1z"/>
		<path class="st15" d="M157.9,193.3c-2.1,3.6-4.3,7.2-6.4,10.8c-1.2,1.9-3.2,1.8-5.1,2.1c-1.2,0.1-2.5,0-3.7,0
			c-2.6,0-2.6,0-2.7,2.7c-1.1-0.3-1.6-1.2-2.4-1.8c-1.8-1.5-3.6-3.1-5.4-4.7c-0.4-0.3-1-0.6-0.4-1.3c2.6-3,5.1-6,7.6-9
			c0.2,0.1,0.2,0.1,0.3,0.1c0.4,3.1,0.4,3.1,3.6,3.1c1.1,0,2.3,0,3.4,0c3.9-0.1,7.8,0.6,11.1-2.4C157.8,193,157.9,193.1,157.9,193.3
			z"/>
		<path class="st15" d="M124.5,157.2c4.3,0,8.6,0,12.8,0c1.3,0,2.1,1,2.9,1.9c1.2,1.4,2,3,2.9,4.6c1.3,2.4,1.3,2.4,3.7,1.2
			c0,2.5-0.7,4.8-1.2,7.1c-0.2,1.3,0.1,3.1-1,3.7c-0.9,0.5-2.5-0.2-3.7-0.5c-2.7-0.5-5.5-1-8.2-1.5c0-0.2,0-0.3,0-0.3
			c0.6-0.8,2.3-0.8,2.3-1.9c-0.1-1-0.9-1.9-1.5-2.8c-0.7-1.2-1.5-2.4-2.1-3.6C129.6,161.9,128.1,158.6,124.5,157.2z"/>
		<path class="st15" d="M129.4,163.6c-0.2,0.3-0.4,0.6-0.5,0.9c-2.4,3.6-4.8,7.3-7.1,10.9c-0.4,0.6-0.7,0.8-1.5,0.4
			c-2.5-1.5-5.1-2.9-7.7-4.3c-0.8-0.4-0.8-0.7-0.3-1.4c2.4-3.9,4.8-7.8,7.8-11.3c1.8-2.1,2-2.1,4.2-0.7c1.8,1.2,3.9,2.2,4.6,4.5
			C129.1,163,129.3,163.3,129.4,163.6z"/>
		<path class="st15" d="M151.4,194.2c-1.4,0.5-2.1-0.4-2.7-1.7c-1.7-3.6-3.5-7.1-5.3-10.6c-0.5-0.9-0.4-1.4,0.5-1.9
			c2.5-1.5,4.9-3,7.4-4.5c0.5-0.3,0.9-0.5,1.2,0.2c2.4,4.6,5,9.1,6.3,14.2c0.3,1.1,0.1,1.7-1,2.1
			C155.7,192.8,154.1,194.6,151.4,194.2z"/>
		<path class="st15" d="M128.4,202.8c0,1.5,0,2.9,0,4.4c0,0.8-0.2,1.1-1.1,1.1c-4.9-0.1-9.8-0.3-14.6-1.4c-1.3-0.3-1.8-0.9-1.7-2.3
			c0.2-2.4-0.1-4.9,1.5-7c0.5-0.6,0.8-0.9,1.6-0.9c4.3,0.3,8.7,0.5,13,0.7c0.7,0,1,0.3,1,1c0,1.5,0,2.9,0,4.4
			C128.3,202.7,128.3,202.7,128.4,202.8z"/>
		<path class="st16" d="M196.3,83.2c-2,0.1-2.1,1.5-2.3,3c-0.2,1.7,0.6,3.4,0.1,5.1c-0.2,0.9,1.3,0.5,1.5,1.3
			c-0.7-0.1-1.3-0.2-2-0.3c-0.9-0.1-1.1-0.7-1-1.4c0.4-1.8,0.5-3.6,0.7-5.5C193.7,83.2,193.8,83.1,196.3,83.2z"/>
		<path class="st17" d="M184.5,45.4c0.1,0.7-0.1,1.3-0.6,1.8c-0.4,0.4-0.6,0.9,0,1.3c0.5,0.4,0.8-0.1,1.1-0.4
			c0.4-0.4,0.5-1.3,1.2-0.8c0.7,0.5,0.1,1.2-0.1,1.7c-0.3,0.6-0.6,1,0.1,1.7c0.6,0.6,0,1.2-0.8,1.4c-0.5,0.1-1,0-1.5,0
			c-36.6,0-73.2,0-109.8,0c-0.6,0-1.3,0-1.8-0.2c-0.7-0.2-1.4-0.7-0.6-1.6c0.7-0.7,0.1-1.1-0.2-1.6c-0.3-0.5-0.6-1.1,0-1.5
			c0.7-0.4,0.8,0.3,1.1,0.6c0.3,0.4,0.6,1,1.2,0.6c0.6-0.5,0.3-1-0.1-1.4c-0.4-0.4-0.6-0.8-0.5-1.4c0.1,0,0.1,0,0.2,0
			c1.9,1.9,4.3,1.6,6.6,1.6c2.1,0,4.3,0.1,6.4,0.2c2.6,0.2,5.3,0.2,8-0.1c2.2-0.3,4.4-0.2,6.6,0.1c2.1,0.3,4.2,0.3,6.3,0
			c2.5-0.3,4.9-0.3,7.4,0c2.4,0.3,4.8,0.1,7.3-0.1c3.2-0.3,6.4,0.4,9.6,0c2-0.3,4,0,6.1,0.2c2.1,0.2,4.2,0.2,6.3-0.1
			c1.9-0.3,4-0.3,5.9,0c2.7,0.3,5.3,0.3,7.9,0c2.6-0.3,5.3,0.1,7.9,0.2c5.2,0.3,10.4-0.5,15.6-0.3c1,0,1.9-0.4,2.5-1.2
			C183.9,45.8,184,45.4,184.5,45.4z"/>
		<path class="st18" d="M184.5,45.4c-0.7,1.8-2,2.5-4,2.4c-4.9-0.3-9.7,0.4-14.6,0.3c-1.8,0-3.5-0.4-5.2-0.4c-2.8,0-5.6,0.5-8.4,0.4
			c-1.7-0.1-3.5-0.4-5.2-0.4c-2.8,0-5.5,0.6-8.3,0.4c-2.8-0.3-5.6-0.5-8.4-0.3c-4.4,0.3-8.8-0.3-13.1,0.3c-1.8,0.2-3.6-0.3-5.4-0.4
			c-2.2,0-4.4,0.4-6.6,0.3c-3,0-6.1-0.3-9.1-0.3c-2.8,0-5.5,0.5-8.3,0.3c-3.9-0.4-7.8-0.3-11.7-0.3c-1.5,0-2.3-1-3.1-2
			c-0.8-0.8-0.1-1.6,0-2.4c0.5-2.3,1.6-4.3,2.2-6.5c0.2-0.9,0.7-1.5,1.5-2c2.4-4.7,5.5-8.9,10.5-11.1c2.3-1,4.8-1.4,7.2-1.4
			c2.3-0.1,4.6,0.1,7,0c14.1-0.4,28.3-0.5,42.4-0.3c6.4,0.1,12.9,0.1,19.3,0.3c6.6,0.2,11.8,3.2,15.4,8.8c0.8,1.2,1.2,2.6,2.2,3.8
			c0.6,0.4,1.2,0.9,1.4,1.6c0.7,2.4,1.9,4.7,2.3,7.2C184.5,44.3,184.5,44.9,184.5,45.4z"/>
		<path class="st17" d="M76.8,34.9c-1.4,2.2-1.9,4.7-3,7c-0.2,0.5-0.3,1.1-0.7,1.5c0-0.9,0-1.8,0.4-2.6c0.4-0.8,0.4-1.6-0.1-2.4
			c-0.5-0.7-0.4-1.4,0.3-2.1C74.3,35.8,75.8,35,76.8,34.9z"/>
		<path class="st17" d="M184.5,43.7c-0.8-2.1-1.7-4.2-2.5-6.3c-0.3-0.9-0.7-1.8-1.3-2.5c0.1,0,0.2,0.1,0.3,0c1.9-1,2.2,0.8,3,1.7
			c0.5,0.5,0.4,1.1,0.1,1.7c-0.5,0.9-0.6,1.9,0,2.8C184.8,41.9,184.5,42.9,184.5,43.7z"/>
		<path class="st2" d="M158,117c0.4,15.2-12.6,28.1-28.2,28.1c-15.1,0-28.3-12.9-28-28.7c0.3-14.5,12.8-28,29-27.5
			C145.4,89.3,158.4,101.7,158,117z"/>
		<path class="st19" d="M172.2,47.5c-3.7,0.1-7.3-0.2-11-0.2c-2.9,0-5.8,0.5-8.6,0.2c-4.6-0.6-9.3,0.6-13.9,0c-3.7-0.5-7.3,0.4-11,0
			c-4.3-0.4-8.5,0.4-12.7,0c-4.7-0.4-9.4,0.3-14,0c-5.8-0.5-11.5,0.4-17.3,0.1c-2.4-0.1-4.8-0.2-7.2-0.3c-2.2-0.1-3.5-1.7-2.7-3.8
			c1.6-4.4,3.3-8.9,6.2-12.7c1.9-2.6,4.2-5.1,7.4-6.1c3.4-1,6.9-2.2,10.6-1.3c1.3,0.3,2.5-0.2,3.7-0.3c13.8-0.4,27.7-0.5,41.5-0.2
			c5,0.1,10-0.2,15,0.6c1.1,0.2,2.1-0.4,3.2-0.3c4.6,0.2,9.2,0.9,12.7,4c1.9,1.6,3.6,3.5,4.8,6c1.6,3.3,3.2,6.6,4.5,10
			c1,2.5,0,3.9-2.7,4.2C177.9,47.5,175.1,47.4,172.2,47.5z"/>
		<path class="st15" d="M123.5,116c2.7,0,5.3,0,8,0c0.7,0,1.5-0.2,1.6,0.8c0.2,0.8-0.3,1.2-1.1,1.3c-0.8,0.1-0.7,0.8-0.8,1.3
			c-0.8,5.7-1.6,11.3-2.4,17c-0.1,1-0.4,1.4-1.6,1.3c-2.6-0.3-5.2-0.3-7.8,0c-1,0.1-1.4,0-1.6-1.1c-0.8-5.7-1.6-11.4-2.4-17.1
			c-0.1-0.6,0-1.3-0.9-1.3c-0.8-0.1-1.1-0.6-0.9-1.3c0.1-0.7,0.7-0.7,1.3-0.7C117.8,116,120.7,116,123.5,116z"/>
		<path class="st15" d="M131.7,137.7c0.7-5,1.3-10.1,2-15.1c0.3-2.1,0.6-4.2,0.9-6.4c0.1-0.8,0.4-1.1,1.3-1.1c2.8,0,5.6-0.1,8.5-0.2
			c1.3-0.1,1.7,0.3,1.5,1.6c-0.6,5.1-1.1,10.2-1.6,15.3c-0.2,1.8-0.4,3.6-0.8,5.5c-1.2-4.3-2.4-8.6-3.7-13.4
			c-2.7,4.8-5.2,9.3-7.7,13.8C131.9,137.7,131.8,137.7,131.7,137.7z"/>
		<path class="st15" d="M145.8,114c-3.4,0.6-6.6,0.3-9.7,0.7c-0.9,0.1-1.3-0.3-1.5-1.1c-0.3-1.4-0.7-2.7-1-4.1
			c-0.2-0.9-0.6-1.3-1.5-1.6c-4-1.2-8-2.4-12-3.6c-0.5-0.2-1-0.3-1.6-0.5c0-0.2,0-0.4,0-0.6c4.4,0,8.8,0,13.1,0c2.5,0,5.1,0,7.6-0.1
			c0.6,0,1.2-0.1,1.6,0.6C142.6,107.2,144.2,110.5,145.8,114z"/>
		<path class="st15" d="M123.4,113.7c-0.9,0-1.5,0.1-1.9,0c-1.2-0.4-3.1-0.2-3.5-1.2c-0.6-1.4,0.2-3.2,0.3-4.8
			c0.1-0.7,0.6-0.4,0.9-0.2c2.4,1.7,5,1.8,7.8,1.6c0.8,0,1,0.3,0.9,1c-0.1,0.8-0.3,1.7-0.4,2.5c-0.1,0.6-0.4,0.8-1,0.9
			C125.2,113.5,124.1,113.7,123.4,113.7z"/>
		<path class="st15" d="M139.7,99.2c0,2.1-1.7,3.8-3.8,3.8c-2.1,0-3.8-1.7-3.8-3.8c0-2.2,1.6-3.7,3.8-3.7
			C138,95.4,139.7,97,139.7,99.2z"/>
		<path class="st20" d="M125.1,120.9c0.8-0.1,1,0.3,1,1c0,0.7-0.3,1-1,1c-0.9,0-1.1-0.4-1-1.1C124.1,121,124.5,120.8,125.1,120.9z"
			/>
		<path class="st21" d="M122.7,121.9c0.1,0.7-0.3,1-1,1c-0.9,0-1-0.4-1-1.1c0-0.8,0.4-0.9,1.1-0.9
			C122.5,120.9,122.8,121.2,122.7,121.9z"/>
		<path class="st22" d="M118.4,121.2c0.7-0.1,0.9,0.3,0.9,1c0,0.8-0.4,0.9-1,1c-0.9,0.1-1-0.5-1-1.1
			C117.2,121.1,117.9,121.2,118.4,121.2z"/>
		<path class="st23" d="M129.5,122.1c-0.1,0.4,0.1,1.2-0.8,1c-0.5-0.1-1.2,0-1.2-0.9c0-0.6,0-1.2,0.9-1.1
			C128.8,121.3,129.6,121.1,129.5,122.1z"/>
		<path class="st24" d="M118,118.1c0.7-0.1,1.1,0.2,1.1,1c0,0.9-0.7,0.7-1.2,0.8c-0.7,0.1-1-0.2-1-0.9
			C116.8,118.1,117.3,118.1,118,118.1z"/>
		<path class="st25" d="M121.9,126.2c-0.8,0.1-0.9-0.4-0.9-1c0-0.6,0.2-0.9,0.8-0.9c0.7,0,0.9,0.2,0.9,0.8
			C122.7,125.6,122.8,126.3,121.9,126.2z"/>
		<path class="st26" d="M128.7,119.8c-0.7,0-1-0.2-1-1c0.1-0.9,0.7-0.7,1.2-0.7c0.7-0.1,1,0.2,0.9,1
			C129.8,119.9,129.3,119.9,128.7,119.8z"/>
		<path class="st25" d="M124.9,124.3c0.7-0.1,1,0.2,0.9,1c0,0.5-0.1,1-0.8,1c-0.7,0-1-0.4-0.9-1
			C124.1,124.7,124.1,124.2,124.9,124.3z"/>
		<path class="st27" d="M129.1,125.2c-0.2,0.5-0.1,1.2-0.9,1.1c-0.5,0-1.1,0-1-0.8c0.1-0.5-0.1-1.3,0.8-1.1
			C128.4,124.6,129.1,124.4,129.1,125.2z"/>
		<path class="st28" d="M119.6,125.3c0.1,0.8-0.3,1-0.9,1c-0.9,0.1-0.8-0.5-0.9-1.1c-0.2-1,0.6-0.7,1.1-0.8
			C119.7,124.4,119.5,125,119.6,125.3z"/>
		<path class="st26" d="M125.6,119.6c-0.8-0.1-1.5,0.1-1.5-0.8c0-0.8,0.6-0.7,1.1-0.7c0.5,0,1.1-0.2,1.1,0.6
			C126.3,119.4,125.9,119.6,125.6,119.6z"/>
		<path class="st25" d="M119.8,128.7c0.1,0.6-0.1,0.9-0.7,1c-0.8,0.1-0.8-0.4-0.9-1c-0.1-0.6,0.1-1,0.8-1
			C119.9,127.7,119.6,128.3,119.8,128.7z"/>
		<path class="st29" d="M127.8,127.7c0.8,0,0.8,0.5,0.7,1c-0.1,0.5-0.2,1-0.9,0.9c-0.6-0.1-0.6-0.5-0.6-1
			C127.1,128.2,127,127.6,127.8,127.7z"/>
		<path class="st30" d="M122.7,131.7c0,0.6,0,1.1-0.7,1c-0.7-0.1-0.6-0.7-0.6-1.1c0-0.4,0.1-0.8,0.6-0.8
			C122.8,130.8,122.7,131.4,122.7,131.7z"/>
		<path class="st31" d="M124.5,132.7c-0.7-0.1-0.5-0.7-0.5-1.2c0-0.6,0.3-0.8,0.8-0.7c0.7,0.1,0.5,0.6,0.5,1.1
			C125.4,132.4,125.2,132.8,124.5,132.7z"/>
		<path class="st24" d="M121.8,119.5c-0.8,0.1-1.3,0-1.2-0.8c0-0.8,0.6-0.6,1.1-0.7c0.5,0,1,0,1,0.8
			C122.6,119.7,122,119.5,121.8,119.5z"/>
		<path class="st32" d="M124.8,129.4c-0.5,0-0.7-0.2-0.7-0.8c0-0.5,0-1,0.7-1c0.5,0,0.9,0.1,0.8,0.7
			C125.6,128.8,125.6,129.4,124.8,129.4z"/>
		<path class="st21" d="M127.4,132.9c-0.6,0-0.7-0.4-0.7-0.9c0-0.4-0.1-0.9,0.6-1c0.6,0,0.8,0.2,0.8,0.8
			C128,132.3,128.1,132.8,127.4,132.9z"/>
		<path class="st26" d="M122.7,128.5c0,0.5-0.1,0.9-0.7,0.9c-0.8,0-0.7-0.5-0.7-1c0-0.6,0.3-0.8,0.8-0.8
			C122.7,127.6,122.7,128.1,122.7,128.5z"/>
		<path class="st22" d="M119.3,131c0.6-0.1,0.7,0.4,0.7,0.9c0,0.5,0,1-0.6,1c-0.8,0-0.6-0.7-0.7-1.1
			C118.6,131.3,118.8,131,119.3,131z"/>
		<path class="st31" d="M127.2,136.2c-0.7,0-0.7-0.4-0.7-0.8c0-0.4,0-1,0.6-1c0.4,0,0.7,0.2,0.6,0.6
			C127.5,135.4,127.7,135.9,127.2,136.2z"/>
		<path class="st33" d="M122.2,134.2c0.6,0,0.6,0.5,0.5,0.9c0,0.4,0.2,0.9-0.4,1c-0.7,0.1-0.6-0.5-0.6-0.9
			C121.6,134.6,121.6,134.2,122.2,134.2z"/>
		<path class="st31" d="M125.1,135c-0.1,0.4,0.1,1-0.6,1c-0.5,0-0.5-0.5-0.5-0.9c0-0.4-0.1-0.9,0.5-0.9
			C125.1,134.1,125.1,134.6,125.1,135z"/>
		<path class="st21" d="M120.3,135.3c0,0.4,0.1,0.9-0.5,0.9c-0.7,0-0.5-0.6-0.6-1c0-0.4,0-0.8,0.6-0.8
			C120.3,134.4,120.3,134.9,120.3,135.3z"/>
	</g>
</g>
<g>
	<g>
		<path class="st34" d="M173.8,228c-0.6-1.9-2.2-1.4-3.3-1.1c-3.3,1-6.8,1.1-10.2,1.2c-17.7,0.6-35.4,0.6-53.2,0.4
			c-4.3,0-8.6-0.1-12.8-1c-1.3-0.3-2.6,0.4-3.9-0.3c-0.3-0.4-0.7-0.4-1.1-0.4c-3.4-0.1-6.7-0.2-10-0.9c-1.2-0.3-1.3,0.5-1.6,1.3
			c0,0.3-0.1,0.5-0.1,0.8c-0.2,0.2-0.4,0.1-0.5-0.2c-0.3-1.3-1.1-1.8-2.4-2.2c-1.2-0.3-1.6-1.4-1.8-2.5c-0.7-2.9-1-5.9-1.2-8.8
			c-0.1-1.9-0.6-3.7-0.7-5.6c-0.1-1.3-1.3-1.3-1.8-2.1c2.5-0.7,1.9-2.6,1.7-4.4c-0.4-4.9-0.8-9.9-1.2-14.8c-0.6-7.2-1-14.3-1.8-21.5
			c-0.6-5.7-0.5-11.4-1.3-17c-0.4-3.1-0.2-6.3-0.7-9.4c-1.1-7.2-0.9-14.5-1.7-21.8c-0.8-6.6-1-13.3-1.5-19.9c-0.1-1.4,0-2.9-0.9-4.1
			c-0.3-0.1-0.4-0.4-0.4-0.7c-0.1-3.3-0.6-6.7-0.6-10c0.6-0.9,0.4-1.9,0.4-2.9c0-1.9,0.2-3.8-0.1-5.7c0-1.7,0-3.4-0.1-5.1
			c-0.2-2.5,0.3-3.1,2.8-3c4.5,0.1,9.1,0.1,13.6,0c2.4,0,4.7,0.3,7.1,0.3c2.4,0,4.3,1.2,5,3.7c0.5,1.8,1.3,3.4,2.4,5
			c1,1.4,3.2,1.9,4.6,1.1c0.8-0.4,1-1.1,1-1.9c0-1.5,0.1-3,0.1-4.5c-0.1-2.8,0.7-3.6,3.5-3.7c6.5-0.3,13,0.1,19.5-0.2
			c4.9-0.2,9.8,0.2,14.7,0.2c7.1-0.1,14.2-0.5,21.4-0.4c1.6,0,3.2,0.2,4.8,0.4c1.4,0.1,2,0.9,2.1,2.3c0,1.4,0,2.9,0,4.3
			c0,0.7,0,1.4,0.2,2.1c0.4,1.8,1.6,2.2,3.1,1.2c1.8-1.3,3.4-2.9,4.2-5c1.3-3.5,4-4.6,7.4-4.9c2.6-0.2,5.3-0.5,7.9,0.1
			c0.6,0.1,1.1-0.1,1.7-0.2c0.8-0.2,1.7-0.5,2.5-0.5c2.5-0.1,3.1,0.6,3.2,3c0,1.5-0.2,3-0.5,4.4c-0.1,2.3-0.2,4.6-0.3,6.8
			c-0.1,3-0.1,3,2.8,3.2c0.1,0.9-0.7,0.7-1.1,0.8c-0.8,0.1-1.1,0.5-1.3,1.3c-0.3,2-0.3,4.1-0.4,6.2c-0.1,1.1,0.7,1.2,1.5,1.2
			c1.7,0.1,3.4,0,5.1,0c0.7,0,1.5-0.1,2.1,0.5c-2.5,0.7-5,0.3-7.5,0.2c-1.7,0-2.1,0.7-2.3,2.2c-0.7,7.1-1.6,14.1-2.3,21.2
			c-0.8,7.5-1.7,15.1-2.5,22.6c-0.8,6.7-1.7,13.3-2.3,20c-0.7,8.5-2.2,16.8-2.7,25.3c-0.2,3.5-0.9,7-1.3,10.5
			c-0.4,3.4-0.6,6.7-0.9,10.1c-0.1,0.7,0.5,1,0.8,1.4c-1.1,4.6-1.2,9.4-1.7,14.1c-0.2,1.4-0.2,2.7-0.4,4.1c-0.3,2-0.6,2.4-2.6,2.7
			C175.1,227.8,174.6,228.4,173.8,228z"/>
		<path class="st35" d="M193.2,73.2c-0.1-1.6,0.4-3.2,0.4-4.8c0-1.3-0.6-1.9-1.7-2.1c-0.5-0.1-1.1-0.2-1.5,0c-2.9,1.3-5.9,0-8.9,0.3
			c-2.5,0.3-5.2,0.1-7.5,1.5c-0.7,0.4-1.2,0.7-1.5,1.5c-1,2.6-2.4,4.8-4.5,6.6c-1,0.8-1.9,1.5-3.2,1.1c-1.4-0.5-1.4-1.8-1.4-2.9
			c-0.2-1.9-0.1-3.8,0-5.7c0.1-1.4-0.5-1.7-1.8-1.8c-5.5-0.6-10.9-0.4-16.4-0.2c-6,0.2-11.9,0.4-17.8,0.2c-6.1-0.2-12.2,0.3-18.3,0
			c-2.7-0.1-5.4,0-8,0c-2.3,0-2.7,0.4-2.7,2.7c0,1.8,0,3.6,0,5.5c0,0.8-0.2,1.3-0.9,1.7c-1.7,1.1-4.6,0.4-5.7-1.3
			c-1.1-1.6-1.8-3.3-2.4-5.1c-0.7-2.1-2.5-3.6-4.6-3.4c-1.5,0.2-2.9,0-4.4-0.1c-5.8-0.2-11.6,0.2-17.4-0.2c-1.5-0.1-1.4,1.5-1.6,2.6
			c-0.1-2.1-1.3-2.6-3.2-2.5c-2.6,0.1-5.3,0-7.9,0c-1.3,0-1.9-0.4-1.9-1.7c0-3.3,0-6.7,0-10c0-1.4,0.5-2.3,2.1-2.3
			c0.2,0,0.5-0.1,0.7,0c2.8,0.5,5-0.5,6.2-3.2c1.8,2.6,4.3,3,7.2,2.2c1-0.3,1.9-0.3,2.9-0.3c6.9,0.2,13.7,0,20.5-0.4
			c8.6-0.5,17.1,0.2,25.7,0.2c2.8,0,5.7,0.3,8.5-0.1c1.5-0.2,3-0.1,4.5,0.2c2.4,0.4,4.8,0.5,7.2,0.2c3.3-0.4,6.5,0.3,9.8,0.4
			c1.3,0,2.6,0.2,4,0.2c12.2-0.1,24.4,1,36.6,0.7c2.1,0,4.1,0.3,6.2,0c1-0.1,2.1,0,3.1,0.4c1.4,0.5,2.8,0.6,4.2,0.1c1,1,2.2,1,3.5,1
			c2.7,0,3.6,0.8,3.7,3.5c0.1,2.1,0,4.1,0,6.2c-0.1,1.7-1.1,2.7-2.8,2.7c-1.9,0-3.8,0-5.7,0c-1.5,0-2.3,0.6-2.1,2.1
			C194,70.4,193.8,71.8,193.2,73.2z"/>
		<path class="st36" d="M197.3,53.4c-0.7,1.6-2,1.2-3.1,0.9c-2.1-0.8-4.1-1.1-6.2-0.5c-1.3,0.3-2.6-0.3-3.9-0.3
			c-2.2,0-4.4-0.1-6.6,0c-6.3,0.2-12.5-0.2-18.8-0.5c-4.5-0.2-9.1,0-13.6-0.3c-3.3-0.2-6.6-0.8-9.9-0.6c-4,0.3-7.9-0.1-11.8-0.4
			c-1.8-0.2-3.6,0.2-5.4,0.6c-1,0.2-2,0.3-3-0.3c-0.5-0.4-1.1-0.2-1.7-0.2c-3.5,0-7,0-10.5,0c-3.2-0.1-6.5-0.5-9.7-0.3
			c-4.2,0.2-8.5,0.2-12.7,0.5C76,52.2,71.7,52,67.3,52c-1.2,0-2.4,0.1-3.7,0.5c-2,0.6-4.1,0.1-5.9-1.1C57,51,57.1,50.3,57,49.6
			c1.9-6.1,5.2-11.6,7.2-17.6c0.5-1.5,1.1-2.9,1.7-4.3c1.4-3.6,3.8-6.4,6.7-8.8c1.2-1.2,2.6-2,4.3-2.2c0.8-0.1,1.2-0.8,1.9-1.1
			c1.3-0.6,2.6-0.8,4-0.8c15.1-0.5,30.2-0.4,45.3-0.3c6.6,0,13.2,0.1,19.8,0.1c0.3,0,0.7,0,1,0.1c6.7,0,13.3-0.2,19.9,0.7
			c3.2,0.4,6.4,0.9,9.5,1.3c4.6,0.7,7.8,3.2,9.7,7.3c2.5,5.4,4.9,10.9,7,16.5C196.7,44.7,197.2,49,197.3,53.4z"/>
		<path class="st37" d="M69.3,206.7c1.7-0.2,2.1,0.6,2.4,2.3c0.7,4.8,0.7,9.7,1.8,14.4c0.3,1.3,0.9,2.1,2.3,2.1
			c1.8,0,1.5,1.5,1.9,2.5c0,0.1,0,0.2,0.1,0.3c0,3.4,1.1,6.6,1.3,9.9c0.1,1.8-0.4,3.5-1.6,4.9c-3.8,2-7.6,2.1-11.4,0.2
			c-1.9-0.9-2.3-3-2.6-4.8c-0.8-5.1-1.5-10.2-1.6-15.4c0-3.1-0.9-6.2-0.8-9.4c0.2-3.7,1.5-5.4,5-6.3
			C67.2,207.1,68.2,206.7,69.3,206.7z"/>
		<path class="st38" d="M173.8,228c0.5-0.5,1-0.9,1.8-0.8c1.7,0.3,2.2-0.8,2.4-2.2c0.4-3.6,0.7-7.2,1-10.8c0.2-2.2,0.5-4.3,0.6-6.5
			c0-0.7,0.4-0.9,0.9-1c1.7,0.2,3.5,0,5.2,0.7c2.6,1,4,2.6,4,5.3c0,3.7,0.3,7.4-0.3,11c-0.8,4.8-0.8,9.7-1.9,14.5
			c-0.6,4-1.8,5.1-5.9,6c-0.2,0-0.5,0.1-0.6,0.2c-2.7,0.1-5.4,0.3-7.3-1.9c-1.1-1.3-1.7-2.7-1.3-4.7
			C173.1,234.6,173.4,231.3,173.8,228z"/>
		<path class="st39" d="M201.5,93.2c-2.6,0-5.3-0.1-7.9,0c-1.2,0-1.5-0.5-1.4-1.6c0.2-2.1,0.5-4.2,0.5-6.3c0-1.5,0.5-2.1,2-1.9
			c0.3,0,0.7-0.1,1-0.2c2.7,0.1,5.5-0.2,8.2,0.7c2.5,0.9,3.3,2.1,2.7,4.7c-0.2,0.8,0.1,1.5-0.2,2.3
			C205.3,93.1,203.3,92.8,201.5,93.2z"/>
		<path class="st40" d="M61.2,83.1c0.4,3.4,0.9,6.7,0.7,10.2c-2.3,0.5-4.7,0.2-7,0.2c-1.6,0-3.2,0.1-4.7-0.6
			c-1.1-0.5-1.9-1.1-2.3-2.2c-0.9-3.1-0.6-6.4,3.3-7.1c0.2,0,0.4-0.1,0.5-0.1c1.7-0.2,3.3,0.1,5-0.2c1.3,0,2.6,0.7,3.9-0.1
			C60.8,82.9,61,82.9,61.2,83.1z"/>
		<path class="st41" d="M149,14.7c-5.2,0-10.3,0-15.5,0c-13.4,0-26.8-0.1-40.2,0.1c-4,0.1-8.2-0.4-12.2,0.6c-2.8,0.7-5.6,1.6-8,3.3
			c-0.1,0.1-0.3,0.1-0.5,0.1c1-1.4,2.3-2.3,3.9-2.5c1.3-0.2,2-1.5,3.5-1.7c4-0.5,7.9-0.2,11.9-0.3c12.3-0.5,24.6-0.3,36.9-0.2
			c6.3,0.1,12.7,0.3,19,0.3C148.2,14.4,148.6,14.4,149,14.7z"/>
		<path class="st42" d="M51.2,83.5c-0.3,0.5-0.9,0.5-1.3,0.7c-1.1,0.5-1.7,1.2-1.8,2.5c-0.1,1.3,0.1,2.6,0.2,3.9
			c0.1,1.6,2.6,2.3,4.6,2.5c3,0.2,6,0.1,9.1,0.2c0,0.2,0.1,0.3,0.1,0.5c-3.1,0-6.3,0.3-9.4,0c-4.7-0.5-6-3.1-5.5-7.5
			C47.2,85,49.7,83.5,51.2,83.5z"/>
		<path class="st43" d="M77.8,227.2c0-1.7,0.4-2.2,2-1.7c3,0.9,6,0.7,9,0.9c0.7,0,1.4-0.2,1.7,0.8c-3.8-0.1-7.5-0.2-11.2-0.9
			C78.3,226.1,78.2,226.8,77.8,227.2z"/>
		<path class="st43" d="M77.5,243c1.7-2.9,1.7-5.9,0.7-9c-0.6-1.9-0.6-3.8-0.4-5.8c0.5,3.9,1.9,7.7,1.4,11.8
			C79,241.2,78.7,242.4,77.5,243z"/>
		<path class="st44" d="M181.1,244.5c0.5-0.7,1.3-0.7,2-0.9c2.5-0.5,3.9-2.1,4.2-4.6c0-0.3,0.1-0.6,0.3-0.7
			C187.7,242,185.4,244.3,181.1,244.5z"/>
		<path class="st35" d="M61.2,83.1c-0.2,0-0.4,0-0.6,0c0.7-0.9,0.6-1.9,0.6-2.9c0-1.9,0-3.8,0-5.7C61.8,77.3,61.8,80.2,61.2,83.1z"
			/>
		<path class="st35" d="M56.7,83.2c-1.7,0.4-3.3,0.2-5,0.2C53.4,82.9,55.1,83,56.7,83.2z"/>
		<path class="st45" d="M160,118c0.8,16.9-13.8,32.9-34,31.5c-14.3-1-30.3-13-29-34.1c0.9-14.5,13.4-30.2,34.2-28.8
			C146.1,87.5,160.5,100,160,118z"/>
		<path class="st15" d="M123,159c4.4,0,8.8,0,13.2,0c1.3,0,2.1,1.1,2.9,2c1.3,1.6,2.3,3.4,3.2,5.3c0.7,1.5,1.4,2,2.8,0.8
			c0.2-0.1,0.4-0.1,0.9-0.3c-0.7,3.7-1.3,7.1-1.9,10.6c-0.1,0.5-0.4,0.7-0.9,0.6c-3.9-0.7-7.8-1.5-11.8-2.2c0-0.2,0-0.3,0.1-0.3
			c0.6-0.9,2.4-0.8,2.3-2c-0.1-0.9-0.9-1.8-1.4-2.7c-0.6-1.1-1.3-2.2-1.9-3.3C128.5,164.3,127,160.6,123,159z"/>
		<path class="st15" d="M108.4,207.1c-2.2-4-4.3-7.8-6.4-11.7c-0.6-1.1-0.2-2.1,0.1-3.2c0.7-2.2,1.9-4.2,3.2-6.1
			c0.9-1.3,0.7-2-0.7-2.5c-0.3-0.1-0.5-0.3-1-0.7c2.9-1,5.5-1.9,8.1-2.9c2.9-1,2.9-1,3.9,1.8c1.1,3.1,2.2,6.2,3.3,9.2
			c-0.1,0.1-0.2,0.2-0.3,0.1c-2.8-1.5-2.8-1.5-4.4,1.3c-0.9,1.7-1.8,3.3-2.8,5c-1.6,2.6-3.1,5.1-2.7,8.3
			C108.8,206.2,108.6,206.5,108.4,207.1z"/>
		<path class="st15" d="M138.5,194.2c0.2,3.6,0.2,3.6,3.5,3.6c1.3,0,2.5,0,3.8,0c3.9,0,7.9,0.5,11.2-2.5c0.1,0.1,0.2,0.3,0.2,0.4
			c-1.4,2.3-2.7,4.6-4.1,6.8c-0.5,0.9-1.2,1.7-1.6,2.7c-1.2,2.8-3.5,3.5-6.2,3.6c-1.5,0-3,0.1-4.5,0c-1.5-0.1-2.2,0.3-1.9,1.9
			c0,0.2,0,0.5-0.1,1.1c-2.9-2.5-5.6-4.8-8.2-7.2c-0.4-0.3-0.4-0.6-0.1-1C133.1,200.6,135.7,197.5,138.5,194.2z"/>
		<path class="st15" d="M128.2,165.6c-0.2,0.3-0.4,0.7-0.6,1c-2.4,3.7-4.8,7.3-7.2,11c-0.5,0.7-0.8,0.9-1.6,0.4
			c-2.5-1.5-5-2.8-7.5-4.2c-0.8-0.4-1.1-0.7-0.5-1.7c2.4-4,4.9-7.9,7.9-11.5c1.7-2,2-2,4.2-0.6c1.9,1.2,3.9,2.2,4.8,4.5
			C127.8,164.9,128,165.2,128.2,165.6z"/>
		<path class="st15" d="M150.6,196.7c-1.4,0.4-2.1-0.3-2.7-1.6c-1.7-3.6-3.6-7.2-5.4-10.8c-0.5-1-0.4-1.5,0.5-2.1
			c2.5-1.4,4.9-2.9,7.4-4.5c0.6-0.4,1-0.5,1.4,0.3c2.4,4.4,4.7,8.8,6.2,13.6c0.5,1.5,0.3,2.5-1.4,3
			C154.6,195.4,153,197.2,150.6,196.7z"/>
		<path class="st15" d="M123.3,211c-3.8-0.2-7.7-0.4-11.5-1.3c-1.7-0.4-2.5-1-2.3-3c0.3-2.3,0-4.6,1.5-6.6c0.5-0.6,0.8-1,1.6-0.9
			c4.4,0.3,8.8,0.5,13.3,0.7c0.8,0,1,0.4,1,1.1c0.1,2.8,0.1,5.6,0.3,8.4c0.1,1.4-0.4,1.7-1.7,1.6C124.8,210.9,124.1,211,123.3,211z"
			/>
		<path class="st46" d="M131.7,21.7c9.7,0,17-0.2,24.2,0.1c5.8,0.3,11.7,0.1,17.5,1.2c3.2,0.6,5.3,2.7,6.9,5.2
			c2.7,4.2,3.9,9.1,5.6,13.8c0.2,0.6,0.5,1.2,0.8,1.7c1.1,2.4,0.2,3.9-2.4,3.9c-9,0.1-17.9,0.3-26.9,0.4c-15,0.2-30,0.4-45.1,0.1
			c-8.7-0.1-17.5,0-26.2-0.3c-3.6-0.1-7.2-0.2-10.9-0.3c-4.7-0.1-6.2-2.2-4.4-6.5c1.7-3.9,3.4-7.7,6-11.1c3.6-4.7,8-7.5,14.2-7.7
			c6-0.2,12,0.1,17.9-0.3C117.3,21.4,125.7,21.8,131.7,21.7z"/>
		<path class="st34" d="M128.7,146.7c-14.4,1.2-30.2-12.6-28.7-31.2c1-12.1,12.6-27.5,31.4-25.9c11.9,1,27.5,12.2,25.8,31.7
			C156.3,133.6,144.2,147.7,128.7,146.7z"/>
		<path class="st15" d="M122.2,117.2c2.8,0,5.5,0,8.3,0c0.6,0,1.3,0,1.5,0.8c0.1,0.8-0.3,1.2-1,1.3c-0.8,0.1-0.8,0.7-0.9,1.2
			c-0.8,5.8-1.7,11.6-2.4,17.4c-0.1,1.1-0.5,1.4-1.6,1.2c-2.7-0.3-5.4-0.3-8.1,0c-0.9,0.1-1.2-0.1-1.3-1c-0.8-5.7-1.6-11.5-2.4-17.2
			c-0.1-0.8,0-1.6-1.2-1.7c-0.6,0-0.8-0.6-0.8-1.2c0.1-0.7,0.6-0.9,1.3-0.9C116.3,117.2,119.2,117.2,122.2,117.2z"/>
		<path class="st15" d="M130.5,139.2c0.4-3.2,0.8-6.3,1.2-9.5c0.5-4,1.2-8.1,1.6-12.1c0.1-1.1,0.5-1.4,1.6-1.4
			c2.8,0,5.6-0.1,8.4-0.2c1.3-0.1,1.6,0.4,1.5,1.6c-0.6,5.2-1.1,10.5-1.6,15.7c-0.2,1.8-0.4,3.6-0.8,5.5c-1.2-4.4-2.4-8.8-3.8-13.6
			c-2.8,5-5.3,9.5-7.9,14.1C130.7,139.3,130.6,139.2,130.5,139.2z"/>
		<path class="st15" d="M144.8,115.2c-3.5,0.6-6.8,0.3-10,0.7c-0.8,0.1-1.2-0.2-1.3-1c0-0.2-0.1-0.3-0.1-0.5
			c-0.1-4.2-2.6-6.1-6.6-6.8c-3.2-0.6-6.3-1.8-9.4-2.8c-0.1,0-0.2-0.1-0.2-0.7c4.4,0,8.7,0,13.1,0c2.7,0,5.4,0,8.1-0.1
			c0.7,0,1.2,0,1.6,0.8C141.5,108.3,143.1,111.6,144.8,115.2z"/>
		<path class="st15" d="M121.5,114.9c-1.5,0.3-2.9-0.5-4.5-0.8c-0.3-0.1-0.7-0.3-0.7-0.4c0.1-1.7,0.3-3.4,0.6-5.1
			c0.1-0.5,0.7-0.1,1,0.1c2.2,1.6,4.7,1.7,7.2,1.5c1.1-0.1,1.5,0.3,1.3,1.5c-0.5,2.9-0.4,2.9-3.4,3.2
			C122.6,114.9,122.2,114.9,121.5,114.9z"/>
		<path class="st15" d="M134.9,103.9c-2.2,0-3.9-1.6-3.9-3.7c0-2.2,1.5-3.9,3.7-3.9c2.2-0.1,3.9,1.5,3.9,3.7
			C138.6,102.1,137,103.9,134.9,103.9z"/>
		<path class="st47" d="M123.8,124.2c-0.7,0.1-1.1-0.1-1.1-0.9c0-0.8,0.2-1.1,1.1-1.1c0.7,0,1,0.3,1,1
			C124.7,123.9,124.6,124.3,123.8,124.2z"/>
		<path class="st48" d="M121.3,123.2c0.1,0.9-0.4,1-1,1c-0.9,0-1-0.5-1-1.2c0-0.9,0.5-0.8,1.1-0.9
			C121.2,122.2,121.4,122.6,121.3,123.2z"/>
		<path class="st49" d="M116.7,124.5c-0.8,0-0.9-0.6-0.9-1.2c-0.1-0.9,0.6-0.8,1.1-0.8c0.8-0.1,0.9,0.4,0.9,1.1
			C117.9,124.4,117.3,124.4,116.7,124.5z"/>
		<path class="st50" d="M128.2,123.4c-0.1,0.5,0,1.2-0.9,1.1c-0.5-0.1-1.2-0.1-1.1-0.9c0-0.7,0.2-1.1,1-1
			C127.7,122.5,128.3,122.4,128.2,123.4z"/>
		<path class="st51" d="M116.7,121c-1,0.2-1.3-0.2-1.3-0.9c0-0.8,0.4-0.8,1-0.8c0.7-0.1,1.2,0.1,1.3,1
			C117.7,121.3,116.9,121,116.7,121z"/>
		<path class="st47" d="M120.5,125.6c0.8-0.1,0.8,0.5,0.8,1c0,0.7-0.2,1.1-0.9,1c-0.9,0-0.8-0.7-0.8-1.2
			C119.5,125.7,120,125.6,120.5,125.6z"/>
		<path class="st52" d="M127.4,121.1c-0.7,0-1.1-0.2-1-1c0.1-0.9,0.7-0.7,1.3-0.7c0.7-0.1,0.9,0.3,0.9,0.9
			C128.6,121.1,128.1,121.2,127.4,121.1z"/>
		<path class="st53" d="M127.8,126.6c-0.2,0.6-0.2,1.2-1,1.1c-0.6,0-1-0.2-1-0.9c0.1-0.6,0-1.2,0.9-1
			C127.2,125.9,127.8,125.8,127.8,126.6z"/>
		<path class="st47" d="M123.6,125.6c0.7,0,1,0.3,0.9,1c0,0.5-0.1,1-0.8,1c-0.8,0-1-0.4-1-1.1C122.7,125.9,122.9,125.5,123.6,125.6z
			"/>
		<path class="st54" d="M118.2,126.8c0.1,0.5-0.1,0.8-0.8,0.9c-0.9,0.1-0.9-0.5-1-1c-0.2-0.9,0.4-0.7,0.9-0.8
			C118,125.7,118.1,126.2,118.2,126.8z"/>
		<path class="st52" d="M123.9,120.8c-0.5,0-1.1,0.1-1.1-0.7c0-0.9,0.6-0.8,1.2-0.8c0.5,0,1.1-0.1,1,0.7
			C124.9,120.8,124.5,120.9,123.9,120.8z"/>
		<path class="st55" d="M118.4,130.2c0.1,0.6-0.2,0.8-0.7,0.9c-0.9,0.1-0.8-0.6-0.9-1.1c-0.1-0.5,0.1-0.9,0.7-0.9
			C118.4,129,118.2,129.7,118.4,130.2z"/>
		<path class="st56" d="M124.3,129.8c0,0.4-0.1,1-0.8,1c-0.6,0-0.8-0.2-0.8-0.8c0-0.5,0-1,0.7-1C124,129,124.4,129.1,124.3,129.8z"
			/>
		<path class="st57" d="M126.4,131.1c-0.8-0.1-0.7-0.6-0.7-1.1c0-0.5,0.2-0.9,0.8-0.8c0.8,0.1,0.7,0.6,0.6,1.1
			C127.1,130.7,127,131.1,126.4,131.1z"/>
		<path class="st58" d="M123.2,134.2c-0.7-0.1-0.5-0.7-0.5-1.2c0-0.6,0.3-0.8,0.9-0.7c0.7,0.1,0.5,0.7,0.5,1.1
			C124.1,133.9,123.9,134.3,123.2,134.2z"/>
		<path class="st54" d="M120.3,119.3c0.5,0,1,0,1,0.8c0,0.8-0.6,0.7-1.1,0.7c-0.6,0-1,0-1-0.8C119.2,119.2,119.8,119.4,120.3,119.3z
			"/>
		<path class="st59" d="M120.6,132.3c0.6,0,0.8,0.4,0.7,0.9c0,0.4,0.1,1-0.5,1.1c-0.7,0.1-0.8-0.4-0.8-1
			C119.9,132.8,119.9,132.3,120.6,132.3z"/>
		<path class="st47" d="M126.2,134.4c-0.5,0-0.8-0.3-0.8-0.7c0-0.5-0.2-1.1,0.6-1.2c0.5,0,0.8,0.2,0.7,0.7
			C126.7,133.7,126.8,134.2,126.2,134.4z"/>
		<path class="st52" d="M120.6,129c0.7,0,0.7,0.5,0.7,1c0,0.6-0.2,0.9-0.8,0.8c-0.7,0-0.6-0.5-0.7-1C119.8,129.3,120,129,120.6,129z
			"/>
		<path class="st60" d="M117.9,134.4c-0.7-0.1-0.5-0.7-0.7-1.2c-0.1-0.5,0.1-0.7,0.6-0.7c0.7,0,0.7,0.4,0.7,0.9
			C118.6,133.9,118.6,134.3,117.9,134.4z"/>
		<path class="st61" d="M126.4,136.4c-0.3,0.4,0.1,1.2-0.7,1.3c-0.5,0.1-0.6-0.3-0.5-0.7c0-0.5-0.1-1.1,0.6-1.2
			C126.2,135.7,126.3,136.1,126.4,136.4z"/>
		<path class="st62" d="M121.3,136.6c-0.1,0.4,0.1,0.9-0.5,0.9c-0.6,0-0.6-0.6-0.6-1c0-0.4,0-0.8,0.6-0.8
			C121.4,135.7,121.3,136.2,121.3,136.6z"/>
		<path class="st58" d="M123.2,135.7c0.6,0,0.6,0.5,0.5,0.9c0,0.4,0.1,0.9-0.4,1c-0.7,0.1-0.6-0.5-0.6-0.9
			C122.7,136.2,122.6,135.7,123.2,135.7z"/>
		<path class="st63" d="M118.9,136.8c0,0.4,0,0.9-0.6,0.8c-0.6-0.1-0.5-0.6-0.5-1c0-0.4,0-0.9,0.6-0.8
			C118.9,135.9,118.8,136.5,118.9,136.8z"/>
	</g>
</g>
</svg>
