<?xml version="1.0" encoding="utf-8"?>
<!-- Generator: Adobe Illustrator 20.0.0, SVG Export Plug-In . SVG Version: 6.00 Build 0)  -->
<svg version="1.1" id="Layer_1" xmlns="http://www.w3.org/2000/svg" xmlns:xlink="http://www.w3.org/1999/xlink" x="0px" y="0px"
	 viewBox="0 0 250 250" style="enable-background:new 0 0 250 250;" xml:space="preserve">
<style type="text/css">
	.st0{fill:#86BD45;}
	.st1{fill:#85BD43;}
	.st2{fill:#8CBE47;}
	.st3{fill:#83BE43;}
	.st4{fill:#85BA51;}
	.st5{fill:#8FBE5B;}
	.st6{fill:#84BD41;}
	.st7{fill:#83B65B;}
	.st8{fill:#8DB257;}
	.st9{fill:#90C855;}
	.st10{fill:#639640;}
	.st11{fill:#B3D78A;}
	.st12{fill:#639C42;}
	.st13{fill:#7FC342;}
	.st14{fill:#DFEDC3;}
	.st15{fill:#E6F1D5;}
	.st16{fill:#E6EEB8;}
	.st17{fill:#FCECD3;}
	.st18{fill:#F9F0DE;}
	.st19{fill:#E8F2D8;}
</style>
<g>
	<g>
		<path class="st0" d="M113.2,74.6c2.4,5,4.6,10.3,3.9,15.8c-0.6,4.5,0.9,7.2,4.9,8.4c7.2,2.1,12.6,7.2,18.9,10.9
			c3.2,1.9,3.8,5.7,4.6,9.2c1.1,2.1-0.6,2.8-1.9,3.6c-4.2,1.2-7.5,4.1-11.2,6.3c-9.6,5.8-20,8.9-31.1,10.1c-3.5,0.4-5-1.8-5-5
			c-0.1-5.3-0.4-10.5,0.3-15.8c0.2-1.8,0.4-3.4-2.2-2.8c-3-0.8-3.3-3.5-3.8-5.9c-0.5-2.6,0.1-5.3-0.7-7.9l-0.1,0
			c0-2.1-2.3-5.2,1.1-5.9c2.6-0.6,4.3,2.1,5.2,4.6c0.3,0.8,0,1.9,1.1,2.8c1.6-1.6,2.2-3.8,2.4-5.9c0.7-6.8,4.9-12.3,7.2-18.4
			c0.4-1.2,1.4-2.1,2.4-2.9C110.4,75.1,111.5,73.9,113.2,74.6z"/>
		<path class="st1" d="M165.4,185.9c2.8,11.3,7.7,21.8,11,32.9c1,3.4,0.3,6-2.5,8c-8.8,6.2-17.7,12.5-28.5,14.8
			c-1.7-2.4-0.1-3.9,1.5-5.4c6.3-3.3,12.9-6,19.1-9.6c1.2-0.7,3.4-1.3,2.9-3.3c-0.4-1.5-2.3-1.4-3.7-1.6
			c-10.7-1.9-21.2-1.3-31.4,2.8c-2.1,0.9-4.3,2.3-6.8,1.1c-3.6-2.6-4.8-5-2.2-9.8c4.5-8.2,3.9-8.5,13.1-8.5c2,0,3.7-0.8,5.4-1.6
			c4.1-1.8,8-4,12.3-5.2c3.8-1,5.8-2.9,5.9-6.9c0-1.1,0.4-2.2,0.6-3.3c0.2-1.4,0.1-2.8,0.6-4.1C163.5,184.8,164.3,184.2,165.4,185.9
			z"/>
		<path class="st2" d="M113.2,74.6c-1.1,0.7-2.2,1.4-3.2,2.1c-3.4-1.3-7.3,0.5-7.8,3.8c-1,5.5-3,7-7.9,5.8c-1.1-2.5-0.9-5.7-3.6-7.3
			c-1.4-1.9-1.4-4.4-1.3-6.5c0.3-6.5-1.9-12.7-2.6-19c0.1-2.2,0.1-4.3-1.2-6.2c0.1-7.5,7.7-13.9,15-12.7c-6,5.5-3,10.7,0.3,16.2
			C105.4,58.4,110.2,66,113.2,74.6z"/>
		<path class="st3" d="M100.4,34.5c-6.4,0.4-10.5,4.1-13.7,9.3c-0.6,1-0.8,2-0.8,3.2c-0.5,0.8-1.4,1.1-2.2,1.4
			c-2.1,0.9-0.8,4.1-3.2,4.8c-2.3-0.2-2-2-2.2-3.5c-0.5-4.9-1.6-5.8-6.6-6.1c-2.5-0.2-5.2,0.3-6.8-2.3c-1.7-1.8-2.2-4.3-3-6.5
			c-0.9-3.3,1.7-3,3.4-3c5.7-0.1,11.4-0.7,16.9-2.4c1.8-0.5,3.7-0.9,5.4-1.8c1.2-0.6,1-1.4,0.3-2.3c0.4-1.8-1.2-2.4-2.1-3.4
			c4.5-2,9.7-2.8,13.3,0.4C102.5,25.2,102.9,30.1,100.4,34.5z"/>
		<path class="st4" d="M89.9,101.6c1.4,2.7,1,5.9,2,8.6c0.7,1.7,0.5,3.9,2.7,4.8c1.9,2.1,0.6,4.2-0.2,6.2c-1.8,4.5-4.4,8.9-2,14
			c0.4,0.9,0.3,2.4-0.5,2.6c-4.8,1.2-4,5.1-4.4,8.5c-2.3,0.8-3.3,2.4-3.1,4.9c0.1,1.8,0.4,3.8-1.3,5.2c-4.5-8.6-5.4-18.4-9.3-27.2
			c-0.9-2,0.4-3.6,1.7-5.1c3.5-4.3,7.9-7.6,11.3-12.2C89,108.6,90.5,105.6,89.9,101.6z"/>
		<path class="st1" d="M106.9,234.2c-2.8-9-5.7-18-8.5-27c-0.6-3.3-1.4-6.7,3.5-7.3c2.2,1.3,2.7,3.5,3.3,5.8
			c0.6,5.5,3.7,7.7,9.1,6.4c2.5-0.6,3.8,1.1,2.8,4.1c-0.5,1.4-1.6,2.2,1,2.2c1.2,0,1.6,1.7,1.3,2.7c-1.7,4.9,1,6.8,5.1,8
			c-1,3-4.6,2.6-6.3,4.7c-2.1,0.7-4.1,3-6.4,0.4c-1.6-1.8-0.9-4.7-3.3-6.4C106.7,229.7,109.4,232.7,106.9,234.2z"/>
		<path class="st1" d="M83,156.5c0-2.9-0.1-5.9,0.2-8.8c0.3-3.3,1.8-3.2,3.7-1c1.1,0.7,1.4,1.9,1.8,3c0.5,1.7,0.7,3.5,0.2,5.1
			c-0.8,2.6,0.2,4.1,2.3,5.3c3.7,8.9,5.9,18.3,8.3,27.5c-1,4.7-1.6,5.2-6,4.2c-4.9-9.8-7.4-20.4-9.6-31.1
			C83.6,159.2,83.3,157.9,83,156.5z"/>
		<path class="st5" d="M94.6,86.2c5.8-1.1,6.4-1.9,6-8.2c-0.1-1.7,0.2-2.2,2-2.2c6.4-0.1,7.2-0.2,7.3,0.7c-4,6.6-8,13.2-8.8,21.1
			c-0.1,1-0.8,2-1.3,3c-0.8,1.7,0,4.8-3.1,4.4c-2.9-0.4-1.5-2.7-1.5-4.5c-0.1-2-2-3.1-3.6-4.2c-1.1-0.8-1.7,0.2-1.7,1.3
			c-0.1,1.3,0,2.5,0,3.8c-1.3-2.9-2.7-5.7-4-8.6c1.4-0.4,2.2-1.6,3.5-2.1c2.1,0.7,2.9,2.8,4.4,3.8c-0.6-2.7-2.5-5.5-0.9-8.7
			C93.4,85.7,94.1,85.7,94.6,86.2z"/>
		<path class="st6" d="M106.9,234.2c0.3-1.8,0-3.4-0.6-5.1c-0.4-1.2-0.3-2.6,1-3.3c1.5-0.8,2.3,0.6,3,1.5c0.6,0.7,1.2,1.7,1.2,2.5
			c-0.2,5.4,2.5,5,6,3.1c-1.5,4.1,0.4,4.7,4.1,4.7c6.7,0.1,13.3,0,19.8-1.4c2-0.4,4-1.2,5.8,0.6c-0.9,1.5-2.3,2.8-1.9,4.8
			c-10.2,3.2-20.4,2.6-30.6,0.4C111,241.2,107.6,238.7,106.9,234.2z"/>
		<path class="st7" d="M88.9,91c-0.2,2-1,3-3.1,2c-3.4-5.5-5.1-11.3-6-17.8c-1.2-8.8-1.5-17.6-2.4-26.4c-0.4-3.7-3-3.6-5.6-3.5
			c-3.2,0.1-6.2,0-6.9-4.1c2.2,1.3,4.6,0.9,7,1c5.6,0.1,7,1.4,7.4,6.8c0.1,1.5-0.5,3.4,1.9,3.7c1.4,1.2,1.4,2.8,1.3,4.4
			c-0.2,5.2,1,10.3,1.3,15.5c0.3,0.7,0.7,1.4,0.9,2.1c0.4,1.2,0.5,2.4,0.5,3.6c-0.5,4.5,1.6,8.2,3.6,12C88.9,90.5,88.9,90.7,88.9,91
			z"/>
		<path class="st8" d="M165.4,185.9c-4.1,0.3-0.7,3.4-1.8,4.8c-0.5,0.3-0.9,0.3-1.3-0.2c-3.3-10.1-6.7-20.2-9.1-30.5
			c0-0.5,0.1-0.9,0.2-1.3c0.8-1.3,2.4-1.5,3.5-2.5C160.3,166,162.8,176,165.4,185.9z"/>
		<path class="st9" d="M87.9,24.9c1.1,0.3,3-0.7,3.3,0.9c0.4,1.6-1.2,2.5-2.6,2.8c-6.3,1.7-12.5,4.2-19.3,4c-2.5-0.1-5.7-1.4-7.4,2
			c-2.2-5.9,2.8-5.5,5.9-6.8c5.3,1.3,10.2-0.9,15.1-2.2C84.6,25.2,86,24,87.9,24.9z"/>
		<path class="st10" d="M87.9,24.9c-4.3,2.5-9.1,3.5-13.9,4.4c-2,0.4-4.8,2-6.1-1.4c6-1.9,11.3-6,18-6c1.4,0.1,2.7,0.2,4.1,0.3
			C90.3,24,88.3,23.8,87.9,24.9z"/>
		<path class="st4" d="M93.5,191.7c3.3,0,5.4-1.2,5-4.9c3.3,2.8,5.2,9.5,3.8,13.5c-3.9,0.8-3.7,3.9-3.9,6.8
			C96.8,202,95.1,196.9,93.5,191.7z"/>
		<path class="st0" d="M148.3,127.5c1.9,5.3,3.6,10.7,4.8,16.2c0,2.2-1.5,1.7-2.8,1.6c-4.5-3.9-4.1-9.4-4.7-14.6
			C146.1,129.3,146.1,127.4,148.3,127.5z"/>
		<path class="st0" d="M156.9,156.2c0.2,2.4-0.7,3.2-2.9,2c-2.4-0.3-1.9-2.3-2.1-3.8c0.3-2.3-0.7-5.2,3-5.7
			C155.5,151.2,156.2,153.7,156.9,156.2z"/>
		<path class="st8" d="M148.3,127.5c-0.7,1-1.3,1.9-2,2.9c-3.4-2-3.4-5.2-2.9-8.6c0.6-1,2-1.5,1.9-2.9
			C147.1,121.5,147.6,124.5,148.3,127.5z"/>
		<path class="st8" d="M154.8,148.6c-2.5,1.3-1.5,3.7-1.8,5.7c-3.2-2.6-3.5-5.9-2.8-9.6c1.1,0,2.2,0.1,2.9-1
			C154.4,145.1,154.2,147,154.8,148.6z"/>
		<path class="st11" d="M150.2,144.7c0.9,3.2,1.9,6.4,2.8,9.6c0.2,1.3-0.4,2.8,0.9,3.8c0,0.3,0,0.7,0,1c-0.4,0.3-0.9,0.4-1.4,0.3
			c-3.5-3.3-2.9-8.2-4.5-12.3c-2.2-5.4-3.3-11.3-4.8-17c-1.3-4.8-2.2-5.3-6.1-2.6c-8.4,5.8-17.9,8.9-27.5,11.8
			c-3.7,1.1-7.5,0.9-11.3,0.4c-0.5-0.1-0.9-0.4-1.3-0.6c-2-1.9-2.7-4.2-2.2-6.9c0.5-2.5-0.1-5-0.4-7.7c-1.6,3.1-2.3,5.9-1,9.2
			c0.8,1.9,0.8,4-0.3,6c-3.6,1-4.6,3.2-2.9,6.6c1,3.4,1.2,6.9,2.3,10.2c0.2,0.4,0.4,0.9,0.5,1.3c2.6,6.8,3.8,14,6.3,20.9
			c0.3,4.5,2.3,8.6,3.4,12.8c0.2,0.4,0.3,0.9,0.5,1.3c0.9,4,2.5,7.8,3.6,11.8c0.1,0.5,0.3,0.9,0.3,1.4c0,1.4,1,2.8-0.4,4.1
			c-3.5,0.1-1.2-3.1-2.5-4.3c-0.6-1.9-1.3-3.8-1.9-5.7c-0.2-4.8-2.3-9.1-3.8-13.5c-2.6-8.9-5.2-17.8-7.7-26.7
			c-3.4-2.8-1.4-7.1-2.9-10.4c-1.1-0.7-0.8-1.9-1-3c-0.1-1.3-0.1-2.6-0.5-3.7c-0.8-2.8-0.5-4.8,3-4.9c1.9-0.1,2.9-1,1.8-2.7
			c-3.1-5.2,0-9.5,1.7-14c0.8-2.1,1.9-4,1.7-6.4c0.7-0.9,0.8-2.9,2.5-2.4c1.7,0.5,1.5,2.4,1.2,3.7c-1.3,5.7-0.4,11.5-0.8,17.2
			c-0.2,3.6,1.2,4.4,4.9,4.1c7.6-0.6,14.4-3.8,21.5-5.8c5.4-1.5,9.6-5.5,14.3-8.4c1.7-1.1,3.2-1.9,5.2-1.6c1.4,2.7,0.9,6,2.9,8.6
			C147.3,135.2,147.6,140.3,150.2,144.7z"/>
		<path class="st12" d="M147.3,236.8c-7.2,0.5-14.2,2.8-21.6,2.2c-2.7-0.2-5.4-0.1-8-0.3c-1.2-0.1-2.8,0.6-3.4-0.8
			c-0.5-1.4,1.1-2,1.9-3c0.5-0.6,0.9-1.3,1.4-1.9c1.6-2.4,4.4-2.7,6.8-3.8c0-2,0-4,2.9-3.8c5.2-0.7,9.8-3.5,14.9-4.7
			c8.8-2,17.3-1.2,26,0.3c1.4,0.2,3.5,0.7,3.7,2.5c0.2,1.7-1.8,2-2.9,2.8C162.2,230.7,154.9,234.1,147.3,236.8z"/>
		<path class="st4" d="M127.2,225.3c-2,0.5-1.5,2.9-2.9,3.8c-7.2-0.1-7.2-0.1-6-7.3c0.3-1.9,0.5-3.9-2.2-1.5
			c-0.6,0.6-1.1,0.5-1.5-0.2c-0.7-1-1-2.1,0.2-2.9c1.9-1.3,2.5-2.7,0.9-4.6c-1.9-0.1-1.8,4.2-3.8,2.2c-2.7-2.7-9.6-2.1-7.7-8.8
			c1.5,0.9,0.1,3.9,2.8,3.9c2.9-1.1,5.8-1.5,8.8-0.5c0.7,0.3,1.6,0.7,2.3,0.3c8.4-3.8,17.9-4.1,26.3-8c5.2-2.4,10.2-5,14.1-9.5
			c0.8-1,1.6-1.8,2.9-2.1c0.5,0,0.9,0.2,1.3,0.5c0.3,0,0.5,0,0.8,0c-0.9,1.6-1,3.3-0.9,5.1c0.1,2.6-1.5,4.8-3.6,5
			c-4.5,0.5-7.9,3.2-12,4.5c-4.2,1.5-7.8,4.2-13,2.9c-3.1-0.7-6.6,0.7-7.3,6C126.3,218.2,123.2,221.7,127.2,225.3z"/>
		<path class="st5" d="M83.1,73.8c-2-6.9-1.9-14-1.9-21.1c0.2-2.1-0.7-4.5,1.9-5.7c3.3,0.5,4.3,2.9,4.8,5.7c0,2.8-0.3,5.6,1.7,8.1
			c1.1,1.4,1.3,3.4,0.7,5.4c-1.2,4.2,0.3,8.3,1.4,12.4c0.1,1.1-0.5,1.3-1.4,1.3c-2.6-2.2-2.5-5.3-2.7-8.2
			c-0.6-6.1-1.7-12.1-3.2-18.2c-1,3.2-0.9,6.4-0.4,9.8C84.4,66.8,85.4,70.4,83.1,73.8z"/>
		<path class="st7" d="M90.7,79.5c0.3-0.3,0.6-0.6,1-1c3.6,1.6,2.8,4.8,2.9,7.7c-0.7,0-1.4,0.1-2.1,0.1
			C89.7,84.6,89.9,82.2,90.7,79.5z"/>
		<path class="st7" d="M87.9,52.7c-1.1-2.3-2.6-4.3-4.8-5.7c1,0,1.9,0,2.9,0C88.6,48.2,87.7,50.6,87.9,52.7z"/>
		<path class="st13" d="M79.2,131.9c0.3-5.2,3.3-8.6,5.1-12.6c0.4-0.8,1.3-1.4,2.4-0.9c0.9,0.5,1.4,1.4,1,2.4
			c-1.4,4-0.6,8.2-0.7,12.3c0,3.4-2.7,5.2-4,7.9c-0.7,1.5-2.5,0.2-2.6-1.2C80.1,137,80,134.2,79.2,131.9z"/>
		<path class="st4" d="M87.9,149.6c1.7,3.3,1.7,7,2.9,10.4c-2.6,0-4.4-0.8-3.3-3.9C88.2,154,87.8,151.8,87.9,149.6z"/>
		<path class="st14" d="M90.7,79.5c0.6,2.3,1.2,4.5,1.8,6.8c1.2,3.6,1.4,7.4,4.5,11.3c-4.6-1.2-6-4.3-8.1-6.7c0,0,0,0,0,0
			c-1.5-2-3.1-3.9-2.2-6.7c1.5-0.6,2,0.9,3.6,2.1C85.9,78.3,86,70,85.2,62.1c-0.5,4,1.4,8.5-1.2,12.6c-0.3-0.3-0.6-0.7-0.9-1
			c-0.3-6.5-0.6-13-0.8-19.5c0-1.5-0.5-3.7,1.5-4c2.5-0.3,2.5,2.2,2.7,3.7c0.9,6.4,1.6,12.9,2.5,19.3C89.2,75.4,89.1,77.8,90.7,79.5
			z"/>
		<path class="st15" d="M84,74.8c0-5.8,0-11.6,0-17.4c0.5,0,1-0.1,1.4-0.1c1.7,10.8,2.2,21.8,7,32.8c-4-1.3-3.4-4.7-5.7-5.7
			c-3.2-0.8-0.7-4.3-2.7-5.8C84.1,77.3,84,76.1,84,74.8z"/>
		<path class="st5" d="M84.1,78.6c2.7,1.1,1.1,4.2,2.7,5.8c-0.2,2.5,2,4.2,2.2,6.6C85.1,87.8,83.8,83.5,84.1,78.6z"/>
		<path class="st16" d="M162.8,190.8c-0.4,0-0.7,0-1.1,0c-4.2-6.8-6.3-14.4-7.8-22.1c-0.6-3-3.4-6-0.8-9.4c0.3,0,0.6,0,0.9,0
			c2.7,8.8,5.4,17.6,8,26.4C162.5,187.2,162.5,189,162.8,190.8z"/>
		<path class="st17" d="M153,159.2c1.2,6.3,2.9,12.5,4.5,18.7c1.2,4.4,4.2,8.1,4.1,12.8c-0.6,0.6-1.3,1.3-1.9,1.9
			c-4,1.3-7.3,3.6-10.5,6.4c-4.7,4.1-10.8,5.4-16.6,6.8c-7,1.6-14,3.4-21.5,3.3c-3-0.1-4.3-0.6-5.2-3.1c0-0.3,0-0.6,0-0.9
			c-0.9-4.3-2.1-8.5-3.8-12.5l0,0c-1.1-4.5-2.6-9-3.8-13.5c-2.2-7-4.4-14.1-6.6-21.1c4.8-1.9,5-1.7,6.1,2.9
			c0.8,3.5,0.3,7.1,1.2,10.4c1.6,5.5,3.1,11,7.7,15.1c2.9,2.6,2.9,7,4.9,10.3c1,1.6,1.3,3.6,3.7,4.5c-3.3-5.8,0.2-12.3-3.6-18.7
			c-4.7-7.8-6.9-17-9.3-25.9c-0.4-1.6-0.6-3.4,1-4.4c1.9-1.1,2.7,0.9,3.8,1.9c0.3-1.1,0.9-2.1,1.3-3.1c1.7-4.1,0.9-6.3-3.2-7.9
			c-2.1-0.8-4.1-1.7-6.3-2.3c-0.9-0.3-1.9-0.6-1.6-1.9c14.3,0.7,26.6-5,38.4-12.1c1-0.6,1.9-1.1,2.8-1.8c2.5-1.8,3.9-1.2,4.7,1.8
			c2.6,9.5,5.2,19,7.9,28.4C151.8,156.6,152.5,157.9,153,159.2z"/>
		<path class="st18" d="M97.5,139c2.8,1,5.5,2.1,8.3,3c4.7,1.5,6.6,5.4,4,9.6c-1.2,1.9-1.7,3.8-1.6,5.8c-1.2,0.3-1.5-0.3-1.8-0.8
			c-0.6-1.3,0-4.1-2.1-3.5c-2.1,0.6-0.9,2.9-0.4,4.5c2.6,7.7,5.3,15.5,7.9,23.2c0.5,1.5,1,3.1,2.3,4.1c2.3,1.9,3,3.9,1.2,6.6
			c-2,3,1.4,5.4,1.2,8.1c-0.1,1.4,1.7,3.5-0.6,4.2c-1.7,0.5-2.8-1.4-3.6-2.6c-1.2-2-2.4-4.2-2.9-6.5c-1.9-7.8-9.5-12.3-11-20.5
			c-1-5.3-0.4-10.8-2.4-16c-1.2,0.3-2.7,0.7-4.2,0.1c-0.1-0.3-0.2-0.6-0.1-0.9c-0.4-0.5-0.6-1.2-0.2-1.8c3-4.1,0.6-6.6-2.6-8.9
			c-0.1-0.6,0.1-1.4-0.2-1.9c-3.2-5.3,0.3-5.1,3.9-4.9C93.9,137.6,95.5,137.2,97.5,139L97.5,139z"/>
		<path class="st16" d="M106.1,206.1c3.6,4.4,8.5,1.9,12.3,1.5c8.4-0.9,16.7-3.1,24.8-5.9c4.4-1.5,6.7-5.1,10-7.5
			c2.5-1.9,4.3-1.6,6.6-1.5c-5.5,7-13.5,9.8-21.4,12.5c-5.4,1.8-11.7,1.8-16.5,4.2c-5.4,2.7-9.9-0.5-14.8,0.4
			C106.5,208.7,105.8,207.5,106.1,206.1z"/>
		<path class="st19" d="M97.5,138.9c-1.8-0.7-3.4-0.2-4.9,0.9c0.2-2.5,0.4-4.9-1-7.4c-1.3-2.3-0.7-3.6,3.6-12
			c0.4,4.3,1.4,7.7,0.9,10.8C95.6,134.3,96.1,136.6,97.5,138.9z"/>
		<path class="st17" d="M88.9,146.6c6.3,2.2,6.6,3.1,2.8,10.6C90.7,153.7,89.8,150.2,88.9,146.6z"/>
		<path class="st16" d="M98.4,179.2c2.4,4.2,3.5,8.7,3.8,13.5C100.4,188.4,98.4,184.1,98.4,179.2z"/>
		<path class="st16" d="M102.2,192.7c2.7,3.7,3.7,8,3.8,12.5C104.4,201.1,102.8,197.1,102.2,192.7z"/>
	</g>
</g>
</svg>
