<?xml version="1.0" encoding="utf-8"?>
<!-- Generator: Adobe Illustrator 20.0.0, SVG Export Plug-In . SVG Version: 6.00 Build 0)  -->
<svg version="1.1" id="Layer_1" xmlns="http://www.w3.org/2000/svg" xmlns:xlink="http://www.w3.org/1999/xlink" x="0px" y="0px"
	 viewBox="0 0 250 250" style="enable-background:new 0 0 250 250;" xml:space="preserve">
<style type="text/css">
	.st0{fill:#C1E8F9;}
	.st1{fill:#B4E3F6;}
	.st2{fill:#B4E3F2;}
	.st3{fill:#C8EAF6;}
	.st4{fill:#CAEAF6;}
	.st5{fill:#B3E2EF;}
	.st6{fill:#A9DEEB;}
	.st7{fill:#99D8EC;}
</style>
<g>
	<g>
		<path class="st0" d="M63.3,219.9c-5.8-2.2-11.5-4.7-15.8-9.4c3.1-4.5,8-4.5,10.4,0c0.9,1.6,1.1,4.1,3.7,3.7
			c2.8-0.5,2.4-3.1,2.4-5.1c0-3.1,0.6-5.9,3.3-7.9c2.4-1.8,2.9-4.2,2.1-7c-0.9-3.2-1.5-6.5-1.1-9.8c0.7-6.6-2.4-11.6-7.1-17.1
			c-2.2,11.4-11,18.5-14.9,28.4c-1.2,3-3.5,5.2-6.9,5.8c-2.8-0.7-2-2.6-1-4c2.5-3.5,3.5-7.5,4.9-11.5c1.5-4.3,3.6-8.2,7.3-11.2
			c3.2-2.6,4.3-6.7,6-10.3c3.1-6.3,4.3-6.5,8.8-1.2c0.9,1.1,1.9,2.6,3.1,0.6c4.3-6.9,11.5-9.2,18.3-12.3c1-0.4,1.9-0.9,2.8-1.5
			c1.7-1,3.4-1.9,5.4-1.9c10.8,0.1,21.6-1,32.4,1.2c10.3,2.1,20.8,3.3,30.4,7.5c9.6,4.2,18.8,9.2,26.2,16.9c0.7,1.2,1.9,2.3,1.9,3.7
			c0,3.8,1.8,6.2,4.7,8.6c3.3,2.7,2.7,6.4-0.7,9.7c-1,0.9-1.2,2.1-1.3,3.3c-0.2,1.9-0.8,3.7-1.5,5.5c-2.9,7.4-7.9,11.3-16.1,11.8
			c-10.7,0.7-21.3,1.1-31.9,0c-7.8-0.9-15.7,0.6-24.4-1.7c3.3,4.9,0.3,6.6-2.9,8.2c-2.7,1.3-5.1,3.1-8,4
			c-9.7,1.2-16.4-5.1-15.3-14.6c0.5-4.7-3.1-9.6-7.7-10.7c-1.7-0.4-2.7,0.5-3.6,1.6c-2.1,2.4-3.6,5.1-4.5,8.1
			C71.3,216.1,68.3,219.2,63.3,219.9z"/>
		<path class="st1" d="M103.2,226.2c4-2.3,8.1-4.6,12-6.8c0.2-1.6-1.2-1.8-1.8-2.6c-0.8-1.1-1.1-2.3-0.3-3.4
			c0.8-1.2,2.3-1.2,3.3-0.4c2.8,2.3,6,1.6,9,1.6c11.8-0.2,23.6,1.6,35.4,1.2c4.9-0.2,9.7-0.9,14.5-1.4c6.2-0.7,11.8-8.6,11.8-16.2
			c0-3.5,0.6-5.6,5-4c-1.1-4.4-0.6-9.1-6.7-9.2c-1.5,0-0.9-1.5-0.6-2.5c0.8-2.9,0.1-5.5-1.8-7.8c4-1.7,4.3,3.3,8.1,4.2
			c-0.7-3.9-2.6-6.4-5.3-8.5c-16.8-13.5-35.8-22.1-57.2-25.2c-9-1.3-18.1-0.2-27.2-0.5c-2.4-0.1-4.9,0.6-6.9-1.5
			c1.4-3.2,4.5-2.8,7.1-3.2c2.7-0.4,5.6-0.1,8.4-0.3c4.2-0.3,7.1-2.2,8.8-6.2c2.8-6.9,7.2-9.1,14.8-8c9.1,0.4,18.4,1.3,26.7,4.5
			c25.4,9.9,49.5,22.1,68,43.3c9.9,11.4,14.2,26.9,6.4,41.6c-3,5.7-8.1,10-13.4,13.8c-9.4,6.6-20.1,10.2-31.1,13.3
			c-4.4-1.3-8.7,0.4-12.9,1c-16.6,2.2-33,2.1-49.3-1.9c-2.6-0.6-5.4-1.6-8.1-0.1c-2.1-0.6-4.4-0.5-6.3-2c5.6-8.9,4.7-10.6-6.2-11.3
			C105.9,227.4,104.3,227.6,103.2,226.2z"/>
		<path class="st2" d="M89.5,151.7c-4.7,3.3-10.7,3.9-15.1,7.9c-1.7,1.5-3.3,2.9-4.5,4.9c-2.2,3.9-3.3,3.9-5.5,0.1
			c-0.9-1.5-1-4.3-3.5-3.9c-2.1,0.3-2.1,2.9-3,4.5c-2.4,4.2-3.3,9.5-8.1,12.3c-2.6,1.6-3.5,4.8-4.6,7.5c-2.1,5.1-2.8,10.8-6.8,15
			c-0.1,0.1,0.5,0.8,0.7,1.2c0.9,1.3,3.7,2,1.1,4.2c-8.4-6.1-14.7-14.3-17.5-24.1c-3.7-13-1.3-25.5,7.8-36
			c6.2-7.2,13.8-12.6,22.4-16.6c7.3-3.4,15.2-3.3,22.9-4.1c2.6-0.7,5.3-1.4,6.9,1.5c1.4,2.7,0.7,5.4-1.2,7.7c-2.2,2.7-4.5,5.3-6,8.5
			c-0.6,1.2-1.5,2.7-0.3,3.9c1,1,2.2-0.1,3.3-0.6c2.4-1.1,4.9-1.7,7.5-0.5c1.2,3.6-2,3.3-3.8,4c-5.8,2.2-10.7,5.4-13.6,11.1
			c4.1-3.1,8.1-6.3,13.1-8C84.2,150.9,86.8,149.5,89.5,151.7z"/>
		<path class="st3" d="M86.4,145.4c-3.2-0.1-6.3-0.2-8.9,2.1c-1.1,1-2.6,1.5-3.8,0.6c-1.4-1.1-1.1-2.9-0.5-4.3
			c1.6-3.7,3.5-7.3,6.5-10c2.4-2.1,3.2-4.7,2.2-7.5c-1.1-2.8-3.9-1.6-6-1.9c8.1-3.1,16.5-2.5,24.7-1.8c6.8,0.6,13.6,0.5,20.4,0.8
			c4.3,0.2,8.6,0.5,12.7,2.1c-7.7,0.2-11.1,2.5-13.8,9.6c-1.8,4.6-5.5,6-9.9,6.1c-5.1,0.2-10.4-0.8-15.1,2.1
			C92.6,146.4,89.8,147.4,86.4,145.4z"/>
		<path class="st4" d="M40.2,205.2c1.2-1.8-1.7-2.5-1.1-4.2c2.9-1.7,5.5-3.6,6.7-7c1.7-4.8,4.6-8.7,7.8-12.7c2.8-3.4,5-7.7,5.4-12.5
			c0.1-1.5,0.4-2.9,2-3.3c1.9-0.5,2,1.4,2.9,2.3c8,8.3,3.9,19.6,7.4,29c0.6,1.5-0.5,3.5-1.7,4.1c-4.2,2.1-4.8,5.6-4.3,9.7
			c0.4,3.1-0.9,5.4-4,5.6c-2.7,0.1-4.1-1.6-4.5-4.6c-0.6-4.2-3.1-4.4-9.4-1.2C45,208.8,42.6,207,40.2,205.2z"/>
		<path class="st5" d="M103.2,226.2c2.8,0,5.5-0.1,8.3,0c3.3,0.1,6.8,1.1,7.1,4.6c0.4,3.3-0.9,6.8-5,8c-17.6-4.2-34.9-9.1-50.4-18.9
			c4.7-2.6,8.3-6,9.2-11.8c0.2-1.6,1.6-3,2.6-4.4c2.5-3.4,4.3-5.7,9.2-1.7c4.5,3.6,6.8,5.9,5.4,12.1
			C88.2,220.9,94.5,226.1,103.2,226.2z"/>
		<path class="st6" d="M119.9,240.8c-0.4-1.2-0.5-2.1,1.2-2c2.6,0.2,5.1,0,7.7,0.7c15.8,4.3,31.8,4.6,47.9,2
			c4.4-0.7,9.1-2.9,13.5,0.3C166.7,247.3,143.3,246.4,119.9,240.8z"/>
		<path class="st7" d="M86.4,145.4c3,0.2,5.7-1,8.4-2.1c7.5,0,15-0.1,22.5,0c23.4,0.5,44.6,7.4,63.1,22c4.1,3.2,9,5.2,11.4,10.3
			c0.9,2.1,1.8,4.2-0.4,5.6c-2,1.2-2.7-1.5-4-2.5c-1.6-1.2-1.8-4-4.5-3.9c-9.3-8.9-20.3-15.1-32.5-18.8c-17.4-5.2-35.3-7.3-53.5-6.5
			c-2.8,0.1-5.1,1-7.4,2.2c-7.7-0.1-13.5,3.8-18.8,8.8c-1,1-2,3.3-3.6,2c-1.6-1.3-0.4-3.4,0.6-4.7c3.6-4.9,8.3-8.4,14.1-10.1
			C83.5,147.1,85.2,146.8,86.4,145.4z"/>
	</g>
</g>
</svg>
