<?xml version="1.0" encoding="utf-8"?>
<!-- Generator: Adobe Illustrator 20.0.0, SVG Export Plug-In . SVG Version: 6.00 Build 0)  -->
<svg version="1.1" id="Layer_1" xmlns="http://www.w3.org/2000/svg" xmlns:xlink="http://www.w3.org/1999/xlink" x="0px" y="0px"
	 viewBox="0 0 250 250" style="enable-background:new 0 0 250 250;" xml:space="preserve">
<style type="text/css">
	.st0{fill:#88D5F3;}
	.st1{fill:#A1DDF9;}
	.st2{fill:#A5DDEC;}
	.st3{fill:#BEE6F0;}
	.st4{fill:#AEE1F4;}
	.st5{fill:#88D4E6;}
	.st6{fill:#B2E2EE;}
	.st7{fill:#DF8471;}
	.st8{fill:#97D7DB;}
	.st9{fill:#8FD6EC;}
	.st10{fill:#C2E1EA;}
	.st11{fill:#C8E9EF;}
	.st12{fill:#81D1DF;}
	.st13{fill:#AEE0EE;}
	.st14{fill:#A9DCD5;}
	.st15{fill:#99D8E0;}
	.st16{fill:#9AD9E7;}
	.st17{fill:#A8DFF2;}
	.st18{fill:#C3E8F1;}
	.st19{fill:#A3DCE7;}
	.st20{fill:#C6DEDB;}
	.st21{fill:#BAD3D8;}
	.st22{fill:#85D2DD;}
	.st23{fill:#CEDCE5;}
	.st24{fill:#8CD6EE;}
	.st25{fill:#85D4ED;}
	.st26{fill:#7ED0DC;}
	.st27{fill:#EEEEF4;}
	.st28{fill:#EB3F39;}
	.st29{fill:#AD2A24;}
	.st30{fill:#D54353;}
	.st31{fill:#B73432;}
	.st32{fill:#A5505B;}
	.st33{fill:#D1EDF3;}
	.st34{fill:#B498A5;}
	.st35{fill:#A8B0A5;}
	.st36{fill:#E5F5FA;}
	.st37{fill:#89D3DD;}
	.st38{fill:#83D3EB;}
	.st39{fill:#81D2E8;}
	.st40{fill:#9ACEEF;}
	.st41{fill:#84D1D6;}
	.st42{fill:#85D3E9;}
	.st43{fill:#A6D2E4;}
	.st44{fill:#97B4B3;}
	.st45{fill:#D71F27;}
	.st46{fill:#EF3A4A;}
	.st47{fill:#B02028;}
	.st48{fill:#E44729;}
	.st49{fill:#EF3752;}
</style>
<g>
	<g>
		<path class="st0" d="M84.4,97.8c7-5.7,14.3-11.1,23.3-13.3c2.5-0.2,4.5-1.8,6.9-2.5c3.9-1.2,8.4,0,9.8,2.8c1.3,2.5,0,5.7-3.2,8.5
			c-0.3,0.3-0.6,0.6-0.8,0.9c-3.3,3.8-8.4,3.9-12.5,6c-3.6,1-6.5,4.2-10.6,3.1c-2.9-5.4-3.5-5.7-10-4.2c-1,0.2-1.9,0.4-2.8-0.2
			C84.2,98.5,84.1,98.2,84.4,97.8z"/>
		<path class="st1" d="M148.6,184.4c4.1,7.5,7.5,15.3,10.8,23.2c1.7,4,4.9,7.4,5.9,11.8c0.1,1.4,1,2.1,2.2,2.7
			c1.5,0.6,2.8,1.4,2.4,3.3c-0.5,1.9-2.2,1.8-3.6,1.9c-0.9,0.1-1.9,0-2.8-0.2c-2.6-0.5-2.5-4.6-5.7-4.2c1.4-2.8,0.2-5.2-0.9-7.9
			c-5.3-13.9-11.9-27.1-17.9-40.7c-2.5-5.8-5.2-11.5-7.9-17.3c2.8-1.6,3.6,0.6,4.6,2.3c4.1,6.8,7.3,14.1,10.4,21.5
			C146.7,182.2,147.2,183.7,148.6,184.4z"/>
		<path class="st2" d="M148.6,184.4c-2.7,1.1-2.8-1.5-3.2-2.7c-2.8-7.6-6.5-14.8-10.3-21.9c-0.9-1.7-1.7-3.2-4-2.9
			c-4.9-6.4-11.4-9.5-19.5-10.2c-2.8-0.2-6.3,0.4-8-3.2c4.5-2.2,9.2-0.8,13.8-1c0.3,0,0.6,0,0.8,0.2c5.5,3,10.8,3.9,15.5-1.5
			c0.4-0.5,1.2-0.5,1.9-0.2c2.7,2.4-0.6,4.5-0.3,6.8c-0.9,6.5,1.9,11.8,5,17.4C143.6,171.3,146.9,177.6,148.6,184.4z"/>
		<path class="st3" d="M107.7,99.5c3.4-2.9,8.7-2,11.7-5.8c4.8-3,8.7-6.9,13.4-10.7c-3.9-1.6-7.3-1.5-10.7-1.5
			c-2.3,0-4.6,0.7-6.8-0.3c7.9-3.1,16.1-2.5,24.1-0.7c2.2,0.5,5.1-0.2,6.6,2.5c-2.1,1.3-4.8,1.6-6.7,3.5c-0.3,0.2-0.6,0.4-0.9,0.6
			c-2.1,0.9-3.8,2.3-5.3,4c-2.4,3.2-6.4,3.9-9.3,6.5c-0.8,0.4-1.7,0.7-2.6,1c-1.7,0.4-2.9,1.5-4.3,2.5c-0.3,0.2-0.7,0.4-1.1,0.5
			c-2.7,1.1-5.1,3.2-8.3,2.1C105,102,104.9,100.7,107.7,99.5z"/>
		<path class="st4" d="M138.6,86.2c1.9-2.5,4.3-3.7,7.5-3.3c3.2,1.9,3.6,5.4,5,8.4c1,2.7-0.3,5.8,1.6,8.3c0,1.1,0.1,2.2,0.1,3.2
			c0.6,1.9,0.4,3.9,0.2,5.9c-1.4,1.4-3.1,1.2-4.8,0.7c-2.1-1-2-2.9-2.2-4.9c-0.4-4.3-0.8-8.7-2.8-12.7
			C142.2,89.5,140.7,87.6,138.6,86.2z"/>
		<path class="st5" d="M162.8,226.2c0.7,0,1.4,0.1,2.1,0c1.5-0.3,3.8,1,4.3-1.2c0.5-2.1-2-1.8-3-2.7c-0.9-0.7-2.4-1.5-0.8-2.9
			c6.1,4.6,13.5,4,20.5,5.1c1.6,0.3,3.5,0,4.3,1.9c0.7,1.8-0.6,2.8-1.6,3.9c-1.2,1-2.3,0.5-3.3-0.4c-2.3-2.3-4.5-1.6-7.1-0.2
			c-3.2,1.7-6.3,3.9-10.1,4c-0.4-0.1-0.7-0.3-1.1-0.5c0.8-2.9,1.1-5.5-3.2-5.5C163.1,227.6,162.5,227.1,162.8,226.2z"/>
		<path class="st6" d="M107.7,99.5c-1.1,1.1-2.4,2.3,0,3.4c0.3,1.8-1,2.5-2.3,3c-9.1,3.5-18.5,5.2-28.3,5.5c-0.4,0-0.8-0.2-1.2-0.3
			c-1.2-0.7-1.2-1.6,0-2c2.7-0.9,3.6-2,1.4-4.3c-0.2-0.2,0.1-0.8,0.3-1.1c0.3-0.3,0.5-0.5,0.8-0.8c0.4-0.2,0.8-0.3,1.3-0.2
			c3.9,1.2,7.9,0.8,11.9,0.3c1.8-0.2,3.5-1,5.3-0.1C101,103.3,103.9,99.8,107.7,99.5z"/>
		<path class="st7" d="M119.1,144.2c-5.1-0.2-10.3-0.3-15.4-0.5c-1-0.9-2.4-0.7-3.6-0.8c-0.6-0.6-1.6-0.4-2.2-0.9
			c-3-2-3.2-4.9-2.3-8.1c0.9-1.6,2.4-2,3.9-1.1c3.3,1.8,6.9,2.5,10.2,3c-1.3-1.1-3.7-1.8-3.7-4.5c3.3-2,4.6,1.9,7.1,2.4
			c0.8,0.3,1.6,0.7,2.3,1.1c0.4,0.2,0.7,0.4,1.1,0.6c1.4,1,3.8,1.3,2.9,3.7c-0.8,2.1-2.9,2.4-4.9,2.2c-1.9-0.2-3.8-0.7-5.5-1.6
			c-2.7-1.7-5.9-1.4-8.9-2.4c2.1,4.7,20.7,6.5,28.6,3c0.6-0.4,1.2-0.6,1.9-0.6c0.7,0,1.4,0.2,1.7,1c-1.5,4.1-5.2,4-8.6,4
			C122.1,144.7,120.6,143.9,119.1,144.2z"/>
		<path class="st8" d="M186.3,232c-11,9-22.9,15.4-37.8,12.5c0.2-2.2,2-1.7,3.3-1.9c1.6-0.2,3.2,0,4.4-1.4c4.7-1.5,9.7-2.1,14.3-4.1
			c4-1.8,8.1-3.5,12-5.3C183.8,231.6,185.1,231,186.3,232z"/>
		<path class="st9" d="M115.3,81.1c5.6-0.5,11.2-1.4,16.8,0c0.8,0.2,1.7,0,2.1,1c0.3,0.7,0,1.4-0.6,1.8c-4.7,3.3-8.6,7.8-14.2,9.8
			c0.2-0.3,0.4-0.9,0.7-1c3.3-1.5,4.8-4.6,3.4-7.4c-1.4-2.7-4.6-3.8-8.3-2.8c-2.4,0.7-4.7,2.5-7.5,1.9
			C110.3,83.4,112.8,82.2,115.3,81.1z"/>
		<path class="st10" d="M152.7,116.1c-1.4,5.6-3.7,10.9-6.6,15.9c-1.8-0.6-3.8,2.8-5.6-0.2c-0.2-1.1,0.2-2,0.7-3
			c2.7-3.9,3.6-8.4,4.8-12.9c0.4-0.3,0.8-0.5,1.2-0.6C149.1,115,151,114.7,152.7,116.1z"/>
		<path class="st11" d="M171.1,237.8c-4.4,2.3-9.3,3.2-14.2,4.1c-3,0.8-6.1,1.2-9.1,0c-0.1-1.5,1.2-2.2,1.7-3.4
			c2.1-2.3,2.9-5.3,4.6-7.8c2-1.6,3.3-1.1,3.5,1.4c0.1,1.2,0,2.5,0.9,3.4c0.2,0.3,0.3,0.7,0.4,1c0.3,2.2,1.8,1.4,3,1.3
			c2.5-0.3,4.9-1.3,7.6-1C170.2,237.1,170.7,237.3,171.1,237.8z"/>
		<path class="st12" d="M162.8,226.2c0.6,0.7,1.4,0.8,2.2,0.8c1.5,0.1,3.5-0.5,4.2,1.5c0.7,2-1.1,3.1-2.2,4.4c-4.7,2-9.9-2-10.1-7.6
			c0.3-0.8,0.6-1.6,0.9-2.4C162.4,219.4,161.1,225.1,162.8,226.2z"/>
		<path class="st13" d="M98.4,142c0.7,0,1.3,0.1,1.7,0.8c-4.2,0.3-7.7-1.2-11-3.9c-4.1-3.3-7.9-6.8-11.4-10.8c-1.8-2-3.2-4.2-3.3-7
			c-0.4-0.5-0.4-1.1-0.1-1.7c1.9-0.5,2.9,0.8,3.7,2.1c1.5,2.3,3.3,4.5,4.5,6.9c2.4,5.2,6.9,8.1,11.9,10.3
			C96.1,139.4,96.9,141.1,98.4,142z"/>
		<path class="st14" d="M141.1,131.9c1.3,1.1,2.1-0.4,3.1-0.7c0.9-0.3,1.8-0.8,1.9,0.8c-2,4.3-5,7.8-7.9,11.5
			c-1.1,1.4-2,2.9-2.9,4.4c-0.6-2.2,1.7-4.5,0-6.7c-0.1-2,2.2-3.5,1.3-5.7c0-0.6,0.3-1.1,0.7-1.5
			C138.4,133.1,139.2,131.5,141.1,131.9z"/>
		<path class="st15" d="M156.8,225.2c2.4,3.8,4.3,8.3,10.1,7.6c0.3,0,0.6,0,0.9,0c0.3,0.4,0.2,0.8-0.1,1.2c-2.7,2.3-6.2,1.1-9.1,2.1
			c-2.3-0.2-2.4-1.3-1.8-3.3c0.6-2.1-0.4-2.7-2.3-1.7c-0.5-0.1-0.7-0.4-0.8-0.9C153.9,228.1,155.8,226.9,156.8,225.2z"/>
		<path class="st16" d="M152.7,116.1c-1.9,0-3.8,0-5.8-0.1c-3.2-1.9-2.8-5.2,0.9-7.4c1.7,0,3.3,0,5,0c0.7,2.2,0.6,4.4,0.1,6.6
			C152.8,115.6,152.7,115.9,152.7,116.1z"/>
		<path class="st17" d="M167.8,233.7c0-0.3,0-0.5,0-0.8c3.5-0.3,6.3-2.4,9.3-3.9c3.6-1.9,6.7-3.4,9.5,0.9c0.3,0.4,1.3,0.3,1.9,0.4
			c-0.4,1-1.4,1.3-2.2,1.7c-1.2,0.3-2.3,0.5-3.5,0.8c-3.3-2.8-6.2-0.1-9.2,0.7C171.6,234,169.8,235.4,167.8,233.7z"/>
		<path class="st18" d="M77.7,103.6c3.5,4.5,3.5,4.5-2.4,6.8c-0.2,1-0.8,1.6-1.6,2c-0.4,0.1-0.7,0-0.9-0.3
			C73.2,108.5,75.6,106.1,77.7,103.6z"/>
		<path class="st19" d="M147.8,242c3-0.3,6.1-1,9.1,0c-0.7,1.8-2.2,1.7-3.8,1.7c-1.6,0.1-3.3-0.6-4.6,0.9
			C146.5,244.2,147.3,243.1,147.8,242z"/>
		<path class="st20" d="M153.6,230.3c0.3,0.3,0.5,0.6,0.8,0.9c-1.5,2.6-1.8,6-5,7.4C150.4,235.6,151.9,232.9,153.6,230.3z"/>
		<path class="st6" d="M72.7,112c0.3,0,0.6,0,0.9,0c1.7,2.3,1.3,4.9,0.9,7.5c0,0.6,0,1.1,0,1.7C72,118.5,71.2,115.4,72.7,112z"/>
		<path class="st10" d="M152.8,115.3c0-2.2,0-4.4-0.1-6.6c0-2,0.1-4,0.1-5.9C154.1,107,154.1,111.2,152.8,115.3z"/>
		<path class="st21" d="M152.7,99.5c-3.1-2.3-1-5.5-1.6-8.3C152.5,93.8,152,96.8,152.7,99.5z"/>
		<path class="st18" d="M79.4,102.9c-0.3,0-0.6-0.1-0.9-0.1c1.8-1.9,3.1-4.2,5.9-4.9c0,0.3,0,0.6,0.1,0.9
			C83.4,100.8,82.2,102.8,79.4,102.9z"/>
		<path class="st22" d="M79.4,102.9c1.7-1.4,3.4-2.8,5-4.2c1.8,0.2,3.1-1,4.7-1.4c4.4-1.3,8.5,1.7,7.8,5.6c-5,2-10.3,1.7-15.5,1.6
			C80.3,104.5,79.6,104.1,79.4,102.9z"/>
		<path class="st23" d="M137.1,135.3c1.8,2.7,0,4.3-1.9,5.9c-2.5,1.1-3.7,3.9-6.3,5c-4,1.7-6.7-0.9-9.9-2.1c2.3-0.1,4.7-0.1,7-0.5
			c2.3-0.4,4.7-0.8,5.8-3.4C133,138,134.6,136.1,137.1,135.3z"/>
		<path class="st24" d="M74.4,119.5c-1.4-2.4-0.6-5-0.9-7.5c0.6-0.6,1.1-1.1,1.7-1.7c10.3-0.1,20.3-2.1,30-5.5c1-0.4,2-0.9,2.5-2
			c3.3,0.9,5.4-2.2,8.3-2.5c1.5,2.3,3.5,3.4,6.3,3.1c1.4-0.1,2.8-0.2,4.1,0.6c1.2,1.2,0.2,1.7-0.7,2c-1.5,0.5-3,0.3-4.5,0.4
			c-0.8,0.1-1.8,0.1-2,1.1c-0.3,1.2,0.6,1.8,1.6,2.1c2.6,0.8,4.6-0.5,6.5-2c1.8-1.4,0.1-2.4-0.5-3.5c0.9-2.7,2.7-2.1,4.7-1.4
			c3.5,2.1,7.1,0.4,10.7,0.3c-3.4-1.4-7-0.1-10.5-1.1c-1.4-0.7-2.3-1.7-1.6-3.3c0.7-1.5,2-2.1,3.6-2.5c2.5-0.5,5.2,0.5,7.7-1
			c-3.1-2.7-6.9-2.5-10.9,0c-2.1,1.3-3.8,4-6.9,1.9c2.1-3.5,6.8-3.5,9.2-6.7c1.9-1.4,3.7-3,5.8-4.2c0,0,0,0,0,0
			c3.3,0.3,7,5.5,7.5,10.6c0.4,4,1.1,7.9,1.7,11.9c-1.6,2.3-3.5,4.6-0.9,7.4c-0.3,0.1-0.6,0.1-1,0.2c-3.3,0.7-6.6,0.3-9.9-0.2
			c-1-0.4-1.1-1.1-0.5-2c0.9-1.3,0.3-2.4-0.6-3.4c-0.8-0.9-2-1.2-3-0.5c-1.3,0.9-0.4,1.9,0.2,2.8c0.7,1.1,2.7,1.2,2.4,3
			c-1.9,1.7-4.3,1-6.4,1.2c-1.1-0.1-2.2-0.1-3.2-0.6c-0.4-2.4-1.3-4-4.3-3.9c-2.6,0.1-4.1-2.1-5.8-3.7c-3.6-3.4-4.7-3.5-7.8,0
			c-1.8,2-3.9,3-6.5,3.1c-1.9,0-3.7,0.5-4.3,2.6c-0.5,1.7,0.6,2.9,1.9,3.8c1.8,1.3,3.9,0.8,4.9-0.6c3.8-5.3,8.3-5.3,13.7-3.1
			c2.2,0.9,5-0.5,7.2,1.1c-0.4,2.6-2.7,2.6-4.4,2.6c-3.6,0-6.6,0.3-7.3,4.6c-1.1,1.2-2.7,1.6-4,2.5c-1.9,0.6-3.4,1.8-5.2,2.6
			c-2.8,0.6-4.8-0.9-6.3-2.9c-1.5-2-3.5-3.5-5.4-5c-1.2-1-2.4-1.5-3.6-0.1c-1.2,1.2-0.8,2.5,0.1,3.7c1.4,1.7,2.8,3.4,4.5,4.8
			c1.5,1.3,3.4,2.4,3.7,4.7c0.2,3.1,0.4,6.1,2.7,8.5c-1.8-0.1-2.5-1.9-4-2.6c-2.6-3.5-5.1-6.9-7.4-10.6c-1.7-2.8-3.3-3-5.1-0.2
			C78.8,126.1,78.1,121.6,74.4,119.5z"/>
		<path class="st25" d="M126.9,104.5c-2.2,0-4.4,0-6.5,0c-2.8,0-4.3-1.3-4.3-4.2c0.3,0,0.5,0,0.8-0.1c1.4,0.6,2.2,2.1,3.8,2.2
			c1.5,0.1,2.8-0.2,3.4-1.7c0.7-1.9-1.1-1.8-2.1-2.3c-0.4-0.2-0.7-0.4-1-0.7c0.7-0.9,1.6-0.8,2.5-0.8c3.1,0.7,4.9-1.7,6.8-3.2
			c3.5-2.8,7.2-1.9,10.9-1.2c1.2,0.2,2.4,1,2.1,2.6c-0.3,1.5-1.5,1.8-2.8,1.8c-2.3,0-4.7-0.3-7,0.1c-2.1,0.4-4.9,1.2-1.7,4.1
			c0.6,1.1-0.1,1.8-0.8,2.5C129.5,102.8,128,102.3,126.9,104.5L126.9,104.5z"/>
		<path class="st26" d="M121,97.8c1.6,0.6,4.3-1.2,4.7,1.5c0.2,1.6-0.6,4-3,4.3c-2.7,0.4-5.3,0.3-5.9-3.3
			C117.8,98.7,119.1,97.6,121,97.8z"/>
		<path class="st4" d="M138.6,86.2c-1.7,1.7-3.4,3.5-5.8,4.2C134.1,88.1,135.9,86.5,138.6,86.2z"/>
		<path class="st27" d="M95.7,133.5c-2.7-2.9-6-5.2-8.6-8.4c-1.8-2.1-2.7-3.7-0.4-6c2.2-2.2,3.5-0.7,5.2,0.7
			c2.2,1.7,4.3,3.4,5.9,5.8c1,1.5,2.8,2.2,4.7,2.1c0.7,0.2,1.1,0.8,1.5,1.3c0.6,0.8,1.6,1.2,2,2.2c1.2,2.6,4.1,3.4,5.9,5.5
			c-3.9-0.4-8-0.1-11.4-2.3C99.1,133.3,97.5,132.9,95.7,133.5z"/>
		<path class="st28" d="M114.5,135.2c-0.6-0.2-1.2-0.5-1.7-0.7c-1.2-1.9-4-3.4-2.6-6c1.6-2.7,4.3-4.3,7.6-4.2
			c4.2,0.4,8.2,1.7,12.1,3.1c1,2.3-1.2,2.7-2.4,3.4c-3.2,1.8-6.7,2.9-10.1,4.2C116.6,135.4,115.5,135,114.5,135.2z"/>
		<path class="st29" d="M114.5,135.2c0.6-0.9,1.6-0.6,2.4-0.7c3-1.3,5.8-0.7,8.2,1.5c1.4,1.3,3.1,1.5,4.8,2.1c0.4,0.2,0.7,0.6,0.8,1
			c0,0.5-0.1,0.9-0.4,1.2c-0.4,0.3-0.7,0.5-1.1,0.8c-8.5,2.4-17,1.3-25.4,0.2c-1-0.1-2.3-0.6-2-2.1c0.3-1.4,1.6-1.5,2.7-1.3
			c1.6,0.2,3.3,0,4.9,0.8c2.1,1,4.3,1.4,6.7,1.5c1.4,0.1,2.6-0.7,2.9-1.8c0.3-1.2-1.2-1.1-2-1.5C116,136.4,115.3,135.8,114.5,135.2z
			"/>
		<path class="st30" d="M117.8,125.3c-3-0.6-4.6,1.8-6.7,3.2c-1.1,0.7-0.5,1.7,0.2,2.4c1.1,1,1.6,2.1,1.5,3.6
			c-2.8,0.1-3.6-4-6.6-3.3c-1.3-0.2-2.3-0.9-2.9-2.1c0.7-1.7,2.2-2.4,3.8-2.9c7-4.4,14.7-6.9,22.7-8.7c0.7-0.2,1.4-0.2,2,0.1
			c0.5,0.5,0.7,1.1,0.5,1.8c-0.4,1.1-1.2,1.8-2.2,2.4C125.8,122.1,121.6,123,117.8,125.3z"/>
		<path class="st31" d="M109.3,138.7c-2.3,0.1-4.6-0.4-6.9,0.9c8.7,3.3,17.7,2.7,26.8,1.5c-1.5,1.4-3.4,1.6-5.3,1.7
			c-6.7,0.2-13.5,0.3-20.2-0.9c-1.5-0.3-3-0.7-4.1-1.8c-1.1-1.1-2.6-2.2-1.6-3.8c1.1-1.9,2.3,0,3.5,0.4
			C104.1,137.5,107,136.9,109.3,138.7z"/>
		<path class="st32" d="M130.3,140.4c0-0.2,0-0.5,0.1-0.7c2.2-2.5,3.2-6.5,7.4-6.7c0.4,0.5,0.5,1.1-0.1,1.5
			c-0.2,0.3-0.4,0.6-0.5,0.9c-1.8,1.7-3.5,3.3-5.3,5C131.3,140.3,130.8,140.3,130.3,140.4z"/>
		<path class="st33" d="M167.8,233.7c4.2,0.4,7.4-2.9,11.4-3.1c1.6-0.1,4.3-1.6,3.6,2.2c-3.8,2-7.6,3.7-11.7,5c-0.6,0-1.1,0-1.7,0
			c-0.2-0.8,0.6-2.1-1.4-1.9c-3.1,0.3-6.2,1.6-9.3,0.3c0,0-0.1-0.1-0.1-0.1C161,233,165,235.5,167.8,233.7z"/>
		<path class="st34" d="M131.9,117.8c-8.5,2.3-17,4.9-24.8,9.1c-0.6-0.9,0.4-1.2,0.6-1.7c0.6-1.6,2.5-1.3,3.5-2.3
			c5.1-3.3,10.8-5.1,16.7-6.7c2.2-0.3,4.6,0.5,6.7-0.8c0.2-0.3,0.5-0.3,0.8,0c3.6,0.3,7.2-0.5,10.7,0.9c1.1,5.2-1.5,9.2-4.1,13.3
			c-0.4,0.3-0.7,0.3-1-0.1c-0.2-0.4-0.3-0.7-0.3-1.1c0.1-0.4,0.2-0.8,0.3-1.1c1-2,2.2-4,2.7-6.3c0.5-2.3-0.5-2.9-2.6-2.7
			C137.9,118,134.9,118.5,131.9,117.8z"/>
		<path class="st35" d="M141.1,129.5c0.3,0,0.5,0,0.8,0c-0.3,0.8-0.5,1.6-0.8,2.5c-1.3,0.6-1.9,2.2-3.4,2.5c0-0.5,0.1-1,0.1-1.5
			c0-0.2,0-0.4,0.1-0.6C138.7,131.1,139.1,129.4,141.1,129.5z"/>
		<path class="st36" d="M158.6,236.2c3.1-0.5,6.2-0.9,9.2-1.4c1-0.2,2-0.5,2.6,0.5c0.6,1.1-0.8,1.6-1,2.5c-2.9,0.5-5.9,1.2-8.8,1.6
			c-1,0.2-2.4,0.6-3.1-0.4C156.7,237.8,158.4,237.2,158.6,236.2z"/>
		<path class="st37" d="M81.9,128.7c-0.1-1.6,0.3-3.3,2-3.6c1.4-0.3,2.5,0.9,3.1,2.2c2.1,4.2,6.4,7.2,7.3,12.2
			C90.2,139.2,82.7,132.7,81.9,128.7z"/>
		<path class="st38" d="M123.6,116.2c-4.3-0.3-8.8,0.7-12.8-1.9c-1.8-1.1-3.1,0.1-4.1,1.6c-1.1,1.6-2.3,2.9-4.2,3.8
			c-2,1-3.8,1.7-5.5-0.3c-1.3-1.5-3.3-3-2.1-5.3c1-2.2,2.9-3.2,5.4-2.9c2.4,0.3,4.1-0.6,5.7-2.5c3.7-4.5,5.3-4.6,9.3-0.4
			c2.3,2.4,4.5,4.5,8.1,3.8c1.3-0.2,2.6,0.5,3,1.7c0.5,1.4-1.5,1.4-1.9,2.4C124.2,116.4,123.9,116.4,123.6,116.2z"/>
		<path class="st39" d="M79.1,120.3c-2-0.5-4.6-2.2-4.4-4.6c0.3-3.2,3.5-3.8,6.4-3.7c2.2,0.1,4.6,0.4,4.8,3.4
			C86.2,117.6,82.5,120.4,79.1,120.3z"/>
		<path class="st40" d="M126.9,104.5c1.2,0,2.7-0.1,3,1.5c0.2,1.3-0.9,1.9-1.9,2.5c-2.7,1.6-5.3,3.8-8.7,1.8
			c-1.3-0.8-2.2-1.8-1.8-3.4c0.4-1.5,1.7-1.4,3-1.6C122.7,105.1,125,106.1,126.9,104.5C126.9,104.5,126.9,104.5,126.9,104.5z"/>
		<path class="st41" d="M131.1,103.7c0.3-0.8,0.6-1.7,0.8-2.5c3,0,6,0,9.1,0c1.6,0,3.5,0.2,3.5,2c0,1.9-2.1,1.5-3.3,1.3
			C137.9,103.7,134.3,106.6,131.1,103.7z"/>
		<path class="st42" d="M135.3,115.3l-0.4,0c0,0-0.4,0-0.4,0c-1.1-0.1-2.5,0.1-2.9-1.1c-0.6-1.5-3.3-2.7-1.3-4.5
			c1.7-1.6,4.2-1.8,5.9,0.3C137.5,111.9,137.9,113.9,135.3,115.3z"/>
		<path class="st43" d="M123.6,116.2c0.3,0,0.6-0.1,0.9-0.1c1.1,0,2.2,0.1,3.3,0.1c-5.5,2.4-10.9,5-16.7,6.7
			c0.4-0.4,1.1-0.9,1.1-1.2c-1.4-5.5,2.7-3.7,5.1-3.8C119.5,117.7,121.7,117.7,123.6,116.2z"/>
		<path class="st44" d="M107.6,125.2c-0.2,0.6-0.4,1.2-0.6,1.7c-1.2,0.7-2.5,1.4-3.7,2.1c-0.2-0.4-0.5-0.9-0.7-1.3
			C104.2,126.8,105.5,125.2,107.6,125.2z"/>
		<path class="st45" d="M130.3,138.7c-2.3,0-4.4,0.2-6.1-2.2c-1.6-2.2-4.6-2.1-7.2-2c4.1-2.9,9.5-3.1,13.3-6.7
			c-0.2-0.7,0.2-1.1,0.7-1.5c3-0.8,5.2-3.9,8.8-3.3c0.6,0.9,0.8,1.9,0.3,2.7C137.5,130.6,135.1,135.5,130.3,138.7z"/>
		<path class="st46" d="M131.1,127c-0.3,0.3-0.6,0.5-0.9,0.8c-4.4,0.3-8.2-2.4-12.5-2.5c3.2-4.2,7.7-4.5,12.5-4.2
			C132.8,122.8,132.5,124.8,131.1,127z"/>
		<path class="st47" d="M130.3,138.7c3.7-3.1,5.3-7.8,8.2-11.5c1-1.2,1.1-2.8,0.9-4.3c-0.5-0.8-0.1-1.5,0.2-2.2
			c0.2-0.4,0.4-0.7,0.7-1c0.7-0.6,1.4-0.9,2.3-0.7c2.2,1,1.7,2.8,0.8,4.1c-1,1.5-1.2,3.4-2.3,4.8l0,0c-1.3,1.5-2.2,3.3-3.3,4.9
			c0,0,0,0.1,0,0.1c-3.3,1.4-4.1,5.4-7.4,6.7C130.3,139.3,130.3,139,130.3,138.7z"/>
		<path class="st48" d="M140.2,121.1c-0.3,0.6-0.5,1.1-0.8,1.7c-2.6,1.7-5.2,3.5-8.3,4.2c0-2,0.3-4-0.9-5.8c0.6-0.5,1.1-1.1,1.7-1.6
			c0.3-0.3,0.7-0.4,1.2-0.4C135.6,119.4,138.2,119.2,140.2,121.1z"/>
		<path class="st49" d="M132.8,119.5l-0.4,0c0,0-0.4,0-0.4,0c0-0.6-0.1-1.1-0.1-1.7c3.3-1.6,6.8-0.6,10.2-0.7
			c1.6,0.8,0.8,1.6-0.1,2.4c-0.6,0.3-1.1,0.5-1.7,0.8C137.8,120.3,135.2,120,132.8,119.5z"/>
		<path class="st32" d="M142,119.5c0.4-0.8,0.6-1.6,0.1-2.4c2.1-0.3,3.2,0.2,2.7,2.7c-0.5,3-1.4,5.8-3.6,8c0.2-1.8,0.8-3.4,1.8-4.9
			C143.7,121.6,144.3,120.1,142,119.5z"/>
		<path class="st32" d="M137.8,132.8c0.3-2.2,1.2-3.9,3.3-4.9c0,0.5-0.1,1.1-0.1,1.6C139.9,130.5,139.6,132.3,137.8,132.8z"/>
		<path class="st46" d="M132.8,119.5c2.6-0.2,5.1,0,7.5,0.8c0,0.3,0,0.5-0.1,0.8C137.7,120.6,135.1,120.8,132.8,119.5z"/>
	</g>
</g>
</svg>
