<?xml version="1.0" encoding="utf-8"?>
<!-- Generator: Adobe Illustrator 20.0.0, SVG Export Plug-In . SVG Version: 6.00 Build 0)  -->
<svg version="1.1" id="Layer_1" xmlns="http://www.w3.org/2000/svg" xmlns:xlink="http://www.w3.org/1999/xlink" x="0px" y="0px"
	 viewBox="0 0 250 250" style="enable-background:new 0 0 250 250;" xml:space="preserve">
<style type="text/css">
	.st0{fill:#CFE6EE;}
	.st1{fill:#AAD0DA;}
	.st2{fill:#525CAD;}
	.st3{fill:#8691E7;}
	.st4{fill:#BED7DF;}
	.st5{fill:#C1D9E2;}
	.st6{fill:#C1D9E1;}
	.st7{fill:#5F68CE;}
</style>
<g>
	<g>
		<path class="st0" d="M119,219c-3.2,2.1-5.7,0.6-6.8-2.2c-1.5-3.8-2.6-7.8-3.1-11.8c-0.3-2.4-2.2-3.7-2.8-5.7
			c-2.3-7.3-3.9-15.1-6.9-21.8c-3.6-8,0-16.5-4.2-23.9c-0.8-1.4-0.2-3.6-0.2-5.4c0-2.5,0.2-5-2-6.9c-0.5-0.5-0.9-1.5-0.9-2.2
			c0.2-8.9-3.1-16.9-6.7-24.8c-0.6-1.3-0.4-2.9-0.4-4.4c0-1.7,0.1-3.4-1-4.8c-6.4-8.2-4.8-17.5-4.4-26.9c0.4-9.4,3.9-18.1,5.9-27.1
			c0.5-2.4,1.1-4.2-2-5.6c-3.2-1.5-3.6-4.4-1.5-7.5c0.4,0.3,0.7,0.7,0.9,1.2c0.5,2.3,1.8,4,4.3,4.2c9.7,0.9,19.1,0.5,25.6-8.4
			c3,1.7-0.4,4.3,1.1,6.7c3,5,6.3,9.6,11,13.2c9.1,6.9,15.2,15.7,17,27.1c0.8,4.9,1.5,9.8,2.4,14.6c0.8,4.1,2.3,8.3,3.5,12.5
			c0.5,1.6,0.8,3.1,1.1,4.7c1.3,7.1,5.6,13.6,4.2,21.3c3.6,2.4,2.5,6.1,2.7,9.5c0.2,2.8,3.4,3,4.1,5.8c2.2,8.7,6,16.9,7.3,26.1
			c1.3,8.9,4,17.6,3.6,26.7c-0.1,1.6,0.7,3.4-1.1,4.6c-16.3-2.2-32.4-2.6-47.3,6.1C120.6,215.2,118.1,215.8,119,219z"/>
		<path class="st1" d="M119,219c-3.1-0.7-4.1-2.1-0.9-4c11.9-6.9,24.3-11.7,38.5-9.4c3.4,0.5,6.9,0.2,10.4,0.3
			c1.3,0,2.8-0.1,2.9,1.9C154.1,217.1,137,219.9,119,219z"/>
		<path class="st2" d="M112.9,35.1c0.6,2.6-1.2,3.9-2.9,5.2c-7,5.2-15.1,5.4-23.2,4.7c-3.3-0.3-5.5-2.2-4.5-6.1
			c0.9-0.6,1.8-0.8,2.9-0.4c6.3,2.5,12,1.1,17.1-3c2.1-2.1,4.8-3.2,7.7-3.7C112.5,31.5,111.8,34.1,112.9,35.1z"/>
		<path class="st3" d="M85,39.1c-0.9-0.1-1.8-0.1-2.7-0.2c-0.1-0.3-0.2-0.6-0.2-0.8c5.9-3.1,11.9-6.3,18.7-6.8
			c3.1-0.2,6.2-0.8,9.2,0.6c-1.5,2.7-5,2.1-7,4.2c-5,2.6-10.6,3.1-16,4.1C86.1,40.3,85.5,39.8,85,39.1z"/>
		<path class="st4" d="M111.4,158c-3.7,0-7.3,0-11,0c-1,0-2.2-0.1-2.1-1.5c0.1-1.6,1.3-0.9,2.2-0.8c5.8,1,11.5-0.6,17.2-1.4
			c9.5-1.3,18.6-4,27.2-8.2c1-0.5,2.3-0.9,3.3-0.7c0.8,0.1,1.7,1.1,2.1,1.9c0.7,1.2-0.5,1.8-1.4,2.1c-6.7,2.7-13.4,5.1-20.5,6.8
			C122.8,157.7,117.2,158,111.4,158z"/>
		<path class="st5" d="M106.8,143.9c-1.1,0.1-2.8,0.3-2.9-1c-0.2-2.2,2-2.5,3.5-2.7c8.6-1.3,16.6-4.1,24.6-7.3
			c1.4-0.6,2.7-1.3,3.9-2.1c1.3-0.8,2.6-1,3.5,0.3c1.1,1.6-0.4,2.3-1.5,3c-4.9,2.9-10.5,3.7-15.7,5.9
			C117.2,142,112.1,143.4,106.8,143.9z"/>
		<path class="st6" d="M137.8,97.1c-11.5,3.4-22.3,9.7-34.9,8.8c-0.2-0.5-0.3-1.1-0.5-1.6c11.6-3.2,23.2-6.3,34.7-9.5
			C137.3,95.6,137.5,96.3,137.8,97.1z"/>
		<path class="st7" d="M85,39.1c4.3,0.3,8.1-1.6,12.2-2.4c1.9-0.4,3.8-0.7,5.8-0.7C99.7,40.9,88.7,42.8,85,39.1z"/>
	</g>
</g>
</svg>
