<?xml version="1.0" encoding="utf-8"?>
<!-- Generator: Adobe Illustrator 20.0.0, SVG Export Plug-In . SVG Version: 6.00 Build 0)  -->
<svg version="1.1" id="Layer_1" xmlns="http://www.w3.org/2000/svg" xmlns:xlink="http://www.w3.org/1999/xlink" x="0px" y="0px"
	 viewBox="0 0 250 250" style="enable-background:new 0 0 250 250;" xml:space="preserve">
<style type="text/css">
	.st0{fill:#EB8C4D;}
	.st1{fill:#5F974F;}
	.st2{fill:#D39254;}
	.st3{fill:#72AB66;}
	.st4{fill:#708E41;}
	.st5{fill:#E1945D;}
	.st6{fill:#E19663;}
	.st7{fill:#9DA87F;}
	.st8{fill:#F38A44;}
	.st9{fill:#FBEDD4;}
	.st10{fill:#F48A43;}
	.st11{fill:#EEBA93;}
	.st12{fill:#E7B388;}
	.st13{fill:#E08F57;}
	.st14{fill:#F18B41;}
	.st15{fill:#DD8F5F;}
	.st16{fill:#D49261;}
	.st17{fill:#DB925D;}
	.st18{fill:#D69057;}
	.st19{fill:#D58D5E;}
	.st20{fill:#D39767;}
	.st21{fill:#CC9367;}
	.st22{fill:#569D44;}
	.st23{fill:#F6FCF8;}
	.st24{fill:#F0E5D9;}
	.st25{fill:#FBE2C9;}
	.st26{fill:#F9DEC5;}
</style>
<g>
	<g>
		<path class="st0" d="M192.4,60.8c12.2,11.8,24.1,23.8,31.8,39.2c0.5,1,1.3,1.9,1.9,2.9c5,8.2,4.3,13.3-2.8,19.8
			c-30.2,27.7-60.3,55.5-90.7,82.8c-7.7,6.9-16.8,11.9-27.4,13.4c-8.1,0.6-16.2,0.6-24.3,1.2c-3.7,0.3-6.4-1.4-7.7-5.1
			c-1.3-3.6-3.2-6.9-5-10.3c-1-2-2.3-3.8-4.3-4.7c-4.9-2-7.8-6.1-10.9-10c-2.8-3.4-5.9-6.3-10.1-7.8c-3.3-1.2-4.8-3.4-4.9-6.7
			c-0.1-8.9-0.3-17.9,0.9-26.8c1-13.3,6.4-24.7,14.7-34.7c21-25.3,44.2-48.4,67.6-71.4c3-2.9,5.9-5.8,8.9-8.7
			c3.1-1.2,5.8-2.9,8.3-5.2c3.7-3.5,11.5-2.8,16,1.5c2.3,2.2,4.7,3.5,7.4,4.6c0.4,0.3,0.7,0.5,1.1,0.8c4.2,3.5,7,8.7,12.8,10.3
			l0.1,0.1c1.4,1.6,0.1,2.7-0.8,3.8c-5.7-0.5-9.7-4-13.4-7.9c-1.6-1.6-2.3-4.1-5.4-4.2c6,14.2,16.1,24.5,28.8,32.4
			c0.7,0.4,1.5,0.7,2.3,1c5.4,2,5.4,2.1,2.6,7c-0.7,1.2-1.4,2.5,0,3.5c1.5,1.1,3.4,1.1,4.4-0.6c1.4-2.5,3.6-4.2,6.5-6.2
			c-5.7-1.3-9.1-4.5-11.2-9.1c-0.7-1.6-2.3-2.3-3.9-2.9c-5.5-2.2-8.3-6.9-11-11.7c-0.2-0.4,0-1,0.3-1.4c2.5-1.1,4.1,0.5,5.5,2.1
			C184,55.7,188.4,58,192.4,60.8z"/>
		<path class="st1" d="M36.9,191.8c0.3-0.3,0.7-0.7,1-1c5.7-0.8,10.6-0.4,12.9,6.1c0.9,2.6,3.2,4.2,6,4.7c1.9,0.4,3.7,1.2,4.1,3.2
			c1.2,5.9,3.7,11.3,5.9,16.8c-3.9,3.9-9.2,5.2-13.8,7.6c-3.3,1.7-6.9,2.9-10.4,4.1c-5.4,1.8-5.5,1.9-5.8-3.5c0-0.7-0.1-1.3,0-2
			c4.6-4.3,5.6-9.1,2.1-14.6c-1-1.5-0.5-3.2,0.5-4.7c0.6-0.8,1.2-1.6,1.8-2.4c2-2.6,2.8-5.6,2.6-8.9c-0.2-4.8-4.9-2.3-6.8-4.3
			C36.5,192.7,36.5,192.3,36.9,191.8z"/>
		<path class="st2" d="M38.9,148.9c0,8.8,0.1,17.6,0,26.4c0,3.3,0.9,5.4,4.6,5.7c4.1,0.3,7.1,3.8,9,6.2c4,5,8.1,9.3,13.5,12.8
			c4.8,3.1,6.4,9.4,8.4,14.7c1.4,3.8,3.5,4.2,6.7,4.2c8,0,15.9,0,23.9,0c-6.6,2-13.5,0.4-20.1,2.2c-3.9,0.6-7.9,0.1-11.8,0.3
			c-1.1,0-2.1-0.4-2.5-1.4c-2.3-6-6.8-10.5-10.2-15.7c-4.5-6.8-10.7-12.1-17.6-16.6c-1-0.6-2.2-0.8-2.9-1.8
			C35.1,173.8,36.5,161.3,38.9,148.9z"/>
		<path class="st3" d="M37,228c1.3,1.7,2.5,3.5-0.2,6.3c11.1-3,20.1-7.8,29.2-12.3c0.4-0.4,0.8-0.4,1.2-0.1c0.2,0.4,0.2,0.9-0.1,1.2
			c-8.3,4.4-16.7,8.4-25.5,11.6c-2.4,0.9-4.4,0.5-6.4-1.2c-4.4-3.6-8.4-7.5-11.9-11.9c-2.5-3.2-3.5-6.3-0.3-10.2
			c5-6.2,9.3-13,14-19.6c0.1,0.4,0.1,0.8,0.2,1.2c0.7,0.8,0.8,1.8,0.5,2.8c-3.9,4.1-5.8,9.6-9.7,13.7c-3,3.5-2.5,6.2,1.3,8.9
			c1.9,1.3,3.5,3.1,5.3,4.5C36.2,224.2,37.4,225.7,37,228z"/>
		<path class="st4" d="M67,222c-0.3,0-0.6,0-1,0c-3.1-5.3-5.4-10.8-6.2-16.9c-0.2-1.3-1.2-2.1-2.5-2c-4.7,0.2-7.2-3-8.3-6.6
			c-1.4-4.1-3.8-5-7.5-4.5c-1.3,0.1-2.7,0.2-3.6-1.1c0.3-1.8,0-3.9,2.2-4.9c3.5,0.1,6.1,1.8,8.7,4.1c7.3,6.5,13.1,14.2,18.9,21.9
			c2,2.7,2.9,5.8,4.1,8.8C70.4,222.2,68.7,222.3,67,222z"/>
		<path class="st5" d="M162,35c-3.2,0.3-5.4-0.7-7.5-3.5c-3.6-4.9-13.2-4.7-16.8,0.1c-2.1,2.8-4.8,2.3-7.5,2.4
			c0.1-0.2,0.1-0.3,0.2-0.4c11.5-12,12.3-12.1,26-2.6C158.3,32.3,160.7,32.9,162,35z"/>
		<path class="st6" d="M192.4,60.8c-4.7-1.5-8.7-4.1-12.1-7.6c-1.6-1.6-3.1-2.9-5.3-3.3l0,0c0.3-1.3,0.6-2.6,0.9-3.8
			C181.4,51,186.9,55.9,192.4,60.8z"/>
		<path class="st6" d="M175.8,46.1c-7.2,0.2-9.1-6.1-12.8-10.3C167.8,38.6,171.7,42.5,175.8,46.1z"/>
		<path class="st7" d="M67,222c1.5-0.9,3.1-1.1,4.8-1.2c4.4,0.1,8.8,0.3,13.3,0.4c-5.9,1.7-12.1-0.1-18,1.9
			C67,222.8,67,222.4,67,222z"/>
		<path class="st8" d="M175,50c3.9,5,6.3,11.6,13.8,12.6c0.7,0.1,1.6,1.3,1.9,2.2c1.8,4.6,4.2,8.3,9.9,8.4c1,0,1.9,0.7,2,1.9
			c0,1.2-0.9,1.7-1.8,2.1c-2.2,0.9-4.3,1.7-4.8,4.5c-0.3,2-1.9,2.6-3.8,2.4c-1.9-0.1-3.7-0.7-4.7-2.4c-1.2-1.9,0.5-3.1,1.7-4.2
			c2.8-2.5,3.1-3.3-1.2-4.8c-7-2.4-12.6-7.3-18.1-12.3c-6.7-6.2-10.4-14.5-15.7-21.6c-1.4-1.8-0.1-2.5,1.4-2.6
			c2.3-0.1,4.3,0.8,5.4,2.9C164,44.8,170.1,46.7,175,50C175,50,175,50,175,50z"/>
		<path class="st2" d="M66,124.7c-0.6-1.1-2.3-1.8-1.5-3.4c0.7-1.5,2.1-0.4,3.1-0.4c2.2,0,4.3,0.1,6.5,0c1.8,0,3.4,0.3,3.8,2.4
			c0.4,1.7,1.7,2.3,3,3.1c3.5,2.1,4.6,6.9,2.7,10.5c-2,3.7-3.4,7.4-1.9,11.9c1.2,3.6-1.4,6.7-2.6,9.8c-1.7,4.2-6.2,6.7-5.6,12.6
			c0.5,5.3-5.7,9.4-11.4,9.7c-4.7,0.3-8.8,0.3-11-5.3c-1.1-2.8-2.5-5.9-6.2-7.2c-1.9-0.7-1.4-3.9-0.8-5.5c3.7-9.2,3.4-19.4,7.4-28.3
			c1.6-3.6,4.7-6.7,5.4-10.8c0.4-2,1.6-1,2.6-0.5c1.3,0.6,1.5,2.7,3.4,2.7c0.4,1.9-1.2,2.6-2.1,3.6c-9,9.6-11.5,21.4-11.4,34
			c0,3.6,1.7,6.8,3.6,9.7c2.4,3.5,9.4,3.4,12.3-0.3c8.6-11.1,12.9-23.9,14.1-37.7c0.4-4.9-2.8-8.3-7.7-9.5
			C69.9,125.3,67.7,126.2,66,124.7z"/>
		<path class="st9" d="M66,124.7c9.9-2.2,16,3.9,14.4,13.9c-1.3,7.9-3.3,15.5-6.5,22.9c-2.1,4.7-4.9,9-8.2,13
			c-4.1,4.9-12.2,3.2-15.3-2.5c-3.9-7-2.4-14.3-1.2-21.4c1.6-9.7,6-18.1,13.7-24.5C64.2,126.2,65.1,125.5,66,124.7z"/>
		<path class="st10" d="M196,120c1.7-4.9,0.7-7.7-3.7-9.1c-2.5-0.8-3.5-2.1-3.3-4.7c0.1-2.7,0-5.5,3.1-6.7c3-1.2,4.6,0.6,4.9,3.2
			c0.4,4.2,1.8,7.1,6.1,8.4c2.6,0.8,3.5,3.5,4.3,5.8c0.9,2.3-0.1,4.1-2.7,4.1c-3.8,0-7.2,0-8.5,4.7c-0.3,1.1-2.2,2.6-4.2,1.4
			c-2.9-0.7-2.3-2.8-1.6-4.5C191.4,120.1,193.4,119.2,196,120z"/>
		<path class="st11" d="M143,66.1c0.3,0.3,0.7,0.6,1,0.9c8.1,4.5,12.9,12.2,18.7,18.9c4,4.6,7.7,9.5,10.9,14.7
			c3.8,6.7,9.7,12,12.4,19.4l0,0c3.3,1.6,4.5,4.4,4.3,7.9c-2.1,1-3.7-0.2-4.5-1.8c-5.2-9.6-12.2-18-18.1-27.2
			c-4.7-7.4-10.8-13.8-16.8-20.2c-2.2-1.7-3.4-4.4-5.6-6.1c-3-2.9-6.2-5.4-9.2-8.3c-3.7-3.6-5.6-3.9-9.4-0.5
			c-4.5,3.9-8.9,7.9-13,12.2c-1.8,1.9-3.4,4.2-6.6,3.3c-0.9-1.2,0.1-1.7,0.9-2.3c1-0.4,1.7-1,2-2c1.6-4.2,6-5.6,8.6-8.7
			c2.2-2.5,4.6-4.8,7-7.1c3.7-3.6,6.5-3.6,10.5-0.3C138.7,61.1,140.4,63.9,143,66.1z"/>
		<path class="st12" d="M160,165c-5.9,2-9.2,0.8-12.3-4.5c-3.7-6.2-9.3-10.8-14-16c-5.3-5.8-11-11.4-16.1-17.4
			c-1.9-2.2-4.3-4.1-6.5-6.1c-2.7-1.2-4.5-3.6-6.9-5.2c-4.6-6-11.1-10.3-15.1-16.8c0-1,0-2,0-3c1.3-2.3,2.6-4.5,4.4-6.4
			c1.2-1.3,2.4-2.8,4.6-1.8c0.9,2.2-0.9,3.5-2.1,4.6c-3.4,3.3-2.8,6.3,0.4,9.3c5.6,5.2,10.2,11.3,16,16.3
			c11,9.6,19.6,21.6,30.2,31.7c3.7,3.5,6.6,7.9,10.2,11.5c1.5,1.5,2.9,2.7,5.2,2.2c0.7-0.1,1.4,0,2.1,0.4
			C160.3,164.2,160.3,164.6,160,165z"/>
		<path class="st13" d="M186,120c-4.6-6.1-9.5-12.1-13-19c-1.6-7.2-7.5-11.3-12-16.5C157,80,154.5,74.2,148.9,71
			c-1.2-0.7-1.7-2.4-0.9-4c7.5,0,7.5,0,9.1,7.2c0.7,3.2,3.3,5.5,5.5,7.5c5.2,5,10.6,9.7,12.9,17c0.9,2.8,3,4.9,5.4,6.9
			C185.1,109.3,186.8,114.3,186,120z"/>
		<path class="st14" d="M88,90.5c-1.1,4.1,1.5,9.5-4.5,11.8c-2.3,0.9-4.2,0.9-5.8-1.1c-1.5-1.9-2.7-3.4-2.1-6.5
			c1.2-6.1,6.3-5.7,10.1-7.2C87.5,86.8,87.9,89,88,90.5z"/>
		<path class="st15" d="M143,66.1c-3.6-1-5.3-4.3-7.9-6.6c-3-2.6-5.3-3.2-8.3,0.1c-5.1,5.6-10.6,10.8-16.7,15.3
			c0-3.6-0.2-7.4,4.7-8.1c2.3-0.3,3-2.1,3.9-4c3-6.4,12.1-9.6,18.4-6.3C140.7,58.6,141.1,62.9,143,66.1z"/>
		<path class="st16" d="M191,143c-3.6-0.2-5.7,1.5-7,4.8c-2,5.5-7.8,7.1-11.7,10.7c-1.2,1.1-3.2,1.5-3.8,3.4c-1.1,3.3-3.8,3.1-6.5,3
			c3.3-3.9,6.8-7.7,10-11.7c3.3-3.6,7-6.9,10.8-10c3.9-3.2,7.2-7,10.8-10.5C195.6,136.6,194.9,139.1,191,143z"/>
		<path class="st13" d="M191,143c0.3-3.4,4.6-6,2-10c-3.4-0.2-4.4-1.9-3-5c-0.3-3.2-2.4-5.5-4-8c1.5-0.1,2.4-0.8,3.1-2.1
			c0.9-1.6,2-3.4,4.2-2.7c2.1,0.7,3,2.5,2.8,4.7c-3.1,1.3-7.1,2.1-4,7c0.2,1.4-0.6,3.4,1.4,3.8c6,1.3,3.5,6,3.4,9.2
			C196.7,143,193.4,142.7,191,143z"/>
		<path class="st17" d="M148,67c0.3,4,4.5,4.5,6.4,7.1c2.9,4,5.8,7.9,8.6,12c2.3,3.3,7.2,3.6,8.5,8.4c0.6,2.2,1.6,4.2,1.5,6.6
			c-3-3.9-6-7.7-9-11.6c-6.1-8-13-15.3-20.1-22.5C145.3,67,146.6,67,148,67z"/>
		<path class="st18" d="M98.1,88.1c-4.8,0.6-5.2,6.2-9,7.9c-1.4-4.9,3.2-7.6,4.2-11.6c0.2-0.6,1.6-1.4,2.5-1.3
			c3.5,0.3,5.2-0.9,6.2-4.5c0.8-2.9,4-1.3,6.1-1.6c-0.4,0.6-0.7,1.2-1.1,1.8C105.5,83.4,102.2,86.1,98.1,88.1z"/>
		<path class="st19" d="M89,99c5.8,4.9,11,10.4,15.9,16.1c1,1.6,1.6,3.3,0,4.9c-2.7-4-4.6-8.2-10.2-10C90.5,108.7,88.9,103.8,89,99z
			"/>
		<path class="st20" d="M173,153.9c-3.9,3.5-5.4,9.3-11,11.1c-0.7,0-1.3,0-2,0c0-0.3,0-0.6,0-1c2.6-4.5,7.1-7,10.7-10.3
			C171.4,153.2,172.3,153.3,173,153.9z"/>
		<path class="st21" d="M105,120c0-1.6,0-3.3,0-4.9c2.5,1.5,4.4,3.6,6.1,5.9C109,120.7,106.8,121.8,105,120z"/>
		<path class="st22" d="M37,228c-2.2-4.8-7-7.1-10.6-10.5c-2.3-2.2-4-3-1-5.6c0.8-0.7,1.1-1.9,1.6-2.9c3.7-1.3,5-4.5,6.4-7.7
			c0.9-1.9,2.5-3.5,3.6-5.3c0-1,0.1-2,0.1-2.9c8.3-0.1,10.4,3.4,6.8,11.2c-0.6,1.2-1.1,2.5-2.1,3.4c-2.5,2.3-3.3,4.1-0.8,7.4
			C44.6,219.5,42.8,224.1,37,228z"/>
		<path class="st1" d="M37,196c-0.6,4-3.6,7-5,10.7c-0.8,2.1-3,2.4-5,2.4C31.2,205.3,31.6,198.8,37,196z"/>
		<path class="st23" d="M78,136.9c0.1,2.3,0.2,4.8-2,6.7c-0.5,0.5-1,1.5-0.9,2.2c0.7,10.4-6.1,17.8-10.6,26.1
			c-2.6,4.7-7.8,4.1-10.8-0.3c-5.6-8.2-3.8-16.4-1.2-25c1.9-6.4,5.3-11.6,9.7-16.4c3.4-3.7,7.8-4.1,11.9-2.8
			C78.3,128.7,78.1,133,78,136.9z"/>
		<path class="st24" d="M146,72c2.4,1.3,3.3,4,5,5.9c2.2,2,4.2,4.3,5.3,7c0.6,1.5,1.6,2.3,2.6,3.3c2.9,3,6,5.7,7.3,10.2
			c1.4,4.8,3.4,9.3,8.9,11.9c2.9,1.3,4.9,5.7,4.6,9.3c-0.3,4.1,1.3,5.6,4.8,6.6c2,0.6,4,1.7,5.1,4.2c2.5,5.6,2.7,5.6-3.3,8.1
			c-4.3,1.4-6.2,5-7.8,8.7c-2.8,2.4-5.2,5.3-8.8,6.6c-5.6,0.9-10.7,3.9-17,1.8c-4.6-1.5-8.4-3.7-11.7-7.1
			c-7.1-7.3-13.8-15-19.7-23.5c-1-1.4-2.1-2.6-3.6-3.3c-1.6-0.7-2.8-2-2.9-3.8c-0.4-7.3-6.2-9.4-11.5-11.6
			c-6.2-2.6-9.4-8.7-6.9-14.9c0.7-1.6,1.8-3.2,3.4-3.4c7.8-1,10.1-7.9,14-13c0.7-0.9,1.1-2.1,2.2-2.6c3.3-1.5,5.4-4.2,7.7-6.9
			c5.4-6.6,10.1-6.3,13.9,1.4C139.7,71,143.2,70.6,146,72z"/>
		<path class="st25" d="M146,72c-4.6,0.6-8,0-9.9-5.4c-2.1-5.9-7.4-6.3-11.1-0.9c-2.2,3.2-4.8,5.4-7.9,7.7
			c-3.1,2.3-4.9,6.7-7.3,10.1c-2.2,3.1-4.3,5.8-8.7,5.5c-4-0.2-3.4,3.4-3.8,5.7c-1.1,6.1,1,9,6.9,10.3c3.2,0.7,5,3.8,8,4.9
			c3.9,1.3,3.5,4.8,3.8,7.8c0.2,1.4,0.5,2.9,2,3c2.6,0.2,3.1,2.5,4.5,3.7c5.1,4.3,6.5,11,11.5,15.3c2.9,2.5,6.1,4.7,8.3,8.5
			c3.4,5.7,10.6,6.6,16.7,7.2c3.4,0.3,6.9-2.8,10.9-2.6c-2.8,5-7.4,8.1-12,11.1c-2,1.6-3.8,0.8-5.2-0.9
			c-11.1-13.5-23.5-25.7-35.3-38.6c-6.4-7-13.4-13.6-20.4-20.2c-1.9-1.8-3.4-4-5.2-6c-1.2-1.4-0.4-2.3,0.5-3.4
			c1.9-2.3,3.7-4.6,5.6-6.9c2.9-3.1,5.9-6.2,8.8-9.2c6-0.6,7.7-6.8,12.1-9.5c3.2-2,5.2-5.5,8.5-7.6c3.1-2,5.8-1.8,8.5,0.8
			C139.3,65.7,142.7,68.8,146,72z"/>
		<path class="st26" d="M158,164.1c4-3.7,8-7.4,12-11.1c3.6-0.7,5.1-4.3,8-6c2.2-3.4,4.9-6.4,8-9c1.1-1.8,5-0.6,4.4-3.7
			c-0.6-3.2-2.2-6.5-6.1-7c-4.8-0.6-7.7-2-5.5-7.6c1-2.7-2.5-3.3-2.7-5.4c-0.2-2.4-0.4-4.1-3.6-3.8c-1.4,0.1-2.9-1.1-3.5-3
			c-1.4-4.1-4.2-7.5-5-12c-0.3-1.7-3-5.8-6.7-6.5c-1-0.2-2.4-0.5-2.1-1.6c1.1-4.3-2.9-6.3-4.1-9.5c5.9,3.9,9.7,9.8,13.8,15.2
			c7.2,9.2,13,19.4,20.2,28.7c1.6,2.1,1.5,5.5,4.9,6.2c0,2.3,1,4,3,5c-0.2,5-4.6,6.9-7.6,9.7c-4,3.9-8.3,7.5-12.4,11.2
			c-5.1,2.4-8.1,7.4-13,10.1C159.3,164,158.7,164.1,158,164.1z"/>
		<path class="st25" d="M186,138c-1.7,3.9-4.7,6.5-8,9C179.2,142.7,181,139,186,138z"/>
	</g>
</g>
</svg>
