<?xml version="1.0" encoding="utf-8"?>
<!-- Generator: Adobe Illustrator 20.0.0, SVG Export Plug-In . SVG Version: 6.00 Build 0)  -->
<svg version="1.1" id="Layer_1" xmlns="http://www.w3.org/2000/svg" xmlns:xlink="http://www.w3.org/1999/xlink" x="0px" y="0px"
	 viewBox="0 0 250 250" style="enable-background:new 0 0 250 250;" xml:space="preserve">
<style type="text/css">
	.st0{fill:#198694;}
	.st1{fill:#655E5B;}
	.st2{fill:#1D91A5;}
	.st3{fill:#46524B;}
	.st4{fill:#2196BB;}
	.st5{fill:#4B544D;}
	.st6{fill:#2088A7;}
	.st7{fill:#4B5376;}
	.st8{fill:#408794;}
	.st9{fill:#0697BD;}
</style>
<g>
	<g>
		<path class="st0" d="M116.9,177.7c13.1-23,21.2-47.9,27.6-73.4c1.6-6.2,4-12,7.6-17.2c1.1-1.6,2.1-3,0.8-5
			c1.7-2.7,3.6-3.5,6.4-1.2c1.2,1,2.9,1.6,4.4,2.2c3.8,1.6,8.7,1.6,9.9,6.9c-0.2,4-2.8,6.8-5.5,9.1c-14.6,12.6-22.4,29-27.3,47.2
			c-0.4,1.6-1,3.2-1.7,4.7c-5.1,9.4-6.9,19.7-7.7,30.2c-0.1,1-0.3,2-1,2.8C125.7,182,120.1,182.4,116.9,177.7z"/>
		<path class="st1" d="M116.9,177.7c2.2,2,5.2,2.1,7.8,3c2.2,0.7,3.9,1.8,5.3,3.4c1.6-0.3,3.2-0.5,4.3,1.1
			c-0.8,10.5-7.2,18.8-11.1,28c-6.4,0.8-11.9-1.7-17-5.1c1.4-8.2,5-15.7,7.8-23.4C114.7,182.4,114.1,179.3,116.9,177.7z"/>
		<path class="st2" d="M134.3,185.2c-1.5-0.3-3.1,0.3-4.3-1.1c0.6-10.3,1.3-20.4,6.3-29.9c4.3-8.2,5.5-17.7,9.5-26.2
			c4.1-8.8,8.4-17.2,15.6-24c4.4-4.2,9.3-8.1,11.6-14c0.4-0.3,0.8-0.3,1.2,0c0.7,3.7-0.7,6.8-3,9.6c-18.1,21.6-28.8,46.6-34.1,74.1
			C136.3,177.6,136.7,181.8,134.3,185.2z"/>
		<path class="st3" d="M163,84c-0.9-0.4-1.9-0.6-2.6-1.1c-2.4-1.9-4.8-2.8-7.6-0.7c-5.1-1-6.6,1.1-7.1,6.2
			c-1.4,13.5-8.6,23.8-19.1,31.9c-1.2,0.9-2.4,2.3-3.8,0.7c-1.3-1.5-0.8-3.1,0.4-4.5c0.4-0.5,0.9-0.9,1.5-1.3
			c10.7-8,15.8-18.9,16.8-32c0.6-7.8,3.5-9.9,11.4-8.3c1.8,0.4,3.5,0.9,5.3,0.2c2.7-1.9,4.5,0.3,6.5,1.5C167.8,81,167.3,83.3,163,84
			z"/>
		<path class="st4" d="M106.1,208.2c5.7,1.7,11.4,3.4,17,5.1c-4.2,7.3-9.6,13.8-14.7,20.4c-1.5,2-3.4,1.2-3.4-0.9
			C104.9,224.6,103.8,216.3,106.1,208.2z"/>
		<path class="st5" d="M169.9,62.8c2-6.1,4.2-12.2,5.8-18.3c1.3-4.8,4.2-2.1,6.6-2c3.4,0.1,2.4,2.5,2,4.3c-1.7,6.8-4,13.3-7.6,19.3
			c-0.4,1.4-0.9,3.2-2.8,2.3C171.8,67.2,168.8,66.4,169.9,62.8z"/>
		<path class="st6" d="M164.1,77.1c-2.2-0.1-3.6-2.5-6-2c0.9-1.7,1.9-3.4,2.8-5.1c4.2-4.6,6.8-5,12.4-2c1.2,0.7,2.6,0.2,3.8,1
			c5.2,2,5.4,4.1,1.1,11.3c-3.9,3.1-7.3-0.1-10.8-1.1C166.2,78.8,165.2,77.7,164.1,77.1z"/>
		<path class="st7" d="M164.1,77.1c3.1,0,5.7,1.8,8.6,2.7c2,0.6,3.7,0.3,5.5,0.5c-0.6,3.6-0.7,7.4-4,9.9c-0.4,0-0.8,0-1.2,0
			c-2.1-4.1-6.6-4.2-10-6C166.8,82.3,166,79.7,164.1,77.1z"/>
		<path class="st8" d="M177.1,68.9c-3.8,1.3-6.7-3.4-10.8-1.3c-1.7,0.9-3.6,1.4-5.3,2.3c0.7-4.2,1.7-8.1,7.5-6.1
			c0.3,0.1,1-0.7,1.5-1.1c1.8,2.2,2.5,6.7,6.9,3.3C176.9,67,177,67.9,177.1,68.9z"/>
		<path class="st9" d="M171.9,77.3c-2-0.1-4.4-1.8-4.5-4c-0.2-2.7,2.8-3.1,5.1-3.4c2.8-0.3,5.1,0.6,5.4,3.7
			C178.2,77.6,174.9,76.8,171.9,77.3z"/>
	</g>
</g>
</svg>
